<svg xmlns="http://www.w3.org/2000/svg" xmlns:xlink="http://www.w3.org/1999/xlink" width="378" zoomAndPan="magnify" viewBox="0 0 283.5 283.500005" height="378" preserveAspectRatio="xMidYMid meet" version="1.0"><defs><g/><clipPath id="79ee9259cc"><path d="M 22.097656 1.042969 L 95.164062 1.042969 L 95.164062 165.148438 L 22.097656 165.148438 Z M 22.097656 1.042969 " clip-rule="nonzero"/></clipPath><clipPath id="ef62257661"><path d="M 49.644531 1.042969 L 29.285156 1.042969 C 27.109375 1.042969 25.054688 2.039062 23.703125 3.742188 C 22.351562 5.445312 21.851562 7.675781 22.34375 9.792969 L 56.585938 156.257812 C 57.785156 161.382812 62.355469 165.007812 67.617188 165.007812 L 87.976562 165.007812 C 90.152344 165.007812 92.207031 164.011719 93.5625 162.308594 C 94.914062 160.605469 95.410156 158.375 94.917969 156.257812 L 60.675781 9.792969 C 59.480469 4.667969 54.910156 1.042969 49.644531 1.042969 Z M 49.644531 1.042969 " clip-rule="nonzero"/></clipPath><clipPath id="6c45bcce3a"><path d="M 0.0976562 0.0429688 L 73.164062 0.0429688 L 73.164062 164.148438 L 0.0976562 164.148438 Z M 0.0976562 0.0429688 " clip-rule="nonzero"/></clipPath><clipPath id="43720fc44f"><path d="M 27.644531 0.0429688 L 7.285156 0.0429688 C 5.109375 0.0429688 3.054688 1.039062 1.703125 2.742188 C 0.351562 4.445312 -0.148438 6.675781 0.34375 8.792969 L 34.585938 155.257812 C 35.785156 160.382812 40.355469 164.007812 45.617188 164.007812 L 65.976562 164.007812 C 68.152344 164.007812 70.207031 163.011719 71.5625 161.308594 C 72.914062 159.605469 73.410156 157.375 72.917969 155.257812 L 38.675781 8.792969 C 37.480469 3.667969 32.910156 0.0429688 27.644531 0.0429688 Z M 27.644531 0.0429688 " clip-rule="nonzero"/></clipPath><clipPath id="7e09fff133"><rect x="0" width="74" y="0" height="165"/></clipPath><clipPath id="aa615a43eb"><path d="M 75.789062 71.578125 L 134.800781 71.578125 L 134.800781 165.097656 L 75.789062 165.097656 Z M 75.789062 71.578125 " clip-rule="nonzero"/></clipPath><clipPath id="e03d732610"><path d="M 105.859375 71.578125 L 131.261719 71.578125 C 132.324219 71.578125 133.328125 72.078125 133.96875 72.925781 C 134.613281 73.777344 134.816406 74.878906 134.527344 75.902344 L 110.449219 160.683594 C 109.722656 163.242188 107.386719 165.007812 104.730469 165.007812 L 79.328125 165.007812 C 78.265625 165.007812 77.261719 164.507812 76.621094 163.65625 C 75.980469 162.808594 75.773438 161.707031 76.0625 160.683594 L 100.140625 75.902344 C 100.867188 73.34375 103.203125 71.578125 105.859375 71.578125 Z M 105.859375 71.578125 " clip-rule="nonzero"/></clipPath><clipPath id="e6643cdf17"><path d="M 0.789062 0.578125 L 59.800781 0.578125 L 59.800781 94.097656 L 0.789062 94.097656 Z M 0.789062 0.578125 " clip-rule="nonzero"/></clipPath><clipPath id="fc39846ccd"><path d="M 30.859375 0.578125 L 56.261719 0.578125 C 57.324219 0.578125 58.328125 1.078125 58.96875 1.925781 C 59.613281 2.777344 59.816406 3.878906 59.527344 4.902344 L 35.449219 89.683594 C 34.722656 92.242188 32.386719 94.007812 29.730469 94.007812 L 4.328125 94.007812 C 3.265625 94.007812 2.261719 93.507812 1.621094 92.65625 C 0.980469 91.808594 0.773438 90.707031 1.0625 89.683594 L 25.140625 4.902344 C 25.867188 2.34375 28.203125 0.578125 30.859375 0.578125 Z M 30.859375 0.578125 " clip-rule="nonzero"/></clipPath><clipPath id="7459ca76e3"><rect x="0" width="60" y="0" height="95"/></clipPath><clipPath id="8844c1bb2d"><path d="M 106.261719 71.578125 L 165.246094 71.578125 L 165.246094 165.046875 L 106.261719 165.046875 Z M 106.261719 71.578125 " clip-rule="nonzero"/></clipPath><clipPath id="a4f5a95958"><path d="M 133.730469 71.578125 L 109.054688 71.578125 C 108.175781 71.578125 107.351562 71.996094 106.832031 72.703125 C 106.308594 73.40625 106.152344 74.320312 106.410156 75.15625 L 132.933594 161.425781 C 133.585938 163.554688 135.550781 165.007812 137.777344 165.007812 L 162.453125 165.007812 C 163.332031 165.007812 164.15625 164.589844 164.679688 163.882812 C 165.199219 163.179688 165.355469 162.265625 165.097656 161.425781 L 138.574219 75.15625 C 137.921875 73.03125 135.957031 71.578125 133.730469 71.578125 Z M 133.730469 71.578125 " clip-rule="nonzero"/></clipPath><clipPath id="8def548be7"><path d="M 0.261719 0.578125 L 59.246094 0.578125 L 59.246094 94.046875 L 0.261719 94.046875 Z M 0.261719 0.578125 " clip-rule="nonzero"/></clipPath><clipPath id="40441a3d96"><path d="M 27.730469 0.578125 L 3.054688 0.578125 C 2.175781 0.578125 1.351562 0.996094 0.832031 1.703125 C 0.308594 2.40625 0.152344 3.320312 0.410156 4.15625 L 26.933594 90.425781 C 27.585938 92.554688 29.550781 94.007812 31.777344 94.007812 L 56.453125 94.007812 C 57.332031 94.007812 58.15625 93.589844 58.679688 92.882812 C 59.199219 92.179688 59.355469 91.265625 59.097656 90.425781 L 32.574219 4.15625 C 31.921875 2.03125 29.957031 0.578125 27.730469 0.578125 Z M 27.730469 0.578125 " clip-rule="nonzero"/></clipPath><clipPath id="2800dcfb8a"><rect x="0" width="60" y="0" height="95"/></clipPath><clipPath id="85da6fe9f0"><path d="M 146 1.042969 L 221 1.042969 L 221 165.257812 L 146 165.257812 Z M 146 1.042969 " clip-rule="nonzero"/></clipPath><clipPath id="60547be060"><path d="M 188.859375 1.042969 L 213.621094 1.042969 C 215.8125 1.042969 217.886719 2.035156 219.265625 3.742188 C 220.640625 5.445312 221.171875 7.683594 220.710938 9.828125 L 189.097656 156.222656 C 187.992188 161.347656 183.457031 165.007812 178.214844 165.007812 L 153.453125 165.007812 C 151.261719 165.007812 149.1875 164.015625 147.808594 162.308594 C 146.433594 160.601562 145.902344 158.367188 146.363281 156.222656 L 177.976562 9.828125 C 179.085938 4.703125 183.617188 1.042969 188.859375 1.042969 Z M 188.859375 1.042969 " clip-rule="nonzero"/></clipPath><clipPath id="fdfed230ad"><path d="M 0 0.0429688 L 75 0.0429688 L 75 164 L 0 164 Z M 0 0.0429688 " clip-rule="nonzero"/></clipPath><clipPath id="77040e9d32"><path d="M 42.859375 0.0429688 L 67.621094 0.0429688 C 69.8125 0.0429688 71.886719 1.035156 73.265625 2.742188 C 74.640625 4.445312 75.171875 6.683594 74.710938 8.828125 L 43.097656 155.222656 C 41.992188 160.347656 37.457031 164.007812 32.214844 164.007812 L 7.453125 164.007812 C 5.261719 164.007812 3.1875 163.015625 1.808594 161.308594 C 0.433594 159.601562 -0.0976562 157.367188 0.363281 155.222656 L 31.976562 8.828125 C 33.085938 3.703125 37.617188 0.0429688 42.859375 0.0429688 Z M 42.859375 0.0429688 " clip-rule="nonzero"/></clipPath><clipPath id="4a3f8ec809"><rect x="0" width="75" y="0" height="165"/></clipPath><clipPath id="5b28ae2887"><path d="M 123.742188 1.042969 L 262.410156 1.042969 L 262.410156 31.753906 L 123.742188 31.753906 Z M 123.742188 1.042969 " clip-rule="nonzero"/></clipPath><clipPath id="17a2d4f997"><path d="M 133.476562 1.042969 L 252.664062 1.042969 C 258.042969 1.042969 262.398438 5.402344 262.398438 10.777344 L 262.398438 22.019531 C 262.398438 27.394531 258.042969 31.753906 252.664062 31.753906 L 133.476562 31.753906 C 128.101562 31.753906 123.742188 27.394531 123.742188 22.019531 L 123.742188 10.777344 C 123.742188 5.402344 128.101562 1.042969 133.476562 1.042969 Z M 133.476562 1.042969 " clip-rule="nonzero"/></clipPath><clipPath id="b41c663d1e"><path d="M 0.742188 0.0429688 L 139.410156 0.0429688 L 139.410156 30.753906 L 0.742188 30.753906 Z M 0.742188 0.0429688 " clip-rule="nonzero"/></clipPath><clipPath id="8a66cbee9c"><path d="M 10.476562 0.0429688 L 129.664062 0.0429688 C 135.042969 0.0429688 139.398438 4.402344 139.398438 9.777344 L 139.398438 21.019531 C 139.398438 26.394531 135.042969 30.753906 129.664062 30.753906 L 10.476562 30.753906 C 5.101562 30.753906 0.742188 26.394531 0.742188 21.019531 L 0.742188 9.777344 C 0.742188 4.402344 5.101562 0.0429688 10.476562 0.0429688 Z M 10.476562 0.0429688 " clip-rule="nonzero"/></clipPath><clipPath id="67583a1a75"><rect x="0" width="140" y="0" height="31"/></clipPath><clipPath id="1a01730f1f"><path d="M 152 6 L 217 6 L 217 147 L 152 147 Z M 152 6 " clip-rule="nonzero"/></clipPath><clipPath id="dbf6824e0d"><path d="M 148.757812 141.433594 L 179.222656 2.472656 L 220.828125 11.59375 L 190.363281 150.554688 Z M 148.757812 141.433594 " clip-rule="nonzero"/></clipPath><clipPath id="bb06932113"><path d="M 153.316406 120.632812 L 174.628906 23.410156 C 175.839844 17.894531 179.191406 13.082031 183.949219 10.035156 C 188.707031 6.992188 194.476562 5.960938 199.996094 7.167969 C 205.511719 8.378906 210.324219 11.730469 213.371094 16.488281 C 216.414062 21.242188 217.449219 27.015625 216.238281 32.535156 L 194.925781 129.753906 C 193.714844 135.269531 190.363281 140.082031 185.605469 143.128906 C 180.847656 146.171875 175.078125 147.207031 169.558594 145.996094 C 164.042969 144.785156 159.230469 141.433594 156.183594 136.675781 C 153.140625 131.921875 152.105469 126.148438 153.316406 120.632812 Z M 153.316406 120.632812 " clip-rule="nonzero"/></clipPath><clipPath id="dafcf98692"><path d="M 0.0390625 0 L 65 0 L 65 141 L 0.0390625 141 Z M 0.0390625 0 " clip-rule="nonzero"/></clipPath><clipPath id="6598eb36d3"><path d="M -3.242188 135.433594 L 27.222656 -3.527344 L 68.828125 5.59375 L 38.363281 144.554688 Z M -3.242188 135.433594 " clip-rule="nonzero"/></clipPath><clipPath id="fa95c3a110"><path d="M 1.316406 114.632812 L 22.628906 17.410156 C 23.839844 11.894531 27.191406 7.082031 31.949219 4.035156 C 36.707031 0.992188 42.476562 -0.0390625 47.996094 1.167969 C 53.511719 2.378906 58.324219 5.730469 61.371094 10.488281 C 64.414062 15.242188 65.449219 21.015625 64.238281 26.535156 L 42.925781 123.753906 C 41.714844 129.269531 38.363281 134.082031 33.605469 137.128906 C 28.847656 140.171875 23.078125 141.207031 17.558594 139.996094 C 12.042969 138.785156 7.230469 135.433594 4.183594 130.675781 C 1.140625 125.921875 0.105469 120.148438 1.316406 114.632812 Z M 1.316406 114.632812 " clip-rule="nonzero"/></clipPath><clipPath id="b68d424772"><rect x="0" width="65" y="0" height="141"/></clipPath><clipPath id="67c0987997"><rect x="0" width="267" y="0" height="216"/></clipPath></defs><g transform="matrix(1, 0, 0, 1, 8, 43)"><g clip-path="url(#67c0987997)"><g fill="#003054" fill-opacity="1"><g transform="translate(0.97929, 202.712804)"><g><path d="M 36.609375 -25 L 30.09375 0 L 22.71875 0 L 18.734375 -16.453125 L 14.59375 0 L 7.234375 0 L 0.890625 -25 L 7.40625 -25 L 11 -6.796875 L 15.453125 -25 L 22.15625 -25 L 26.421875 -6.796875 L 30.046875 -25 Z M 36.609375 -25 "/></g></g></g><g fill="#003054" fill-opacity="1"><g transform="translate(38.432401, 202.712804)"><g><path d="M 8.296875 -16.5625 C 9.003906 -17.65625 9.890625 -18.515625 10.953125 -19.140625 C 12.023438 -19.765625 13.21875 -20.078125 14.53125 -20.078125 L 14.53125 -13.640625 L 12.859375 -13.640625 C 11.335938 -13.640625 10.195312 -13.3125 9.4375 -12.65625 C 8.675781 -12.007812 8.296875 -10.863281 8.296875 -9.21875 L 8.296875 0 L 2.203125 0 L 2.203125 -19.875 L 8.296875 -19.875 Z M 8.296875 -16.5625 "/></g></g></g><g fill="#003054" fill-opacity="1"><g transform="translate(53.669974, 202.712804)"><g><path d="M 5.265625 -21.9375 C 4.203125 -21.9375 3.332031 -22.25 2.65625 -22.875 C 1.976562 -23.507812 1.640625 -24.289062 1.640625 -25.21875 C 1.640625 -26.164062 1.976562 -26.953125 2.65625 -27.578125 C 3.332031 -28.203125 4.203125 -28.515625 5.265625 -28.515625 C 6.316406 -28.515625 7.175781 -28.203125 7.84375 -27.578125 C 8.519531 -26.953125 8.859375 -26.164062 8.859375 -25.21875 C 8.859375 -24.289062 8.519531 -23.507812 7.84375 -22.875 C 7.175781 -22.25 6.316406 -21.9375 5.265625 -21.9375 Z M 8.296875 -19.875 L 8.296875 0 L 2.203125 0 L 2.203125 -19.875 Z M 8.296875 -19.875 "/></g></g></g><g fill="#003054" fill-opacity="1"><g transform="translate(64.172507, 202.712804)"><g><path d="M 13.28125 -5.15625 L 13.28125 0 L 10.1875 0 C 7.976562 0 6.253906 -0.535156 5.015625 -1.609375 C 3.785156 -2.691406 3.171875 -4.457031 3.171875 -6.90625 L 3.171875 -14.8125 L 0.75 -14.8125 L 0.75 -19.875 L 3.171875 -19.875 L 3.171875 -24.71875 L 9.265625 -24.71875 L 9.265625 -19.875 L 13.25 -19.875 L 13.25 -14.8125 L 9.265625 -14.8125 L 9.265625 -6.84375 C 9.265625 -6.25 9.40625 -5.816406 9.6875 -5.546875 C 9.96875 -5.285156 10.441406 -5.15625 11.109375 -5.15625 Z M 13.28125 -5.15625 "/></g></g></g><g fill="#003054" fill-opacity="1"><g transform="translate(78.626848, 202.712804)"><g><path d="M 20.9375 -10.25 C 20.9375 -9.6875 20.898438 -9.09375 20.828125 -8.46875 L 7.046875 -8.46875 C 7.140625 -7.238281 7.535156 -6.296875 8.234375 -5.640625 C 8.941406 -4.992188 9.804688 -4.671875 10.828125 -4.671875 C 12.347656 -4.671875 13.40625 -5.3125 14 -6.59375 L 20.46875 -6.59375 C 20.144531 -5.28125 19.546875 -4.101562 18.671875 -3.0625 C 17.804688 -2.019531 16.71875 -1.203125 15.40625 -0.609375 C 14.101562 -0.015625 12.644531 0.28125 11.03125 0.28125 C 9.09375 0.28125 7.363281 -0.128906 5.84375 -0.953125 C 4.320312 -1.785156 3.132812 -2.972656 2.28125 -4.515625 C 1.425781 -6.066406 1 -7.875 1 -9.9375 C 1 -12 1.421875 -13.800781 2.265625 -15.34375 C 3.109375 -16.882812 4.285156 -18.070312 5.796875 -18.90625 C 7.316406 -19.738281 9.0625 -20.15625 11.03125 -20.15625 C 12.957031 -20.15625 14.664062 -19.75 16.15625 -18.9375 C 17.65625 -18.132812 18.828125 -16.984375 19.671875 -15.484375 C 20.515625 -13.992188 20.9375 -12.25 20.9375 -10.25 Z M 14.703125 -11.859375 C 14.703125 -12.898438 14.34375 -13.726562 13.625 -14.34375 C 12.914062 -14.96875 12.03125 -15.28125 10.96875 -15.28125 C 9.945312 -15.28125 9.082031 -14.984375 8.375 -14.390625 C 7.675781 -13.796875 7.25 -12.953125 7.09375 -11.859375 Z M 14.703125 -11.859375 "/></g></g></g><g fill="#7ed957" fill-opacity="1"><g transform="translate(100.566122, 202.712804)"><g><path d="M 20.1875 -25 L 20.1875 -20.125 L 13.5625 -20.125 L 13.5625 0 L 7.484375 0 L 7.484375 -20.125 L 0.859375 -20.125 L 0.859375 -25 Z M 20.1875 -25 "/></g></g></g><g fill="#7ed957" fill-opacity="1"><g transform="translate(121.606789, 202.712804)"><g><path d="M 11.25 0.28125 C 9.300781 0.28125 7.550781 -0.128906 6 -0.953125 C 4.445312 -1.785156 3.222656 -2.972656 2.328125 -4.515625 C 1.441406 -6.066406 1 -7.875 1 -9.9375 C 1 -11.976562 1.445312 -13.773438 2.34375 -15.328125 C 3.25 -16.878906 4.484375 -18.070312 6.046875 -18.90625 C 7.617188 -19.738281 9.378906 -20.15625 11.328125 -20.15625 C 13.273438 -20.15625 15.03125 -19.738281 16.59375 -18.90625 C 18.15625 -18.070312 19.390625 -16.878906 20.296875 -15.328125 C 21.203125 -13.773438 21.65625 -11.976562 21.65625 -9.9375 C 21.65625 -7.894531 21.195312 -6.09375 20.28125 -4.53125 C 19.363281 -2.976562 18.113281 -1.785156 16.53125 -0.953125 C 14.957031 -0.128906 13.195312 0.28125 11.25 0.28125 Z M 11.25 -4.984375 C 12.414062 -4.984375 13.40625 -5.410156 14.21875 -6.265625 C 15.039062 -7.117188 15.453125 -8.34375 15.453125 -9.9375 C 15.453125 -11.53125 15.050781 -12.753906 14.25 -13.609375 C 13.457031 -14.460938 12.484375 -14.890625 11.328125 -14.890625 C 10.140625 -14.890625 9.148438 -14.46875 8.359375 -13.625 C 7.578125 -12.78125 7.1875 -11.550781 7.1875 -9.9375 C 7.1875 -8.34375 7.570312 -7.117188 8.34375 -6.265625 C 9.113281 -5.410156 10.082031 -4.984375 11.25 -4.984375 Z M 11.25 -4.984375 "/></g></g></g><g fill="#7ed957" fill-opacity="1"><g transform="translate(144.285148, 202.712804)"><g><path d="M 9.75 -20.15625 C 11.15625 -20.15625 12.382812 -19.867188 13.4375 -19.296875 C 14.5 -18.734375 15.3125 -17.988281 15.875 -17.0625 L 15.875 -19.875 L 21.96875 -19.875 L 21.96875 -0.03125 C 21.96875 1.789062 21.601562 3.441406 20.875 4.921875 C 20.15625 6.410156 19.050781 7.59375 17.5625 8.46875 C 16.082031 9.351562 14.238281 9.796875 12.03125 9.796875 C 9.09375 9.796875 6.707031 9.097656 4.875 7.703125 C 3.050781 6.316406 2.007812 4.4375 1.75 2.0625 L 7.765625 2.0625 C 7.953125 2.820312 8.398438 3.421875 9.109375 3.859375 C 9.828125 4.296875 10.707031 4.515625 11.75 4.515625 C 13.007812 4.515625 14.007812 4.148438 14.75 3.421875 C 15.5 2.703125 15.875 1.550781 15.875 -0.03125 L 15.875 -2.84375 C 15.28125 -1.914062 14.460938 -1.160156 13.421875 -0.578125 C 12.378906 -0.00390625 11.15625 0.28125 9.75 0.28125 C 8.113281 0.28125 6.628906 -0.140625 5.296875 -0.984375 C 3.972656 -1.828125 2.925781 -3.023438 2.15625 -4.578125 C 1.382812 -6.128906 1 -7.925781 1 -9.96875 C 1 -12.007812 1.382812 -13.800781 2.15625 -15.34375 C 2.925781 -16.882812 3.972656 -18.070312 5.296875 -18.90625 C 6.628906 -19.738281 8.113281 -20.15625 9.75 -20.15625 Z M 15.875 -9.9375 C 15.875 -11.457031 15.453125 -12.65625 14.609375 -13.53125 C 13.773438 -14.40625 12.75 -14.84375 11.53125 -14.84375 C 10.320312 -14.84375 9.296875 -14.410156 8.453125 -13.546875 C 7.609375 -12.679688 7.1875 -11.488281 7.1875 -9.96875 C 7.1875 -8.445312 7.609375 -7.238281 8.453125 -6.34375 C 9.296875 -5.457031 10.320312 -5.015625 11.53125 -5.015625 C 12.75 -5.015625 13.773438 -5.453125 14.609375 -6.328125 C 15.453125 -7.210938 15.875 -8.414062 15.875 -9.9375 Z M 15.875 -9.9375 "/></g></g></g><g fill="#7ed957" fill-opacity="1"><g transform="translate(168.458778, 202.712804)"><g><path d="M 20.9375 -10.25 C 20.9375 -9.6875 20.898438 -9.09375 20.828125 -8.46875 L 7.046875 -8.46875 C 7.140625 -7.238281 7.535156 -6.296875 8.234375 -5.640625 C 8.941406 -4.992188 9.804688 -4.671875 10.828125 -4.671875 C 12.347656 -4.671875 13.40625 -5.3125 14 -6.59375 L 20.46875 -6.59375 C 20.144531 -5.28125 19.546875 -4.101562 18.671875 -3.0625 C 17.804688 -2.019531 16.71875 -1.203125 15.40625 -0.609375 C 14.101562 -0.015625 12.644531 0.28125 11.03125 0.28125 C 9.09375 0.28125 7.363281 -0.128906 5.84375 -0.953125 C 4.320312 -1.785156 3.132812 -2.972656 2.28125 -4.515625 C 1.425781 -6.066406 1 -7.875 1 -9.9375 C 1 -12 1.421875 -13.800781 2.265625 -15.34375 C 3.109375 -16.882812 4.285156 -18.070312 5.796875 -18.90625 C 7.316406 -19.738281 9.0625 -20.15625 11.03125 -20.15625 C 12.957031 -20.15625 14.664062 -19.75 16.15625 -18.9375 C 17.65625 -18.132812 18.828125 -16.984375 19.671875 -15.484375 C 20.515625 -13.992188 20.9375 -12.25 20.9375 -10.25 Z M 14.703125 -11.859375 C 14.703125 -12.898438 14.34375 -13.726562 13.625 -14.34375 C 12.914062 -14.96875 12.03125 -15.28125 10.96875 -15.28125 C 9.945312 -15.28125 9.082031 -14.984375 8.375 -14.390625 C 7.675781 -13.796875 7.25 -12.953125 7.09375 -11.859375 Z M 14.703125 -11.859375 "/></g></g></g><g fill="#7ed957" fill-opacity="1"><g transform="translate(190.389494, 202.712804)"><g><path d="M 13.28125 -5.15625 L 13.28125 0 L 10.1875 0 C 7.976562 0 6.253906 -0.535156 5.015625 -1.609375 C 3.785156 -2.691406 3.171875 -4.457031 3.171875 -6.90625 L 3.171875 -14.8125 L 0.75 -14.8125 L 0.75 -19.875 L 3.171875 -19.875 L 3.171875 -24.71875 L 9.265625 -24.71875 L 9.265625 -19.875 L 13.25 -19.875 L 13.25 -14.8125 L 9.265625 -14.8125 L 9.265625 -6.84375 C 9.265625 -6.25 9.40625 -5.816406 9.6875 -5.546875 C 9.96875 -5.285156 10.441406 -5.15625 11.109375 -5.15625 Z M 13.28125 -5.15625 "/></g></g></g><g fill="#7ed957" fill-opacity="1"><g transform="translate(204.843834, 202.712804)"><g><path d="M 14.421875 -20.078125 C 16.703125 -20.078125 18.53125 -19.320312 19.90625 -17.8125 C 21.28125 -16.3125 21.96875 -14.242188 21.96875 -11.609375 L 21.96875 0 L 15.921875 0 L 15.921875 -10.796875 C 15.921875 -12.117188 15.578125 -13.144531 14.890625 -13.875 C 14.203125 -14.613281 13.273438 -14.984375 12.109375 -14.984375 C 10.941406 -14.984375 10.015625 -14.613281 9.328125 -13.875 C 8.640625 -13.144531 8.296875 -12.117188 8.296875 -10.796875 L 8.296875 0 L 2.203125 0 L 2.203125 -26.34375 L 8.296875 -26.34375 L 8.296875 -17.203125 C 8.910156 -18.078125 9.75 -18.773438 10.8125 -19.296875 C 11.882812 -19.816406 13.085938 -20.078125 14.421875 -20.078125 Z M 14.421875 -20.078125 "/></g></g></g><g fill="#7ed957" fill-opacity="1"><g transform="translate(228.839457, 202.712804)"><g><path d="M 20.9375 -10.25 C 20.9375 -9.6875 20.898438 -9.09375 20.828125 -8.46875 L 7.046875 -8.46875 C 7.140625 -7.238281 7.535156 -6.296875 8.234375 -5.640625 C 8.941406 -4.992188 9.804688 -4.671875 10.828125 -4.671875 C 12.347656 -4.671875 13.40625 -5.3125 14 -6.59375 L 20.46875 -6.59375 C 20.144531 -5.28125 19.546875 -4.101562 18.671875 -3.0625 C 17.804688 -2.019531 16.71875 -1.203125 15.40625 -0.609375 C 14.101562 -0.015625 12.644531 0.28125 11.03125 0.28125 C 9.09375 0.28125 7.363281 -0.128906 5.84375 -0.953125 C 4.320312 -1.785156 3.132812 -2.972656 2.28125 -4.515625 C 1.425781 -6.066406 1 -7.875 1 -9.9375 C 1 -12 1.421875 -13.800781 2.265625 -15.34375 C 3.109375 -16.882812 4.285156 -18.070312 5.796875 -18.90625 C 7.316406 -19.738281 9.0625 -20.15625 11.03125 -20.15625 C 12.957031 -20.15625 14.664062 -19.75 16.15625 -18.9375 C 17.65625 -18.132812 18.828125 -16.984375 19.671875 -15.484375 C 20.515625 -13.992188 20.9375 -12.25 20.9375 -10.25 Z M 14.703125 -11.859375 C 14.703125 -12.898438 14.34375 -13.726562 13.625 -14.34375 C 12.914062 -14.96875 12.03125 -15.28125 10.96875 -15.28125 C 9.945312 -15.28125 9.082031 -14.984375 8.375 -14.390625 C 7.675781 -13.796875 7.25 -12.953125 7.09375 -11.859375 Z M 14.703125 -11.859375 "/></g></g></g><g fill="#7ed957" fill-opacity="1"><g transform="translate(250.770173, 202.712804)"><g><path d="M 8.296875 -16.5625 C 9.003906 -17.65625 9.890625 -18.515625 10.953125 -19.140625 C 12.023438 -19.765625 13.21875 -20.078125 14.53125 -20.078125 L 14.53125 -13.640625 L 12.859375 -13.640625 C 11.335938 -13.640625 10.195312 -13.3125 9.4375 -12.65625 C 8.675781 -12.007812 8.296875 -10.863281 8.296875 -9.21875 L 8.296875 0 L 2.203125 0 L 2.203125 -19.875 L 8.296875 -19.875 Z M 8.296875 -16.5625 "/></g></g></g><g clip-path="url(#79ee9259cc)"><g clip-path="url(#ef62257661)"><g transform="matrix(1, 0, 0, 1, 22, 1)"><g clip-path="url(#7e09fff133)"><g clip-path="url(#6c45bcce3a)"><g clip-path="url(#43720fc44f)"><path fill="#003054" d="M -1.699219 0.0429688 L 74.960938 0.0429688 L 74.960938 164.148438 L -1.699219 164.148438 Z M -1.699219 0.0429688 " fill-opacity="1" fill-rule="nonzero"/></g></g></g></g></g></g><g clip-path="url(#aa615a43eb)"><g clip-path="url(#e03d732610)"><g transform="matrix(1, 0, 0, 1, 75, 71)"><g clip-path="url(#7459ca76e3)"><g clip-path="url(#e6643cdf17)"><g clip-path="url(#fc39846ccd)"><path fill="#003054" d="M -0.164062 0.578125 L 60.753906 0.578125 L 60.753906 94.097656 L -0.164062 94.097656 Z M -0.164062 0.578125 " fill-opacity="1" fill-rule="nonzero"/></g></g></g></g></g></g><g clip-path="url(#8844c1bb2d)"><g clip-path="url(#a4f5a95958)"><g transform="matrix(1, 0, 0, 1, 106, 71)"><g clip-path="url(#2800dcfb8a)"><g clip-path="url(#8def548be7)"><g clip-path="url(#40441a3d96)"><path fill="#003054" d="M -0.6875 0.578125 L 60.195312 0.578125 L 60.195312 94.046875 L -0.6875 94.046875 Z M -0.6875 0.578125 " fill-opacity="1" fill-rule="nonzero"/></g></g></g></g></g></g><g clip-path="url(#85da6fe9f0)"><g clip-path="url(#60547be060)"><g transform="matrix(1, 0, 0, 1, 146, 1)"><g clip-path="url(#4a3f8ec809)"><g clip-path="url(#fdfed230ad)"><g clip-path="url(#77040e9d32)"><path fill="#003054" d="M -1.53125 0.0429688 L 76.605469 0.0429688 L 76.605469 163.953125 L -1.53125 163.953125 Z M -1.53125 0.0429688 " fill-opacity="1" fill-rule="nonzero"/></g></g></g></g></g></g><g clip-path="url(#5b28ae2887)"><g clip-path="url(#17a2d4f997)"><g transform="matrix(1, 0, 0, 1, 123, 1)"><g clip-path="url(#67583a1a75)"><g clip-path="url(#b41c663d1e)"><g clip-path="url(#8a66cbee9c)"><path fill="#7ed957" d="M 0.742188 0.0429688 L 139.410156 0.0429688 L 139.410156 30.753906 L 0.742188 30.753906 Z M 0.742188 0.0429688 " fill-opacity="1" fill-rule="nonzero"/></g></g></g></g></g></g><g clip-path="url(#1a01730f1f)"><g clip-path="url(#dbf6824e0d)"><g clip-path="url(#bb06932113)"><g transform="matrix(1, 0, 0, 1, 152, 6)"><g clip-path="url(#b68d424772)"><g clip-path="url(#dafcf98692)"><g clip-path="url(#6598eb36d3)"><g clip-path="url(#fa95c3a110)"><path fill="#7ed957" d="M -3.242188 135.433594 L 27.183594 -3.363281 L 68.792969 5.757812 L 38.363281 144.554688 Z M -3.242188 135.433594 " fill-opacity="1" fill-rule="nonzero"/></g></g></g></g></g></g></g></g></g></g></svg>