<svg xmlns="http://www.w3.org/2000/svg" xmlns:xlink="http://www.w3.org/1999/xlink" width="222" zoomAndPan="magnify" viewBox="0 0 166.5 83.999999" height="112" preserveAspectRatio="xMidYMid meet" version="1.0"><defs><g/><clipPath id="f6937652bc"><rect x="0" width="144" y="0" height="28"/></clipPath><clipPath id="7414fee7e9"><path d="M 1.414062 0.5 L 21.746094 0.5 L 21.746094 48.949219 L 1.414062 48.949219 Z M 1.414062 0.5 " clip-rule="nonzero"/></clipPath><clipPath id="e3cc6a96eb"><path d="M 5.921875 0.5 C 4.550781 0.5 3.257812 1.125 2.40625 2.199219 C 1.554688 3.273438 1.238281 4.675781 1.550781 6.011719 L 10.292969 43.398438 C 11.046875 46.625 13.921875 48.90625 17.238281 48.90625 C 18.609375 48.90625 19.902344 48.28125 20.753906 47.207031 C 21.605469 46.136719 21.917969 44.730469 21.609375 43.398438 L 12.867188 6.011719 C 12.113281 2.78125 9.234375 0.5 5.921875 0.5 Z M 5.921875 0.5 " clip-rule="nonzero"/></clipPath><clipPath id="638eafd58f"><path d="M 0.414062 0.5 L 20.746094 0.5 L 20.746094 48.949219 L 0.414062 48.949219 Z M 0.414062 0.5 " clip-rule="nonzero"/></clipPath><clipPath id="42a25a6684"><path d="M 4.921875 0.5 C 3.550781 0.5 2.257812 1.125 1.40625 2.199219 C 0.554688 3.273438 0.238281 4.675781 0.550781 6.011719 L 9.292969 43.398438 C 10.046875 46.625 12.921875 48.90625 16.238281 48.90625 C 17.609375 48.90625 18.902344 48.28125 19.753906 47.207031 C 20.605469 46.136719 20.917969 44.730469 20.609375 43.398438 L 11.867188 6.011719 C 11.113281 2.78125 8.234375 0.5 4.921875 0.5 Z M 4.921875 0.5 " clip-rule="nonzero"/></clipPath><clipPath id="9189b46050"><rect x="0" width="21" y="0" height="49"/></clipPath><clipPath id="81a245e617"><path d="M 17.417969 21.324219 L 33.296875 21.324219 L 33.296875 48.933594 L 17.417969 48.933594 Z M 17.417969 21.324219 " clip-rule="nonzero"/></clipPath><clipPath id="200d735840"><path d="M 28.683594 21.324219 L 29.863281 21.324219 C 30.925781 21.324219 31.925781 21.824219 32.566406 22.671875 C 33.207031 23.519531 33.414062 24.617188 33.125 25.640625 L 27.742188 44.589844 C 27.015625 47.144531 24.683594 48.90625 22.03125 48.90625 L 20.851562 48.90625 C 19.789062 48.90625 18.785156 48.410156 18.144531 47.5625 C 17.503906 46.714844 17.300781 45.613281 17.589844 44.589844 L 22.972656 25.640625 C 23.695312 23.085938 26.027344 21.324219 28.683594 21.324219 Z M 28.683594 21.324219 " clip-rule="nonzero"/></clipPath><clipPath id="1dc4db52f8"><path d="M 0.417969 0.324219 L 16.296875 0.324219 L 16.296875 27.933594 L 0.417969 27.933594 Z M 0.417969 0.324219 " clip-rule="nonzero"/></clipPath><clipPath id="45bfc76251"><path d="M 11.683594 0.324219 L 12.863281 0.324219 C 13.925781 0.324219 14.925781 0.824219 15.566406 1.671875 C 16.207031 2.519531 16.414062 3.617188 16.125 4.640625 L 10.742188 23.589844 C 10.015625 26.144531 7.683594 27.90625 5.03125 27.90625 L 3.851562 27.90625 C 2.789062 27.90625 1.785156 27.410156 1.144531 26.5625 C 0.503906 25.714844 0.300781 24.613281 0.589844 23.589844 L 5.972656 4.640625 C 6.695312 2.085938 9.027344 0.324219 11.683594 0.324219 Z M 11.683594 0.324219 " clip-rule="nonzero"/></clipPath><clipPath id="677415e853"><rect x="0" width="17" y="0" height="28"/></clipPath><clipPath id="8e65dbc431"><path d="M 26.273438 21.324219 L 42.421875 21.324219 L 42.421875 48.921875 L 26.273438 48.921875 Z M 26.273438 21.324219 " clip-rule="nonzero"/></clipPath><clipPath id="adf96c0a5e"><path d="M 31.117188 21.324219 L 29.101562 21.324219 C 28.222656 21.324219 27.398438 21.742188 26.878906 22.445312 C 26.359375 23.152344 26.203125 24.0625 26.460938 24.898438 L 32.742188 45.332031 C 33.394531 47.457031 35.359375 48.90625 37.578125 48.90625 L 39.597656 48.90625 C 40.472656 48.90625 41.296875 48.492188 41.820312 47.785156 C 42.339844 47.082031 42.496094 46.171875 42.238281 45.332031 L 35.957031 24.898438 C 35.300781 22.773438 33.339844 21.324219 31.117188 21.324219 Z M 31.117188 21.324219 " clip-rule="nonzero"/></clipPath><clipPath id="ec743faa32"><path d="M 0.273438 0.324219 L 16.421875 0.324219 L 16.421875 27.921875 L 0.273438 27.921875 Z M 0.273438 0.324219 " clip-rule="nonzero"/></clipPath><clipPath id="272d9204ff"><path d="M 5.117188 0.324219 L 3.101562 0.324219 C 2.222656 0.324219 1.398438 0.742188 0.878906 1.445312 C 0.359375 2.152344 0.203125 3.0625 0.460938 3.898438 L 6.742188 24.332031 C 7.394531 26.457031 9.359375 27.90625 11.578125 27.90625 L 13.597656 27.90625 C 14.472656 27.90625 15.296875 27.492188 15.820312 26.785156 C 16.339844 26.082031 16.496094 25.171875 16.238281 24.332031 L 9.957031 3.898438 C 9.300781 1.773438 7.339844 0.324219 5.117188 0.324219 Z M 5.117188 0.324219 " clip-rule="nonzero"/></clipPath><clipPath id="8330118b94"><rect x="0" width="17" y="0" height="28"/></clipPath><clipPath id="12a6304973"><path d="M 38.09375 0.5 L 58.820312 0.5 L 58.820312 48.980469 L 38.09375 48.980469 Z M 38.09375 0.5 " clip-rule="nonzero"/></clipPath><clipPath id="fe5c7c31d7"><path d="M 53.683594 0.5 C 55.222656 0.5 56.679688 1.195312 57.644531 2.394531 C 58.609375 3.589844 58.984375 5.164062 58.660156 6.667969 L 50.867188 42.742188 C 50.09375 46.339844 46.910156 48.90625 43.230469 48.90625 C 41.691406 48.90625 40.234375 48.210938 39.265625 47.015625 C 38.300781 45.816406 37.929688 44.246094 38.253906 42.742188 L 46.042969 6.667969 C 46.820312 3.070312 50 0.5 53.683594 0.5 Z M 53.683594 0.5 " clip-rule="nonzero"/></clipPath><clipPath id="f1d581ddfe"><path d="M 0.09375 0.5 L 20.820312 0.5 L 20.820312 48.980469 L 0.09375 48.980469 Z M 0.09375 0.5 " clip-rule="nonzero"/></clipPath><clipPath id="b8ebfb61b7"><path d="M 15.683594 0.5 C 17.222656 0.5 18.679688 1.195312 19.644531 2.394531 C 20.609375 3.589844 20.984375 5.164062 20.660156 6.667969 L 12.867188 42.742188 C 12.09375 46.339844 8.910156 48.90625 5.230469 48.90625 C 3.691406 48.90625 2.234375 48.210938 1.265625 47.015625 C 0.300781 45.816406 -0.0703125 44.246094 0.253906 42.742188 L 8.042969 6.667969 C 8.820312 3.070312 12 0.5 15.683594 0.5 Z M 15.683594 0.5 " clip-rule="nonzero"/></clipPath><clipPath id="e5c2e5eb83"><rect x="0" width="21" y="0" height="49"/></clipPath><clipPath id="6e9b4803ce"><path d="M 30.800781 0.5 L 71.742188 0.5 L 71.742188 9.566406 L 30.800781 9.566406 Z M 30.800781 0.5 " clip-rule="nonzero"/></clipPath><clipPath id="dee7470d4e"><path d="M 35.335938 0.5 L 67.207031 0.5 C 69.710938 0.5 71.738281 2.53125 71.738281 5.035156 C 71.738281 7.539062 69.710938 9.566406 67.207031 9.566406 L 35.335938 9.566406 C 32.832031 9.566406 30.800781 7.539062 30.800781 5.035156 C 30.800781 2.53125 32.832031 0.5 35.335938 0.5 Z M 35.335938 0.5 " clip-rule="nonzero"/></clipPath><clipPath id="35a8f3061a"><path d="M 0.800781 0.5 L 41.742188 0.5 L 41.742188 9.566406 L 0.800781 9.566406 Z M 0.800781 0.5 " clip-rule="nonzero"/></clipPath><clipPath id="871ff08120"><path d="M 5.335938 0.5 L 37.207031 0.5 C 39.710938 0.5 41.738281 2.53125 41.738281 5.035156 C 41.738281 7.539062 39.710938 9.566406 37.207031 9.566406 L 5.335938 9.566406 C 2.832031 9.566406 0.800781 7.539062 0.800781 5.035156 C 0.800781 2.53125 2.832031 0.5 5.335938 0.5 Z M 5.335938 0.5 " clip-rule="nonzero"/></clipPath><clipPath id="5372bc2d7d"><rect x="0" width="42" y="0" height="10"/></clipPath><clipPath id="08ca595684"><path d="M 39 2 L 59 2 L 59 44 L 39 44 Z M 39 2 " clip-rule="nonzero"/></clipPath><clipPath id="df902b23e6"><path d="M 38.1875 41.949219 L 47.183594 0.921875 L 59.464844 3.617188 L 50.472656 44.640625 Z M 38.1875 41.949219 " clip-rule="nonzero"/></clipPath><clipPath id="5318436f86"><path d="M 39.535156 35.804688 L 45.828125 7.105469 C 46.183594 5.476562 47.171875 4.054688 48.578125 3.15625 C 49.980469 2.257812 51.6875 1.953125 53.316406 2.308594 C 54.945312 2.664062 56.363281 3.65625 57.261719 5.058594 C 58.164062 6.464844 58.46875 8.167969 58.109375 9.796875 L 51.816406 38.5 C 51.460938 40.128906 50.472656 41.550781 49.066406 42.449219 C 47.664062 43.347656 45.957031 43.652344 44.328125 43.296875 C 42.699219 42.9375 41.28125 41.949219 40.378906 40.542969 C 39.480469 39.140625 39.175781 37.4375 39.535156 35.804688 Z M 39.535156 35.804688 " clip-rule="nonzero"/></clipPath><clipPath id="f175264a41"><path d="M 0.140625 0 L 19.523438 0 L 19.523438 41.808594 L 0.140625 41.808594 Z M 0.140625 0 " clip-rule="nonzero"/></clipPath><clipPath id="0bb12860fb"><path d="M -0.8125 39.949219 L 8.183594 -1.078125 L 20.464844 1.617188 L 11.472656 42.640625 Z M -0.8125 39.949219 " clip-rule="nonzero"/></clipPath><clipPath id="f429b4901b"><path d="M 0.535156 33.804688 L 6.828125 5.105469 C 7.183594 3.476562 8.171875 2.054688 9.578125 1.15625 C 10.980469 0.257812 12.6875 -0.046875 14.316406 0.308594 C 15.945312 0.664062 17.363281 1.65625 18.261719 3.058594 C 19.164062 4.464844 19.46875 6.167969 19.109375 7.796875 L 12.816406 36.5 C 12.460938 38.128906 11.472656 39.550781 10.066406 40.449219 C 8.664062 41.347656 6.957031 41.652344 5.328125 41.296875 C 3.699219 40.9375 2.28125 39.949219 1.378906 38.542969 C 0.480469 37.140625 0.175781 35.4375 0.535156 33.804688 Z M 0.535156 33.804688 " clip-rule="nonzero"/></clipPath><clipPath id="8fa9291a6f"><rect x="0" width="20" y="0" height="42"/></clipPath><clipPath id="5396c194a6"><rect x="0" width="72" y="0" height="50"/></clipPath></defs><g transform="matrix(1, 0, 0, 1, 11, 55)"><g clip-path="url(#f6937652bc)"><g fill="#004aad" fill-opacity="1"><g transform="translate(0.795364, 21.069636)"><g><path d="M 19.65625 -13.421875 L 16.15625 0 L 12.203125 0 L 10.0625 -8.828125 L 7.84375 0 L 3.875 0 L 0.484375 -13.421875 L 3.984375 -13.421875 L 5.90625 -3.65625 L 8.296875 -13.421875 L 11.890625 -13.421875 L 14.1875 -3.65625 L 16.140625 -13.421875 Z M 19.65625 -13.421875 "/></g></g></g><g fill="#004aad" fill-opacity="1"><g transform="translate(20.920212, 21.069636)"><g><path d="M 4.453125 -8.890625 C 4.835938 -9.472656 5.316406 -9.929688 5.890625 -10.265625 C 6.460938 -10.609375 7.097656 -10.78125 7.796875 -10.78125 L 7.796875 -7.328125 L 6.90625 -7.328125 C 6.09375 -7.328125 5.476562 -7.148438 5.0625 -6.796875 C 4.65625 -6.441406 4.453125 -5.828125 4.453125 -4.953125 L 4.453125 0 L 1.1875 0 L 1.1875 -10.671875 L 4.453125 -10.671875 Z M 4.453125 -8.890625 "/></g></g></g><g fill="#004aad" fill-opacity="1"><g transform="translate(29.107892, 21.069636)"><g><path d="M 2.828125 -11.78125 C 2.253906 -11.78125 1.785156 -11.945312 1.421875 -12.28125 C 1.054688 -12.625 0.875 -13.046875 0.875 -13.546875 C 0.875 -14.054688 1.054688 -14.476562 1.421875 -14.8125 C 1.785156 -15.144531 2.253906 -15.3125 2.828125 -15.3125 C 3.390625 -15.3125 3.851562 -15.144531 4.21875 -14.8125 C 4.582031 -14.476562 4.765625 -14.054688 4.765625 -13.546875 C 4.765625 -13.046875 4.582031 -12.625 4.21875 -12.28125 C 3.851562 -11.945312 3.390625 -11.78125 2.828125 -11.78125 Z M 4.453125 -10.671875 L 4.453125 0 L 1.1875 0 L 1.1875 -10.671875 Z M 4.453125 -10.671875 "/></g></g></g><g fill="#004aad" fill-opacity="1"><g transform="translate(34.751267, 21.069636)"><g><path d="M 7.140625 -2.765625 L 7.140625 0 L 5.46875 0 C 4.28125 0 3.351562 -0.285156 2.6875 -0.859375 C 2.03125 -1.441406 1.703125 -2.390625 1.703125 -3.703125 L 1.703125 -7.953125 L 0.40625 -7.953125 L 0.40625 -10.671875 L 1.703125 -10.671875 L 1.703125 -13.265625 L 4.96875 -13.265625 L 4.96875 -10.671875 L 7.109375 -10.671875 L 7.109375 -7.953125 L 4.96875 -7.953125 L 4.96875 -3.671875 C 4.96875 -3.347656 5.046875 -3.113281 5.203125 -2.96875 C 5.359375 -2.832031 5.613281 -2.765625 5.96875 -2.765625 Z M 7.140625 -2.765625 "/></g></g></g><g fill="#004aad" fill-opacity="1"><g transform="translate(42.51808, 21.069636)"><g><path d="M 11.25 -5.515625 C 11.25 -5.203125 11.226562 -4.878906 11.1875 -4.546875 L 3.78125 -4.546875 C 3.832031 -3.890625 4.046875 -3.382812 4.421875 -3.03125 C 4.796875 -2.675781 5.257812 -2.5 5.8125 -2.5 C 6.625 -2.5 7.191406 -2.84375 7.515625 -3.53125 L 11 -3.53125 C 10.820312 -2.832031 10.5 -2.203125 10.03125 -1.640625 C 9.5625 -1.078125 8.976562 -0.632812 8.28125 -0.3125 C 7.582031 0 6.796875 0.15625 5.921875 0.15625 C 4.878906 0.15625 3.945312 -0.0664062 3.125 -0.515625 C 2.3125 -0.960938 1.675781 -1.597656 1.21875 -2.421875 C 0.757812 -3.253906 0.53125 -4.222656 0.53125 -5.328125 C 0.53125 -6.441406 0.753906 -7.410156 1.203125 -8.234375 C 1.660156 -9.066406 2.296875 -9.707031 3.109375 -10.15625 C 3.929688 -10.601562 4.867188 -10.828125 5.921875 -10.828125 C 6.960938 -10.828125 7.882812 -10.609375 8.6875 -10.171875 C 9.488281 -9.742188 10.113281 -9.125 10.5625 -8.3125 C 11.019531 -7.507812 11.25 -6.578125 11.25 -5.515625 Z M 7.90625 -6.375 C 7.90625 -6.925781 7.710938 -7.367188 7.328125 -7.703125 C 6.941406 -8.035156 6.460938 -8.203125 5.890625 -8.203125 C 5.335938 -8.203125 4.875 -8.039062 4.5 -7.71875 C 4.125 -7.40625 3.894531 -6.957031 3.8125 -6.375 Z M 7.90625 -6.375 "/></g></g></g><g fill="#7ed957" fill-opacity="1"><g transform="translate(54.303633, 21.069636)"><g><path d="M 10.84375 -13.421875 L 10.84375 -10.8125 L 7.28125 -10.8125 L 7.28125 0 L 4.015625 0 L 4.015625 -10.8125 L 0.453125 -10.8125 L 0.453125 -13.421875 Z M 10.84375 -13.421875 "/></g></g></g><g fill="#7ed957" fill-opacity="1"><g transform="translate(65.609516, 21.069636)"><g><path d="M 6.046875 0.15625 C 4.992188 0.15625 4.050781 -0.0664062 3.21875 -0.515625 C 2.382812 -0.960938 1.726562 -1.597656 1.25 -2.421875 C 0.769531 -3.253906 0.53125 -4.222656 0.53125 -5.328125 C 0.53125 -6.429688 0.769531 -7.398438 1.25 -8.234375 C 1.738281 -9.066406 2.40625 -9.707031 3.25 -10.15625 C 4.09375 -10.601562 5.035156 -10.828125 6.078125 -10.828125 C 7.128906 -10.828125 8.070312 -10.601562 8.90625 -10.15625 C 9.75 -9.707031 10.410156 -9.066406 10.890625 -8.234375 C 11.378906 -7.398438 11.625 -6.429688 11.625 -5.328125 C 11.625 -4.234375 11.378906 -3.269531 10.890625 -2.4375 C 10.398438 -1.601562 9.726562 -0.960938 8.875 -0.515625 C 8.03125 -0.0664062 7.085938 0.15625 6.046875 0.15625 Z M 6.046875 -2.671875 C 6.671875 -2.671875 7.203125 -2.898438 7.640625 -3.359375 C 8.078125 -3.816406 8.296875 -4.472656 8.296875 -5.328125 C 8.296875 -6.191406 8.082031 -6.851562 7.65625 -7.3125 C 7.226562 -7.769531 6.703125 -8 6.078125 -8 C 5.441406 -8 4.910156 -7.769531 4.484375 -7.3125 C 4.066406 -6.863281 3.859375 -6.203125 3.859375 -5.328125 C 3.859375 -4.472656 4.066406 -3.816406 4.484375 -3.359375 C 4.898438 -2.898438 5.421875 -2.671875 6.046875 -2.671875 Z M 6.046875 -2.671875 "/></g></g></g><g fill="#7ed957" fill-opacity="1"><g transform="translate(77.795379, 21.069636)"><g><path d="M 5.234375 -10.828125 C 5.992188 -10.828125 6.65625 -10.671875 7.21875 -10.359375 C 7.789062 -10.054688 8.226562 -9.65625 8.53125 -9.15625 L 8.53125 -10.671875 L 11.796875 -10.671875 L 11.796875 -0.015625 C 11.796875 0.960938 11.601562 1.847656 11.21875 2.640625 C 10.832031 3.441406 10.238281 4.078125 9.4375 4.546875 C 8.644531 5.023438 7.65625 5.265625 6.46875 5.265625 C 4.882812 5.265625 3.597656 4.890625 2.609375 4.140625 C 1.628906 3.390625 1.070312 2.378906 0.9375 1.109375 L 4.171875 1.109375 C 4.273438 1.515625 4.515625 1.832031 4.890625 2.0625 C 5.273438 2.300781 5.75 2.421875 6.3125 2.421875 C 6.988281 2.421875 7.523438 2.226562 7.921875 1.84375 C 8.328125 1.457031 8.53125 0.835938 8.53125 -0.015625 L 8.53125 -1.53125 C 8.207031 -1.03125 7.765625 -0.625 7.203125 -0.3125 C 6.648438 0 5.992188 0.15625 5.234375 0.15625 C 4.359375 0.15625 3.5625 -0.0664062 2.84375 -0.515625 C 2.132812 -0.972656 1.570312 -1.617188 1.15625 -2.453125 C 0.738281 -3.285156 0.53125 -4.253906 0.53125 -5.359375 C 0.53125 -6.453125 0.738281 -7.410156 1.15625 -8.234375 C 1.570312 -9.066406 2.132812 -9.707031 2.84375 -10.15625 C 3.5625 -10.601562 4.359375 -10.828125 5.234375 -10.828125 Z M 8.53125 -5.328125 C 8.53125 -6.148438 8.300781 -6.796875 7.84375 -7.265625 C 7.394531 -7.734375 6.847656 -7.96875 6.203125 -7.96875 C 5.546875 -7.96875 4.988281 -7.734375 4.53125 -7.265625 C 4.082031 -6.804688 3.859375 -6.171875 3.859375 -5.359375 C 3.859375 -4.535156 4.082031 -3.882812 4.53125 -3.40625 C 4.988281 -2.9375 5.546875 -2.703125 6.203125 -2.703125 C 6.847656 -2.703125 7.394531 -2.9375 7.84375 -3.40625 C 8.300781 -3.875 8.53125 -4.515625 8.53125 -5.328125 Z M 8.53125 -5.328125 "/></g></g></g><g fill="#7ed957" fill-opacity="1"><g transform="translate(90.784707, 21.069636)"><g><path d="M 11.25 -5.515625 C 11.25 -5.203125 11.226562 -4.878906 11.1875 -4.546875 L 3.78125 -4.546875 C 3.832031 -3.890625 4.046875 -3.382812 4.421875 -3.03125 C 4.796875 -2.675781 5.257812 -2.5 5.8125 -2.5 C 6.625 -2.5 7.191406 -2.84375 7.515625 -3.53125 L 11 -3.53125 C 10.820312 -2.832031 10.5 -2.203125 10.03125 -1.640625 C 9.5625 -1.078125 8.976562 -0.632812 8.28125 -0.3125 C 7.582031 0 6.796875 0.15625 5.921875 0.15625 C 4.878906 0.15625 3.945312 -0.0664062 3.125 -0.515625 C 2.3125 -0.960938 1.675781 -1.597656 1.21875 -2.421875 C 0.757812 -3.253906 0.53125 -4.222656 0.53125 -5.328125 C 0.53125 -6.441406 0.753906 -7.410156 1.203125 -8.234375 C 1.660156 -9.066406 2.296875 -9.707031 3.109375 -10.15625 C 3.929688 -10.601562 4.867188 -10.828125 5.921875 -10.828125 C 6.960938 -10.828125 7.882812 -10.609375 8.6875 -10.171875 C 9.488281 -9.742188 10.113281 -9.125 10.5625 -8.3125 C 11.019531 -7.507812 11.25 -6.578125 11.25 -5.515625 Z M 7.90625 -6.375 C 7.90625 -6.925781 7.710938 -7.367188 7.328125 -7.703125 C 6.941406 -8.035156 6.460938 -8.203125 5.890625 -8.203125 C 5.335938 -8.203125 4.875 -8.039062 4.5 -7.71875 C 4.125 -7.40625 3.894531 -6.957031 3.8125 -6.375 Z M 7.90625 -6.375 "/></g></g></g><g fill="#7ed957" fill-opacity="1"><g transform="translate(102.568844, 21.069636)"><g><path d="M 7.140625 -2.765625 L 7.140625 0 L 5.46875 0 C 4.28125 0 3.351562 -0.285156 2.6875 -0.859375 C 2.03125 -1.441406 1.703125 -2.390625 1.703125 -3.703125 L 1.703125 -7.953125 L 0.40625 -7.953125 L 0.40625 -10.671875 L 1.703125 -10.671875 L 1.703125 -13.265625 L 4.96875 -13.265625 L 4.96875 -10.671875 L 7.109375 -10.671875 L 7.109375 -7.953125 L 4.96875 -7.953125 L 4.96875 -3.671875 C 4.96875 -3.347656 5.046875 -3.113281 5.203125 -2.96875 C 5.359375 -2.832031 5.613281 -2.765625 5.96875 -2.765625 Z M 7.140625 -2.765625 "/></g></g></g><g fill="#7ed957" fill-opacity="1"><g transform="translate(110.335657, 21.069636)"><g><path d="M 7.75 -10.78125 C 8.96875 -10.78125 9.945312 -10.375 10.6875 -9.5625 C 11.425781 -8.757812 11.796875 -7.648438 11.796875 -6.234375 L 11.796875 0 L 8.546875 0 L 8.546875 -5.796875 C 8.546875 -6.503906 8.359375 -7.054688 7.984375 -7.453125 C 7.617188 -7.847656 7.125 -8.046875 6.5 -8.046875 C 5.875 -8.046875 5.375 -7.847656 5 -7.453125 C 4.632812 -7.054688 4.453125 -6.503906 4.453125 -5.796875 L 4.453125 0 L 1.1875 0 L 1.1875 -14.15625 L 4.453125 -14.15625 L 4.453125 -9.234375 C 4.785156 -9.703125 5.238281 -10.078125 5.8125 -10.359375 C 6.382812 -10.640625 7.03125 -10.78125 7.75 -10.78125 Z M 7.75 -10.78125 "/></g></g></g><g fill="#7ed957" fill-opacity="1"><g transform="translate(123.229339, 21.069636)"><g><path d="M 11.25 -5.515625 C 11.25 -5.203125 11.226562 -4.878906 11.1875 -4.546875 L 3.78125 -4.546875 C 3.832031 -3.890625 4.046875 -3.382812 4.421875 -3.03125 C 4.796875 -2.675781 5.257812 -2.5 5.8125 -2.5 C 6.625 -2.5 7.191406 -2.84375 7.515625 -3.53125 L 11 -3.53125 C 10.820312 -2.832031 10.5 -2.203125 10.03125 -1.640625 C 9.5625 -1.078125 8.976562 -0.632812 8.28125 -0.3125 C 7.582031 0 6.796875 0.15625 5.921875 0.15625 C 4.878906 0.15625 3.945312 -0.0664062 3.125 -0.515625 C 2.3125 -0.960938 1.675781 -1.597656 1.21875 -2.421875 C 0.757812 -3.253906 0.53125 -4.222656 0.53125 -5.328125 C 0.53125 -6.441406 0.753906 -7.410156 1.203125 -8.234375 C 1.660156 -9.066406 2.296875 -9.707031 3.109375 -10.15625 C 3.929688 -10.601562 4.867188 -10.828125 5.921875 -10.828125 C 6.960938 -10.828125 7.882812 -10.609375 8.6875 -10.171875 C 9.488281 -9.742188 10.113281 -9.125 10.5625 -8.3125 C 11.019531 -7.507812 11.25 -6.578125 11.25 -5.515625 Z M 7.90625 -6.375 C 7.90625 -6.925781 7.710938 -7.367188 7.328125 -7.703125 C 6.941406 -8.035156 6.460938 -8.203125 5.890625 -8.203125 C 5.335938 -8.203125 4.875 -8.039062 4.5 -7.71875 C 4.125 -7.40625 3.894531 -6.957031 3.8125 -6.375 Z M 7.90625 -6.375 "/></g></g></g><g fill="#7ed957" fill-opacity="1"><g transform="translate(135.013475, 21.069636)"><g><path d="M 4.453125 -8.890625 C 4.835938 -9.472656 5.316406 -9.929688 5.890625 -10.265625 C 6.460938 -10.609375 7.097656 -10.78125 7.796875 -10.78125 L 7.796875 -7.328125 L 6.90625 -7.328125 C 6.09375 -7.328125 5.476562 -7.148438 5.0625 -6.796875 C 4.65625 -6.441406 4.453125 -5.828125 4.453125 -4.953125 L 4.453125 0 L 1.1875 0 L 1.1875 -10.671875 L 4.453125 -10.671875 Z M 4.453125 -8.890625 "/></g></g></g></g></g><g transform="matrix(1, 0, 0, 1, 47, 8)"><g clip-path="url(#5396c194a6)"><g clip-path="url(#7414fee7e9)"><g clip-path="url(#e3cc6a96eb)"><g transform="matrix(1, 0, 0, 1, 1, 0.000000000000001776)"><g clip-path="url(#9189b46050)"><g clip-path="url(#638eafd58f)"><g clip-path="url(#42a25a6684)"><path fill="#003054" d="M -0.738281 0.5 L 21.894531 0.5 L 21.894531 48.949219 L -0.738281 48.949219 Z M -0.738281 0.5 " fill-opacity="1" fill-rule="nonzero"/></g></g></g></g></g></g><g clip-path="url(#81a245e617)"><g clip-path="url(#200d735840)"><g transform="matrix(1, 0, 0, 1, 17, 21)"><g clip-path="url(#677415e853)"><g clip-path="url(#1dc4db52f8)"><g clip-path="url(#45bfc76251)"><path fill="#003054" d="M -0.636719 0.324219 L 17.347656 0.324219 L 17.347656 27.933594 L -0.636719 27.933594 Z M -0.636719 0.324219 " fill-opacity="1" fill-rule="nonzero"/></g></g></g></g></g></g><g clip-path="url(#8e65dbc431)"><g clip-path="url(#adf96c0a5e)"><g transform="matrix(1, 0, 0, 1, 26, 21)"><g clip-path="url(#8330118b94)"><g clip-path="url(#ec743faa32)"><g clip-path="url(#272d9204ff)"><path fill="#003054" d="M -0.640625 0.324219 L 17.335938 0.324219 L 17.335938 27.921875 L -0.640625 27.921875 Z M -0.640625 0.324219 " fill-opacity="1" fill-rule="nonzero"/></g></g></g></g></g></g><g clip-path="url(#12a6304973)"><g clip-path="url(#fe5c7c31d7)"><g transform="matrix(1, 0, 0, 1, 38, 0.000000000000001776)"><g clip-path="url(#e5c2e5eb83)"><g clip-path="url(#f1d581ddfe)"><g clip-path="url(#b8ebfb61b7)"><path fill="#003054" d="M -1.078125 0.5 L 21.992188 0.5 L 21.992188 48.890625 L -1.078125 48.890625 Z M -1.078125 0.5 " fill-opacity="1" fill-rule="nonzero"/></g></g></g></g></g></g><g clip-path="url(#6e9b4803ce)"><g clip-path="url(#dee7470d4e)"><g transform="matrix(1, 0, 0, 1, 30, 0.000000000000001776)"><g clip-path="url(#5372bc2d7d)"><g clip-path="url(#35a8f3061a)"><g clip-path="url(#871ff08120)"><path fill="#7ed957" d="M 0.800781 0.5 L 41.742188 0.5 L 41.742188 9.566406 L 0.800781 9.566406 Z M 0.800781 0.5 " fill-opacity="1" fill-rule="nonzero"/></g></g></g></g></g></g><g clip-path="url(#08ca595684)"><g clip-path="url(#df902b23e6)"><g clip-path="url(#5318436f86)"><g transform="matrix(1, 0, 0, 1, 39, 2)"><g clip-path="url(#8fa9291a6f)"><g clip-path="url(#f175264a41)"><g clip-path="url(#0bb12860fb)"><g clip-path="url(#f429b4901b)"><path fill="#7ed957" d="M -0.8125 39.949219 L 8.171875 -1.03125 L 20.453125 1.664062 L 11.472656 42.640625 Z M -0.8125 39.949219 " fill-opacity="1" fill-rule="nonzero"/></g></g></g></g></g></g></g></g></g></g></svg>