<svg xmlns="http://www.w3.org/2000/svg" xmlns:xlink="http://www.w3.org/1999/xlink" width="378" zoomAndPan="magnify" viewBox="0 0 283.5 283.500005" height="378" preserveAspectRatio="xMidYMid meet" version="1.0"><defs><g/><clipPath id="a82ee0c661"><path d="M 6.453125 0.394531 L 260.644531 0.394531 L 260.644531 122.484375 L 6.453125 122.484375 Z M 6.453125 0.394531 " clip-rule="nonzero"/></clipPath><clipPath id="58b2baf5bf"><path d="M 42.394531 0.394531 L 224.605469 0.394531 C 244.457031 0.394531 260.546875 16.488281 260.546875 36.335938 L 260.546875 86.542969 C 260.546875 106.390625 244.457031 122.484375 224.605469 122.484375 L 42.394531 122.484375 C 22.542969 122.484375 6.453125 106.390625 6.453125 86.542969 L 6.453125 36.335938 C 6.453125 16.488281 22.542969 0.394531 42.394531 0.394531 Z M 42.394531 0.394531 " clip-rule="nonzero"/></clipPath><clipPath id="fcff263eac"><path d="M 0.453125 0.394531 L 254.566406 0.394531 L 254.566406 122.484375 L 0.453125 122.484375 Z M 0.453125 0.394531 " clip-rule="nonzero"/></clipPath><clipPath id="c4b400d150"><path d="M 36.394531 0.394531 L 218.605469 0.394531 C 238.457031 0.394531 254.546875 16.488281 254.546875 36.335938 L 254.546875 86.542969 C 254.546875 106.390625 238.457031 122.484375 218.605469 122.484375 L 36.394531 122.484375 C 16.542969 122.484375 0.453125 106.390625 0.453125 86.542969 L 0.453125 36.335938 C 0.453125 16.488281 16.542969 0.394531 36.394531 0.394531 Z M 36.394531 0.394531 " clip-rule="nonzero"/></clipPath><clipPath id="e3357a049c"><rect x="0" width="255" y="0" height="123"/></clipPath><clipPath id="0ab065ad14"><path d="M 92.820312 0.394531 L 174.183594 0.394531 L 174.183594 118 L 92.820312 118 Z M 92.820312 0.394531 " clip-rule="nonzero"/></clipPath><clipPath id="8461fd08f5"><path d="M 0.820312 0.394531 L 82.183594 0.394531 L 82.183594 118 L 0.820312 118 Z M 0.820312 0.394531 " clip-rule="nonzero"/></clipPath><clipPath id="bf4bd3486d"><rect x="0" width="83" y="0" height="118"/></clipPath><clipPath id="7f600e3ce7"><path d="M 118.734375 23.070312 L 127.015625 23.070312 L 127.015625 51.351562 L 118.734375 51.351562 Z M 118.734375 23.070312 " clip-rule="nonzero"/></clipPath><clipPath id="a1b3eee144"><path d="M 118.734375 27.234375 C 118.734375 24.945312 120.585938 23.089844 122.875 23.089844 C 125.164062 23.089844 127.015625 24.945312 127.015625 27.234375 L 127.015625 47.207031 C 127.015625 49.496094 125.164062 51.351562 122.875 51.351562 C 120.585938 51.351562 118.734375 49.496094 118.734375 47.207031 Z M 118.734375 27.234375 " clip-rule="nonzero"/></clipPath><clipPath id="af376b3496"><path d="M 0.734375 0.0703125 L 9.015625 0.0703125 L 9.015625 28.351562 L 0.734375 28.351562 Z M 0.734375 0.0703125 " clip-rule="nonzero"/></clipPath><clipPath id="43a9486e17"><path d="M 0.734375 4.234375 C 0.734375 1.945312 2.585938 0.0898438 4.875 0.0898438 C 7.164062 0.0898438 9.015625 1.945312 9.015625 4.234375 L 9.015625 24.207031 C 9.015625 26.496094 7.164062 28.351562 4.875 28.351562 C 2.585938 28.351562 0.734375 26.496094 0.734375 24.207031 Z M 0.734375 4.234375 " clip-rule="nonzero"/></clipPath><clipPath id="14b27f653c"><rect x="0" width="10" y="0" height="29"/></clipPath><clipPath id="90ebf99251"><path d="M 139.980469 23.070312 L 148.261719 23.070312 L 148.261719 51.351562 L 139.980469 51.351562 Z M 139.980469 23.070312 " clip-rule="nonzero"/></clipPath><clipPath id="0d3f17b37e"><path d="M 139.980469 27.234375 C 139.980469 24.945312 141.832031 23.089844 144.121094 23.089844 C 146.410156 23.089844 148.261719 24.945312 148.261719 27.234375 L 148.261719 47.207031 C 148.261719 49.496094 146.410156 51.351562 144.121094 51.351562 C 141.832031 51.351562 139.980469 49.496094 139.980469 47.207031 Z M 139.980469 27.234375 " clip-rule="nonzero"/></clipPath><clipPath id="1d10f56cd4"><path d="M 0.980469 0.0703125 L 9.261719 0.0703125 L 9.261719 28.351562 L 0.980469 28.351562 Z M 0.980469 0.0703125 " clip-rule="nonzero"/></clipPath><clipPath id="9e32bded8f"><path d="M 0.980469 4.234375 C 0.980469 1.945312 2.832031 0.0898438 5.121094 0.0898438 C 7.410156 0.0898438 9.261719 1.945312 9.261719 4.234375 L 9.261719 24.207031 C 9.261719 26.496094 7.410156 28.351562 5.121094 28.351562 C 2.832031 28.351562 0.980469 26.496094 0.980469 24.207031 Z M 0.980469 4.234375 " clip-rule="nonzero"/></clipPath><clipPath id="46e083dedf"><rect x="0" width="10" y="0" height="29"/></clipPath><clipPath id="b8859b5d86"><path d="M 130.859375 76.785156 L 136.144531 76.785156 L 136.144531 118 L 130.859375 118 Z M 130.859375 76.785156 " clip-rule="nonzero"/></clipPath><clipPath id="b182f39799"><path d="M 0.859375 0.785156 L 6.144531 0.785156 L 6.144531 42 L 0.859375 42 Z M 0.859375 0.785156 " clip-rule="nonzero"/></clipPath><clipPath id="d53206eef4"><rect x="0" width="7" y="0" height="42"/></clipPath><clipPath id="fac02d0ad2"><path d="M 6.453125 49.65625 L 137.859375 49.65625 L 137.859375 181.0625 L 6.453125 181.0625 Z M 6.453125 49.65625 " clip-rule="nonzero"/></clipPath><clipPath id="c88c16bf82"><path d="M 45.875 49.65625 C 96.558594 49.65625 137.859375 90.957031 137.859375 141.640625 L 137.859375 181.0625 L 98.4375 181.0625 C 47.75 181.0625 6.453125 139.765625 6.453125 89.078125 L 6.453125 49.65625 Z M 45.875 49.65625 " clip-rule="nonzero"/></clipPath><clipPath id="f77c4625be"><path d="M 0.453125 0.65625 L 131.859375 0.65625 L 131.859375 132.0625 L 0.453125 132.0625 Z M 0.453125 0.65625 " clip-rule="nonzero"/></clipPath><clipPath id="8014b04281"><path d="M 39.875 0.65625 C 90.558594 0.65625 131.859375 41.957031 131.859375 92.640625 L 131.859375 132.0625 L 92.4375 132.0625 C 41.75 132.0625 0.453125 90.765625 0.453125 40.078125 L 0.453125 0.65625 Z M 39.875 0.65625 " clip-rule="nonzero"/></clipPath><clipPath id="979089e74c"><rect x="0" width="132" y="0" height="133"/></clipPath><clipPath id="7af0144399"><path d="M 129.132812 49.65625 L 260.539062 49.65625 L 260.539062 181.0625 L 129.132812 181.0625 Z M 129.132812 49.65625 " clip-rule="nonzero"/></clipPath><clipPath id="8c39a751dc"><path d="M 260.539062 89.078125 C 260.539062 139.765625 219.238281 181.0625 168.554688 181.0625 L 129.132812 181.0625 L 129.132812 141.640625 C 129.132812 90.957031 170.429688 49.65625 221.117188 49.65625 L 260.539062 49.65625 Z M 260.539062 89.078125 " clip-rule="nonzero"/></clipPath><clipPath id="368334ae63"><path d="M 0.132812 0.65625 L 131.539062 0.65625 L 131.539062 132.0625 L 0.132812 132.0625 Z M 0.132812 0.65625 " clip-rule="nonzero"/></clipPath><clipPath id="c9ab669ce2"><path d="M 131.539062 40.078125 C 131.539062 90.765625 90.238281 132.0625 39.554688 132.0625 L 0.132812 132.0625 L 0.132812 92.640625 C 0.132812 41.957031 41.429688 0.65625 92.117188 0.65625 L 131.539062 0.65625 Z M 131.539062 40.078125 " clip-rule="nonzero"/></clipPath><clipPath id="a107f50590"><rect x="0" width="132" y="0" height="133"/></clipPath><clipPath id="eccb0d9727"><path d="M 94.871094 147.71875 L 171.640625 147.71875 L 171.640625 214.148438 L 94.871094 214.148438 Z M 94.871094 147.71875 " clip-rule="nonzero"/></clipPath><clipPath id="4da3e0f459"><path d="M 171.527344 194.914062 C 171.527344 205.535156 154.367188 214.148438 133.199219 214.148438 C 112.03125 214.148438 94.871094 205.535156 94.871094 194.914062 C 94.871094 184.289062 133.199219 147.980469 133.199219 147.980469 C 133.199219 147.980469 171.527344 184.289062 171.527344 194.914062 Z M 171.527344 194.914062 " clip-rule="nonzero"/></clipPath><clipPath id="4ef1798262"><path d="M 0.871094 0.890625 L 77.640625 0.890625 L 77.640625 67.148438 L 0.871094 67.148438 Z M 0.871094 0.890625 " clip-rule="nonzero"/></clipPath><clipPath id="9d80eb003a"><path d="M 77.527344 47.914062 C 77.527344 58.535156 60.367188 67.148438 39.199219 67.148438 C 18.03125 67.148438 0.871094 58.535156 0.871094 47.914062 C 0.871094 37.289062 39.199219 0.980469 39.199219 0.980469 C 39.199219 0.980469 77.527344 37.289062 77.527344 47.914062 Z M 77.527344 47.914062 " clip-rule="nonzero"/></clipPath><clipPath id="1dc91f9728"><rect x="0" width="78" y="0" height="68"/></clipPath><clipPath id="ea3863f26c"><path d="M 90.585938 4.871094 L 99.667969 4.871094 L 99.667969 57.304688 L 90.585938 57.304688 Z M 90.585938 4.871094 " clip-rule="nonzero"/></clipPath><clipPath id="7567f44efb"><path d="M 90.585938 57.289062 C 95.53125 57.289062 99.667969 45.355469 99.667969 31.078125 C 99.667969 16.804688 95.53125 4.871094 90.585938 4.871094 Z M 90.585938 57.289062 " clip-rule="nonzero"/></clipPath><clipPath id="fa7b0f37d7"><path d="M 0.585938 0.871094 L 9.667969 0.871094 L 9.667969 53.304688 L 0.585938 53.304688 Z M 0.585938 0.871094 " clip-rule="nonzero"/></clipPath><clipPath id="b4550cc744"><path d="M 0.585938 53.289062 C 5.53125 53.289062 9.667969 41.355469 9.667969 27.078125 C 9.667969 12.804688 5.53125 0.871094 0.585938 0.871094 Z M 0.585938 53.289062 " clip-rule="nonzero"/></clipPath><clipPath id="1ba6773996"><rect x="0" width="10" y="0" height="54"/></clipPath><clipPath id="d7d7551923"><path d="M 167.195312 4.847656 L 176.277344 4.847656 L 176.277344 57.285156 L 167.195312 57.285156 Z M 167.195312 4.847656 " clip-rule="nonzero"/></clipPath><clipPath id="a4046cb340"><path d="M 176.277344 4.863281 C 171.332031 4.863281 167.195312 16.796875 167.195312 31.074219 C 167.195312 45.347656 171.332031 57.285156 176.277344 57.285156 Z M 176.277344 4.863281 " clip-rule="nonzero"/></clipPath><clipPath id="2bfbf30387"><path d="M 0.195312 0.847656 L 9.277344 0.847656 L 9.277344 53.285156 L 0.195312 53.285156 Z M 0.195312 0.847656 " clip-rule="nonzero"/></clipPath><clipPath id="89fe76b38b"><path d="M 9.277344 0.863281 C 4.332031 0.863281 0.195312 12.796875 0.195312 27.074219 C 0.195312 41.347656 4.332031 53.285156 9.277344 53.285156 Z M 9.277344 0.863281 " clip-rule="nonzero"/></clipPath><clipPath id="c3cb38fcba"><rect x="0" width="10" y="0" height="54"/></clipPath><clipPath id="79ec3ffbed"><path d="M 0.863281 183 L 266.554688 183 L 266.554688 233.421875 L 0.863281 233.421875 Z M 0.863281 183 " clip-rule="nonzero"/></clipPath><clipPath id="b2684b88ed"><rect x="0" width="267" y="0" height="51"/></clipPath><clipPath id="adb19aa278"><rect x="0" width="267" y="0" height="234"/></clipPath></defs><g transform="matrix(1, 0, 0, 1, 8, 27)"><g clip-path="url(#adb19aa278)"><g clip-path="url(#a82ee0c661)"><g clip-path="url(#58b2baf5bf)"><g transform="matrix(1, 0, 0, 1, 6, 0.000000000000010658)"><g clip-path="url(#e3357a049c)"><g clip-path="url(#fcff263eac)"><g clip-path="url(#c4b400d150)"><path fill="#7ed957" d="M 0.453125 0.394531 L 254.644531 0.394531 L 254.644531 122.484375 L 0.453125 122.484375 Z M 0.453125 0.394531 " fill-opacity="1" fill-rule="nonzero"/></g></g></g></g></g></g><g clip-path="url(#0ab065ad14)"><g transform="matrix(1, 0, 0, 1, 92, 0.000000000000010658)"><g clip-path="url(#bf4bd3486d)"><g clip-path="url(#8461fd08f5)"><path fill="#6ab649" d="M 0.820312 0.394531 L 82.183594 0.394531 L 82.183594 117.992188 L 0.820312 117.992188 Z M 0.820312 0.394531 " fill-opacity="1" fill-rule="nonzero"/></g></g></g></g><g clip-path="url(#7f600e3ce7)"><g clip-path="url(#a1b3eee144)"><g transform="matrix(1, 0, 0, 1, 118, 23)"><g clip-path="url(#14b27f653c)"><g clip-path="url(#af376b3496)"><g clip-path="url(#43a9486e17)"><path fill="#5f9f44" d="M 0.734375 28.351562 L 0.734375 0.101562 L 9.015625 0.101562 L 9.015625 28.351562 Z M 0.734375 28.351562 " fill-opacity="1" fill-rule="nonzero"/></g></g></g></g></g></g><g clip-path="url(#90ebf99251)"><g clip-path="url(#0d3f17b37e)"><g transform="matrix(1, 0, 0, 1, 139, 23)"><g clip-path="url(#46e083dedf)"><g clip-path="url(#1d10f56cd4)"><g clip-path="url(#9e32bded8f)"><path fill="#5f9f44" d="M 0.980469 28.351562 L 0.980469 0.101562 L 9.261719 0.101562 L 9.261719 28.351562 Z M 0.980469 28.351562 " fill-opacity="1" fill-rule="nonzero"/></g></g></g></g></g></g><g clip-path="url(#b8859b5d86)"><g transform="matrix(1, 0, 0, 1, 130, 76)"><g clip-path="url(#d53206eef4)"><g clip-path="url(#b182f39799)"><path fill="#5f9f44" d="M 0.859375 0.785156 L 6.144531 0.785156 L 6.144531 42.011719 L 0.859375 42.011719 Z M 0.859375 0.785156 " fill-opacity="1" fill-rule="nonzero"/></g></g></g></g><g clip-path="url(#fac02d0ad2)"><g clip-path="url(#c88c16bf82)"><g transform="matrix(1, 0, 0, 1, 6, 49)"><g clip-path="url(#979089e74c)"><g clip-path="url(#f77c4625be)"><g clip-path="url(#8014b04281)"><path fill="#0664aa" d="M 0.453125 0.65625 L 131.859375 0.65625 L 131.859375 132.0625 L 0.453125 132.0625 Z M 0.453125 0.65625 " fill-opacity="1" fill-rule="nonzero"/></g></g></g></g></g></g><g clip-path="url(#7af0144399)"><g clip-path="url(#8c39a751dc)"><g transform="matrix(1, 0, 0, 1, 129, 49)"><g clip-path="url(#a107f50590)"><g clip-path="url(#368334ae63)"><g clip-path="url(#c9ab669ce2)"><path fill="#0664aa" d="M 131.539062 0.65625 L 131.539062 132.0625 L 0.132812 132.0625 L 0.132812 0.65625 Z M 131.539062 0.65625 " fill-opacity="1" fill-rule="nonzero"/></g></g></g></g></g></g><g clip-path="url(#eccb0d9727)"><g clip-path="url(#4da3e0f459)"><g transform="matrix(1, 0, 0, 1, 94, 147)"><g clip-path="url(#1dc91f9728)"><g clip-path="url(#4ef1798262)"><g clip-path="url(#9d80eb003a)"><path fill="#ffffff" d="M 0.871094 0.980469 L 77.640625 0.980469 L 77.640625 67.148438 L 0.871094 67.148438 Z M 0.871094 0.980469 " fill-opacity="1" fill-rule="nonzero"/></g></g></g></g></g></g><g clip-path="url(#ea3863f26c)"><g clip-path="url(#7567f44efb)"><g transform="matrix(1, 0, 0, 1, 90, 4)"><g clip-path="url(#1ba6773996)"><g clip-path="url(#fa7b0f37d7)"><g clip-path="url(#b4550cc744)"><path fill="#7ed957" d="M 9.667969 0.871094 L 9.667969 53.304688 L 0.585938 53.304688 L 0.585938 0.871094 Z M 9.667969 0.871094 " fill-opacity="1" fill-rule="nonzero"/></g></g></g></g></g></g><g clip-path="url(#d7d7551923)"><g clip-path="url(#a4046cb340)"><g transform="matrix(1, 0, 0, 1, 167, 4)"><g clip-path="url(#c3cb38fcba)"><g clip-path="url(#2bfbf30387)"><g clip-path="url(#89fe76b38b)"><path fill="#7ed957" d="M 0.195312 53.285156 L 0.195312 0.847656 L 9.277344 0.847656 L 9.277344 53.285156 Z M 0.195312 53.285156 " fill-opacity="1" fill-rule="nonzero"/></g></g></g></g></g></g><g clip-path="url(#79ec3ffbed)"><g transform="matrix(1, 0, 0, 1, 0.000000000000000888, 183)"><g clip-path="url(#b2684b88ed)"><g fill="#004aad" fill-opacity="1"><g transform="translate(0.995488, 37.68413)"><g><path d="M 36.609375 -25 L 30.09375 0 L 22.71875 0 L 18.734375 -16.453125 L 14.59375 0 L 7.234375 0 L 0.890625 -25 L 7.40625 -25 L 11 -6.796875 L 15.453125 -25 L 22.15625 -25 L 26.421875 -6.796875 L 30.046875 -25 Z M 36.609375 -25 "/></g></g></g><g fill="#004aad" fill-opacity="1"><g transform="translate(38.445498, 37.68413)"><g><path d="M 8.296875 -16.5625 C 9.003906 -17.65625 9.890625 -18.515625 10.953125 -19.140625 C 12.023438 -19.765625 13.21875 -20.078125 14.53125 -20.078125 L 14.53125 -13.640625 L 12.859375 -13.640625 C 11.335938 -13.640625 10.195312 -13.3125 9.4375 -12.65625 C 8.675781 -12.007812 8.296875 -10.863281 8.296875 -9.21875 L 8.296875 0 L 2.203125 0 L 2.203125 -19.875 L 8.296875 -19.875 Z M 8.296875 -16.5625 "/></g></g></g><g fill="#004aad" fill-opacity="1"><g transform="translate(53.68182, 37.68413)"><g><path d="M 5.265625 -21.9375 C 4.203125 -21.9375 3.332031 -22.25 2.65625 -22.875 C 1.976562 -23.507812 1.640625 -24.289062 1.640625 -25.21875 C 1.640625 -26.164062 1.976562 -26.953125 2.65625 -27.578125 C 3.332031 -28.203125 4.203125 -28.515625 5.265625 -28.515625 C 6.316406 -28.515625 7.175781 -28.203125 7.84375 -27.578125 C 8.519531 -26.953125 8.859375 -26.164062 8.859375 -25.21875 C 8.859375 -24.289062 8.519531 -23.507812 7.84375 -22.875 C 7.175781 -22.25 6.316406 -21.9375 5.265625 -21.9375 Z M 8.296875 -19.875 L 8.296875 0 L 2.203125 0 L 2.203125 -19.875 Z M 8.296875 -19.875 "/></g></g></g><g fill="#004aad" fill-opacity="1"><g transform="translate(64.183486, 37.68413)"><g><path d="M 13.28125 -5.15625 L 13.28125 0 L 10.1875 0 C 7.976562 0 6.253906 -0.535156 5.015625 -1.609375 C 3.785156 -2.691406 3.171875 -4.457031 3.171875 -6.90625 L 3.171875 -14.8125 L 0.75 -14.8125 L 0.75 -19.875 L 3.171875 -19.875 L 3.171875 -24.71875 L 9.265625 -24.71875 L 9.265625 -19.875 L 13.25 -19.875 L 13.25 -14.8125 L 9.265625 -14.8125 L 9.265625 -6.84375 C 9.265625 -6.25 9.40625 -5.816406 9.6875 -5.546875 C 9.96875 -5.285156 10.441406 -5.15625 11.109375 -5.15625 Z M 13.28125 -5.15625 "/></g></g></g><g fill="#004aad" fill-opacity="1"><g transform="translate(78.636625, 37.68413)"><g><path d="M 20.9375 -10.25 C 20.9375 -9.6875 20.898438 -9.09375 20.828125 -8.46875 L 7.046875 -8.46875 C 7.140625 -7.238281 7.535156 -6.296875 8.234375 -5.640625 C 8.941406 -4.992188 9.804688 -4.671875 10.828125 -4.671875 C 12.347656 -4.671875 13.40625 -5.3125 14 -6.59375 L 20.46875 -6.59375 C 20.144531 -5.28125 19.546875 -4.101562 18.671875 -3.0625 C 17.804688 -2.019531 16.71875 -1.203125 15.40625 -0.609375 C 14.101562 -0.015625 12.644531 0.28125 11.03125 0.28125 C 9.09375 0.28125 7.363281 -0.128906 5.84375 -0.953125 C 4.320312 -1.785156 3.132812 -2.972656 2.28125 -4.515625 C 1.425781 -6.066406 1 -7.875 1 -9.9375 C 1 -12 1.421875 -13.800781 2.265625 -15.34375 C 3.109375 -16.882812 4.285156 -18.070312 5.796875 -18.90625 C 7.316406 -19.738281 9.0625 -20.15625 11.03125 -20.15625 C 12.957031 -20.15625 14.664062 -19.75 16.15625 -18.9375 C 17.65625 -18.132812 18.828125 -16.984375 19.671875 -15.484375 C 20.515625 -13.992188 20.9375 -12.25 20.9375 -10.25 Z M 14.703125 -11.859375 C 14.703125 -12.898438 14.34375 -13.726562 13.625 -14.34375 C 12.914062 -14.96875 12.03125 -15.28125 10.96875 -15.28125 C 9.945312 -15.28125 9.082031 -14.984375 8.375 -14.390625 C 7.675781 -13.796875 7.25 -12.953125 7.09375 -11.859375 Z M 14.703125 -11.859375 "/></g></g></g><g fill="#7ed957" fill-opacity="1"><g transform="translate(100.568172, 37.68413)"><g><path d="M 20.1875 -25 L 20.1875 -20.125 L 13.5625 -20.125 L 13.5625 0 L 7.484375 0 L 7.484375 -20.125 L 0.859375 -20.125 L 0.859375 -25 Z M 20.1875 -25 "/></g></g></g><g fill="#7ed957" fill-opacity="1"><g transform="translate(121.60711, 37.68413)"><g><path d="M 11.25 0.28125 C 9.300781 0.28125 7.550781 -0.128906 6 -0.953125 C 4.445312 -1.785156 3.222656 -2.972656 2.328125 -4.515625 C 1.441406 -6.066406 1 -7.875 1 -9.9375 C 1 -11.976562 1.445312 -13.773438 2.34375 -15.328125 C 3.25 -16.878906 4.484375 -18.070312 6.046875 -18.90625 C 7.617188 -19.738281 9.378906 -20.15625 11.328125 -20.15625 C 13.273438 -20.15625 15.03125 -19.738281 16.59375 -18.90625 C 18.15625 -18.070312 19.390625 -16.878906 20.296875 -15.328125 C 21.203125 -13.773438 21.65625 -11.976562 21.65625 -9.9375 C 21.65625 -7.894531 21.195312 -6.09375 20.28125 -4.53125 C 19.363281 -2.976562 18.113281 -1.785156 16.53125 -0.953125 C 14.957031 -0.128906 13.195312 0.28125 11.25 0.28125 Z M 11.25 -4.984375 C 12.414062 -4.984375 13.40625 -5.410156 14.21875 -6.265625 C 15.039062 -7.117188 15.453125 -8.34375 15.453125 -9.9375 C 15.453125 -11.53125 15.050781 -12.753906 14.25 -13.609375 C 13.457031 -14.460938 12.484375 -14.890625 11.328125 -14.890625 C 10.140625 -14.890625 9.148438 -14.46875 8.359375 -13.625 C 7.578125 -12.78125 7.1875 -11.550781 7.1875 -9.9375 C 7.1875 -8.34375 7.570312 -7.117188 8.34375 -6.265625 C 9.113281 -5.410156 10.082031 -4.984375 11.25 -4.984375 Z M 11.25 -4.984375 "/></g></g></g><g fill="#7ed957" fill-opacity="1"><g transform="translate(144.283587, 37.68413)"><g><path d="M 9.75 -20.15625 C 11.15625 -20.15625 12.382812 -19.867188 13.4375 -19.296875 C 14.5 -18.734375 15.3125 -17.988281 15.875 -17.0625 L 15.875 -19.875 L 21.96875 -19.875 L 21.96875 -0.03125 C 21.96875 1.789062 21.601562 3.441406 20.875 4.921875 C 20.15625 6.410156 19.050781 7.59375 17.5625 8.46875 C 16.082031 9.351562 14.238281 9.796875 12.03125 9.796875 C 9.09375 9.796875 6.707031 9.097656 4.875 7.703125 C 3.050781 6.316406 2.007812 4.4375 1.75 2.0625 L 7.765625 2.0625 C 7.953125 2.820312 8.398438 3.421875 9.109375 3.859375 C 9.828125 4.296875 10.707031 4.515625 11.75 4.515625 C 13.007812 4.515625 14.007812 4.148438 14.75 3.421875 C 15.5 2.703125 15.875 1.550781 15.875 -0.03125 L 15.875 -2.84375 C 15.28125 -1.914062 14.460938 -1.160156 13.421875 -0.578125 C 12.378906 -0.00390625 11.15625 0.28125 9.75 0.28125 C 8.113281 0.28125 6.628906 -0.140625 5.296875 -0.984375 C 3.972656 -1.828125 2.925781 -3.023438 2.15625 -4.578125 C 1.382812 -6.128906 1 -7.925781 1 -9.96875 C 1 -12.007812 1.382812 -13.800781 2.15625 -15.34375 C 2.925781 -16.882812 3.972656 -18.070312 5.296875 -18.90625 C 6.628906 -19.738281 8.113281 -20.15625 9.75 -20.15625 Z M 15.875 -9.9375 C 15.875 -11.457031 15.453125 -12.65625 14.609375 -13.53125 C 13.773438 -14.40625 12.75 -14.84375 11.53125 -14.84375 C 10.320312 -14.84375 9.296875 -14.410156 8.453125 -13.546875 C 7.609375 -12.679688 7.1875 -11.488281 7.1875 -9.96875 C 7.1875 -8.445312 7.609375 -7.238281 8.453125 -6.34375 C 9.296875 -5.457031 10.320312 -5.015625 11.53125 -5.015625 C 12.75 -5.015625 13.773438 -5.453125 14.609375 -6.328125 C 15.453125 -7.210938 15.875 -8.414062 15.875 -9.9375 Z M 15.875 -9.9375 "/></g></g></g><g fill="#7ed957" fill-opacity="1"><g transform="translate(168.455221, 37.68413)"><g><path d="M 20.9375 -10.25 C 20.9375 -9.6875 20.898438 -9.09375 20.828125 -8.46875 L 7.046875 -8.46875 C 7.140625 -7.238281 7.535156 -6.296875 8.234375 -5.640625 C 8.941406 -4.992188 9.804688 -4.671875 10.828125 -4.671875 C 12.347656 -4.671875 13.40625 -5.3125 14 -6.59375 L 20.46875 -6.59375 C 20.144531 -5.28125 19.546875 -4.101562 18.671875 -3.0625 C 17.804688 -2.019531 16.71875 -1.203125 15.40625 -0.609375 C 14.101562 -0.015625 12.644531 0.28125 11.03125 0.28125 C 9.09375 0.28125 7.363281 -0.128906 5.84375 -0.953125 C 4.320312 -1.785156 3.132812 -2.972656 2.28125 -4.515625 C 1.425781 -6.066406 1 -7.875 1 -9.9375 C 1 -12 1.421875 -13.800781 2.265625 -15.34375 C 3.109375 -16.882812 4.285156 -18.070312 5.796875 -18.90625 C 7.316406 -19.738281 9.0625 -20.15625 11.03125 -20.15625 C 12.957031 -20.15625 14.664062 -19.75 16.15625 -18.9375 C 17.65625 -18.132812 18.828125 -16.984375 19.671875 -15.484375 C 20.515625 -13.992188 20.9375 -12.25 20.9375 -10.25 Z M 14.703125 -11.859375 C 14.703125 -12.898438 14.34375 -13.726562 13.625 -14.34375 C 12.914062 -14.96875 12.03125 -15.28125 10.96875 -15.28125 C 9.945312 -15.28125 9.082031 -14.984375 8.375 -14.390625 C 7.675781 -13.796875 7.25 -12.953125 7.09375 -11.859375 Z M 14.703125 -11.859375 "/></g></g></g><g fill="#7ed957" fill-opacity="1"><g transform="translate(190.384133, 37.68413)"><g><path d="M 13.28125 -5.15625 L 13.28125 0 L 10.1875 0 C 7.976562 0 6.253906 -0.535156 5.015625 -1.609375 C 3.785156 -2.691406 3.171875 -4.457031 3.171875 -6.90625 L 3.171875 -14.8125 L 0.75 -14.8125 L 0.75 -19.875 L 3.171875 -19.875 L 3.171875 -24.71875 L 9.265625 -24.71875 L 9.265625 -19.875 L 13.25 -19.875 L 13.25 -14.8125 L 9.265625 -14.8125 L 9.265625 -6.84375 C 9.265625 -6.25 9.40625 -5.816406 9.6875 -5.546875 C 9.96875 -5.285156 10.441406 -5.15625 11.109375 -5.15625 Z M 13.28125 -5.15625 "/></g></g></g><g fill="#7ed957" fill-opacity="1"><g transform="translate(204.837271, 37.68413)"><g><path d="M 14.421875 -20.078125 C 16.703125 -20.078125 18.53125 -19.320312 19.90625 -17.8125 C 21.28125 -16.3125 21.96875 -14.242188 21.96875 -11.609375 L 21.96875 0 L 15.921875 0 L 15.921875 -10.796875 C 15.921875 -12.117188 15.578125 -13.144531 14.890625 -13.875 C 14.203125 -14.613281 13.273438 -14.984375 12.109375 -14.984375 C 10.941406 -14.984375 10.015625 -14.613281 9.328125 -13.875 C 8.640625 -13.144531 8.296875 -12.117188 8.296875 -10.796875 L 8.296875 0 L 2.203125 0 L 2.203125 -26.34375 L 8.296875 -26.34375 L 8.296875 -17.203125 C 8.910156 -18.078125 9.75 -18.773438 10.8125 -19.296875 C 11.882812 -19.816406 13.085938 -20.078125 14.421875 -20.078125 Z M 14.421875 -20.078125 "/></g></g></g><g fill="#7ed957" fill-opacity="1"><g transform="translate(228.830919, 37.68413)"><g><path d="M 20.9375 -10.25 C 20.9375 -9.6875 20.898438 -9.09375 20.828125 -8.46875 L 7.046875 -8.46875 C 7.140625 -7.238281 7.535156 -6.296875 8.234375 -5.640625 C 8.941406 -4.992188 9.804688 -4.671875 10.828125 -4.671875 C 12.347656 -4.671875 13.40625 -5.3125 14 -6.59375 L 20.46875 -6.59375 C 20.144531 -5.28125 19.546875 -4.101562 18.671875 -3.0625 C 17.804688 -2.019531 16.71875 -1.203125 15.40625 -0.609375 C 14.101562 -0.015625 12.644531 0.28125 11.03125 0.28125 C 9.09375 0.28125 7.363281 -0.128906 5.84375 -0.953125 C 4.320312 -1.785156 3.132812 -2.972656 2.28125 -4.515625 C 1.425781 -6.066406 1 -7.875 1 -9.9375 C 1 -12 1.421875 -13.800781 2.265625 -15.34375 C 3.109375 -16.882812 4.285156 -18.070312 5.796875 -18.90625 C 7.316406 -19.738281 9.0625 -20.15625 11.03125 -20.15625 C 12.957031 -20.15625 14.664062 -19.75 16.15625 -18.9375 C 17.65625 -18.132812 18.828125 -16.984375 19.671875 -15.484375 C 20.515625 -13.992188 20.9375 -12.25 20.9375 -10.25 Z M 14.703125 -11.859375 C 14.703125 -12.898438 14.34375 -13.726562 13.625 -14.34375 C 12.914062 -14.96875 12.03125 -15.28125 10.96875 -15.28125 C 9.945312 -15.28125 9.082031 -14.984375 8.375 -14.390625 C 7.675781 -13.796875 7.25 -12.953125 7.09375 -11.859375 Z M 14.703125 -11.859375 "/></g></g></g><g fill="#7ed957" fill-opacity="1"><g transform="translate(250.75983, 37.68413)"><g><path d="M 8.296875 -16.5625 C 9.003906 -17.65625 9.890625 -18.515625 10.953125 -19.140625 C 12.023438 -19.765625 13.21875 -20.078125 14.53125 -20.078125 L 14.53125 -13.640625 L 12.859375 -13.640625 C 11.335938 -13.640625 10.195312 -13.3125 9.4375 -12.65625 C 8.675781 -12.007812 8.296875 -10.863281 8.296875 -9.21875 L 8.296875 0 L 2.203125 0 L 2.203125 -19.875 L 8.296875 -19.875 Z M 8.296875 -16.5625 "/></g></g></g></g></g></g></g></g></svg>