<svg xmlns="http://www.w3.org/2000/svg" xmlns:xlink="http://www.w3.org/1999/xlink" width="600" zoomAndPan="magnify" viewBox="0 0 450 149.999998" height="200" preserveAspectRatio="xMidYMid meet" version="1.0"><defs><g/><clipPath id="e581877adb"><rect x="0" width="267" y="0" height="51"/></clipPath><clipPath id="62873cd676"><path d="M 0.960938 0.324219 L 121.804688 0.324219 L 121.804688 58.367188 L 0.960938 58.367188 Z M 0.960938 0.324219 " clip-rule="nonzero"/></clipPath><clipPath id="6f13666bdd"><path d="M 29.980469 0.324219 L 92.738281 0.324219 C 100.433594 0.324219 107.816406 3.382812 113.257812 8.824219 C 118.703125 14.265625 121.757812 21.648438 121.757812 29.34375 C 121.757812 37.042969 118.703125 44.421875 113.257812 49.867188 C 107.816406 55.308594 100.433594 58.367188 92.738281 58.367188 L 29.980469 58.367188 C 22.285156 58.367188 14.902344 55.308594 9.460938 49.867188 C 4.019531 44.421875 0.960938 37.042969 0.960938 29.34375 C 0.960938 21.648438 4.019531 14.265625 9.460938 8.824219 C 14.902344 3.382812 22.285156 0.324219 29.980469 0.324219 Z M 29.980469 0.324219 " clip-rule="nonzero"/></clipPath><clipPath id="395bb0e5b0"><path d="M 0.960938 0.324219 L 121.804688 0.324219 L 121.804688 58.367188 L 0.960938 58.367188 Z M 0.960938 0.324219 " clip-rule="nonzero"/></clipPath><clipPath id="f6e186e08f"><path d="M 29.980469 0.324219 L 92.738281 0.324219 C 100.433594 0.324219 107.816406 3.382812 113.257812 8.824219 C 118.703125 14.265625 121.757812 21.648438 121.757812 29.34375 C 121.757812 37.042969 118.703125 44.421875 113.257812 49.867188 C 107.816406 55.308594 100.433594 58.367188 92.738281 58.367188 L 29.980469 58.367188 C 22.285156 58.367188 14.902344 55.308594 9.460938 49.867188 C 4.019531 44.421875 0.960938 37.042969 0.960938 29.34375 C 0.960938 21.648438 4.019531 14.265625 9.460938 8.824219 C 14.902344 3.382812 22.285156 0.324219 29.980469 0.324219 Z M 29.980469 0.324219 " clip-rule="nonzero"/></clipPath><clipPath id="0835ab9af5"><rect x="0" width="122" y="0" height="59"/></clipPath><clipPath id="2d737bb80d"><path d="M 42.019531 0.324219 L 80.699219 0.324219 L 80.699219 56.234375 L 42.019531 56.234375 Z M 42.019531 0.324219 " clip-rule="nonzero"/></clipPath><clipPath id="7f5d200324"><path d="M 0.0195312 0.324219 L 38.699219 0.324219 L 38.699219 56.234375 L 0.0195312 56.234375 Z M 0.0195312 0.324219 " clip-rule="nonzero"/></clipPath><clipPath id="884d869420"><rect x="0" width="39" y="0" height="57"/></clipPath><clipPath id="fc921d936d"><path d="M 54.339844 11.105469 L 58.277344 11.105469 L 58.277344 24.550781 L 54.339844 24.550781 Z M 54.339844 11.105469 " clip-rule="nonzero"/></clipPath><clipPath id="137b420ecf"><path d="M 54.339844 13.082031 C 54.339844 11.996094 55.222656 11.113281 56.308594 11.113281 C 57.394531 11.113281 58.277344 11.996094 58.277344 13.082031 L 58.277344 22.578125 C 58.277344 23.667969 57.394531 24.550781 56.308594 24.550781 C 55.222656 24.550781 54.339844 23.667969 54.339844 22.578125 Z M 54.339844 13.082031 " clip-rule="nonzero"/></clipPath><clipPath id="f619786719"><path d="M 0.339844 0.105469 L 4.277344 0.105469 L 4.277344 13.550781 L 0.339844 13.550781 Z M 0.339844 0.105469 " clip-rule="nonzero"/></clipPath><clipPath id="ae527506e9"><path d="M 0.339844 2.082031 C 0.339844 0.996094 1.222656 0.113281 2.308594 0.113281 C 3.394531 0.113281 4.277344 0.996094 4.277344 2.082031 L 4.277344 11.578125 C 4.277344 12.667969 3.394531 13.550781 2.308594 13.550781 C 1.222656 13.550781 0.339844 12.667969 0.339844 11.578125 Z M 0.339844 2.082031 " clip-rule="nonzero"/></clipPath><clipPath id="969f1b69d3"><rect x="0" width="5" y="0" height="14"/></clipPath><clipPath id="40d24cef6d"><path d="M 64.441406 11.105469 L 68.378906 11.105469 L 68.378906 24.550781 L 64.441406 24.550781 Z M 64.441406 11.105469 " clip-rule="nonzero"/></clipPath><clipPath id="11ebda1202"><path d="M 64.441406 13.082031 C 64.441406 11.996094 65.320312 11.113281 66.410156 11.113281 C 67.496094 11.113281 68.378906 11.996094 68.378906 13.082031 L 68.378906 22.578125 C 68.378906 23.667969 67.496094 24.550781 66.410156 24.550781 C 65.320312 24.550781 64.441406 23.667969 64.441406 22.578125 Z M 64.441406 13.082031 " clip-rule="nonzero"/></clipPath><clipPath id="5ec8e8c336"><path d="M 0.441406 0.105469 L 4.378906 0.105469 L 4.378906 13.550781 L 0.441406 13.550781 Z M 0.441406 0.105469 " clip-rule="nonzero"/></clipPath><clipPath id="6dd019d69c"><path d="M 0.441406 2.082031 C 0.441406 0.996094 1.320312 0.113281 2.410156 0.113281 C 3.496094 0.113281 4.378906 0.996094 4.378906 2.082031 L 4.378906 11.578125 C 4.378906 12.667969 3.496094 13.550781 2.410156 13.550781 C 1.320312 13.550781 0.441406 12.667969 0.441406 11.578125 Z M 0.441406 2.082031 " clip-rule="nonzero"/></clipPath><clipPath id="5a7fd7f132"><rect x="0" width="5" y="0" height="14"/></clipPath><clipPath id="946aad39ac"><path d="M 60.105469 36.640625 L 62.617188 36.640625 L 62.617188 56.234375 L 60.105469 56.234375 Z M 60.105469 36.640625 " clip-rule="nonzero"/></clipPath><clipPath id="7e4e808c6e"><path d="M 0.105469 0.640625 L 2.617188 0.640625 L 2.617188 20.234375 L 0.105469 20.234375 Z M 0.105469 0.640625 " clip-rule="nonzero"/></clipPath><clipPath id="b33d7420f5"><rect x="0" width="3" y="0" height="21"/></clipPath><clipPath id="28edf4f898"><path d="M 0.960938 23.742188 L 63.433594 23.742188 L 63.433594 86.214844 L 0.960938 86.214844 Z M 0.960938 23.742188 " clip-rule="nonzero"/></clipPath><clipPath id="ef9e14c414"><path d="M 19.703125 23.742188 C 43.796875 23.742188 63.433594 43.378906 63.433594 67.472656 L 63.433594 86.214844 L 44.691406 86.214844 C 20.59375 86.214844 0.960938 66.582031 0.960938 42.484375 L 0.960938 23.742188 Z M 19.703125 23.742188 " clip-rule="nonzero"/></clipPath><clipPath id="91f7b4ac88"><path d="M 0.960938 0.742188 L 63.433594 0.742188 L 63.433594 63.214844 L 0.960938 63.214844 Z M 0.960938 0.742188 " clip-rule="nonzero"/></clipPath><clipPath id="676a6068eb"><path d="M 19.703125 0.742188 C 43.796875 0.742188 63.433594 20.378906 63.433594 44.472656 L 63.433594 63.214844 L 44.691406 63.214844 C 20.59375 63.214844 0.960938 43.582031 0.960938 19.484375 L 0.960938 0.742188 Z M 19.703125 0.742188 " clip-rule="nonzero"/></clipPath><clipPath id="c4f48cf133"><rect x="0" width="64" y="0" height="64"/></clipPath><clipPath id="03a2da3b79"><path d="M 59.28125 23.742188 L 121.753906 23.742188 L 121.753906 86.214844 L 59.28125 86.214844 Z M 59.28125 23.742188 " clip-rule="nonzero"/></clipPath><clipPath id="914df8a380"><path d="M 121.753906 42.484375 C 121.753906 66.582031 102.121094 86.214844 78.023438 86.214844 L 59.28125 86.214844 L 59.28125 67.472656 C 59.28125 43.378906 78.917969 23.742188 103.011719 23.742188 L 121.753906 23.742188 Z M 121.753906 42.484375 " clip-rule="nonzero"/></clipPath><clipPath id="626cb1827d"><path d="M 0.28125 0.742188 L 62.753906 0.742188 L 62.753906 63.214844 L 0.28125 63.214844 Z M 0.28125 0.742188 " clip-rule="nonzero"/></clipPath><clipPath id="ce799a43f0"><path d="M 62.753906 19.484375 C 62.753906 43.582031 43.121094 63.214844 19.023438 63.214844 L 0.28125 63.214844 L 0.28125 44.472656 C 0.28125 20.378906 19.917969 0.742188 44.011719 0.742188 L 62.753906 0.742188 Z M 62.753906 19.484375 " clip-rule="nonzero"/></clipPath><clipPath id="81366cc5db"><rect x="0" width="63" y="0" height="64"/></clipPath><clipPath id="63fbb1fc1c"><path d="M 42.996094 70.363281 L 79.492188 70.363281 L 79.492188 101.945312 L 42.996094 101.945312 Z M 42.996094 70.363281 " clip-rule="nonzero"/></clipPath><clipPath id="bb0f18f52c"><path d="M 79.4375 92.800781 C 79.4375 97.847656 71.28125 101.945312 61.21875 101.945312 C 51.152344 101.945312 42.996094 97.847656 42.996094 92.800781 C 42.996094 87.75 61.21875 70.484375 61.21875 70.484375 C 61.21875 70.484375 79.4375 87.75 79.4375 92.800781 Z M 79.4375 92.800781 " clip-rule="nonzero"/></clipPath><clipPath id="f2e52a110d"><path d="M 0.996094 0.398438 L 37.480469 0.398438 L 37.480469 31.945312 L 0.996094 31.945312 Z M 0.996094 0.398438 " clip-rule="nonzero"/></clipPath><clipPath id="1d169ec269"><path d="M 37.4375 22.800781 C 37.4375 27.847656 29.28125 31.945312 19.21875 31.945312 C 9.152344 31.945312 0.996094 27.847656 0.996094 22.800781 C 0.996094 17.75 19.21875 0.484375 19.21875 0.484375 C 19.21875 0.484375 37.4375 17.75 37.4375 22.800781 Z M 37.4375 22.800781 " clip-rule="nonzero"/></clipPath><clipPath id="911c6ce373"><rect x="0" width="38" y="0" height="32"/></clipPath><clipPath id="f00bafb83f"><path d="M 40.957031 2.453125 L 45.277344 2.453125 L 45.277344 27.378906 L 40.957031 27.378906 Z M 40.957031 2.453125 " clip-rule="nonzero"/></clipPath><clipPath id="e149730046"><path d="M 40.957031 27.371094 C 43.308594 27.371094 45.277344 21.699219 45.277344 14.910156 C 45.277344 8.125 43.308594 2.453125 40.957031 2.453125 Z M 40.957031 27.371094 " clip-rule="nonzero"/></clipPath><clipPath id="6e43162089"><path d="M 0.957031 0.453125 L 5.277344 0.453125 L 5.277344 25.378906 L 0.957031 25.378906 Z M 0.957031 0.453125 " clip-rule="nonzero"/></clipPath><clipPath id="7269f923f4"><path d="M 0.957031 25.371094 C 3.308594 25.371094 5.277344 19.699219 5.277344 12.910156 C 5.277344 6.125 3.308594 0.453125 0.957031 0.453125 Z M 0.957031 25.371094 " clip-rule="nonzero"/></clipPath><clipPath id="1c9cc965b7"><rect x="0" width="6" y="0" height="26"/></clipPath><clipPath id="8681d12830"><path d="M 77.378906 2.441406 L 81.695312 2.441406 L 81.695312 27.371094 L 77.378906 27.371094 Z M 77.378906 2.441406 " clip-rule="nonzero"/></clipPath><clipPath id="b1a329c788"><path d="M 81.695312 2.449219 C 79.34375 2.449219 77.378906 8.121094 77.378906 14.910156 C 77.378906 21.695312 79.34375 27.371094 81.695312 27.371094 Z M 81.695312 2.449219 " clip-rule="nonzero"/></clipPath><clipPath id="d43ea62239"><path d="M 0.378906 0.441406 L 4.695312 0.441406 L 4.695312 25.371094 L 0.378906 25.371094 Z M 0.378906 0.441406 " clip-rule="nonzero"/></clipPath><clipPath id="9e29d37cb7"><path d="M 4.695312 0.449219 C 2.34375 0.449219 0.378906 6.121094 0.378906 12.910156 C 0.378906 19.695312 2.34375 25.371094 4.695312 25.371094 Z M 4.695312 0.449219 " clip-rule="nonzero"/></clipPath><clipPath id="68bceaa2c9"><rect x="0" width="5" y="0" height="26"/></clipPath><clipPath id="bc11cc45f7"><rect x="0" width="122" y="0" height="103"/></clipPath></defs><g transform="matrix(1, 0, 0, 1, 155, 49)"><g clip-path="url(#e581877adb)"><g fill="#004aad" fill-opacity="1"><g transform="translate(0.17975, 38.120855)"><g><path d="M 36.65625 -25.03125 L 30.125 0 L 22.75 0 L 18.75 -16.46875 L 14.625 0 L 7.234375 0 L 0.890625 -25.03125 L 7.421875 -25.03125 L 11.015625 -6.8125 L 15.46875 -25.03125 L 22.171875 -25.03125 L 26.453125 -6.8125 L 30.09375 -25.03125 Z M 36.65625 -25.03125 "/></g></g></g><g fill="#004aad" fill-opacity="1"><g transform="translate(37.691121, 38.120855)"><g><path d="M 8.3125 -16.578125 C 9.019531 -17.671875 9.910156 -18.53125 10.984375 -19.15625 C 12.054688 -19.789062 13.242188 -20.109375 14.546875 -20.109375 L 14.546875 -13.65625 L 12.875 -13.65625 C 11.351562 -13.65625 10.210938 -13.328125 9.453125 -12.671875 C 8.691406 -12.015625 8.3125 -10.867188 8.3125 -9.234375 L 8.3125 0 L 2.203125 0 L 2.203125 -19.890625 L 8.3125 -19.890625 Z M 8.3125 -16.578125 "/></g></g></g><g fill="#004aad" fill-opacity="1"><g transform="translate(52.952407, 38.120855)"><g><path d="M 5.28125 -21.96875 C 4.207031 -21.96875 3.332031 -22.28125 2.65625 -22.90625 C 1.976562 -23.539062 1.640625 -24.320312 1.640625 -25.25 C 1.640625 -26.195312 1.976562 -26.984375 2.65625 -27.609375 C 3.332031 -28.242188 4.207031 -28.5625 5.28125 -28.5625 C 6.320312 -28.5625 7.179688 -28.242188 7.859375 -27.609375 C 8.535156 -26.984375 8.875 -26.195312 8.875 -25.25 C 8.875 -24.320312 8.535156 -23.539062 7.859375 -22.90625 C 7.179688 -22.28125 6.320312 -21.96875 5.28125 -21.96875 Z M 8.3125 -19.890625 L 8.3125 0 L 2.203125 0 L 2.203125 -19.890625 Z M 8.3125 -19.890625 "/></g></g></g><g fill="#004aad" fill-opacity="1"><g transform="translate(63.47128, 38.120855)"><g><path d="M 13.296875 -5.171875 L 13.296875 0 L 10.203125 0 C 7.984375 0 6.253906 -0.539062 5.015625 -1.625 C 3.785156 -2.707031 3.171875 -4.472656 3.171875 -6.921875 L 3.171875 -14.828125 L 0.75 -14.828125 L 0.75 -19.890625 L 3.171875 -19.890625 L 3.171875 -24.75 L 9.265625 -24.75 L 9.265625 -19.890625 L 13.265625 -19.890625 L 13.265625 -14.828125 L 9.265625 -14.828125 L 9.265625 -6.84375 C 9.265625 -6.25 9.40625 -5.820312 9.6875 -5.5625 C 9.976562 -5.300781 10.457031 -5.171875 11.125 -5.171875 Z M 13.296875 -5.171875 "/></g></g></g><g fill="#004aad" fill-opacity="1"><g transform="translate(77.948099, 38.120855)"><g><path d="M 20.96875 -10.265625 C 20.96875 -9.691406 20.929688 -9.097656 20.859375 -8.484375 L 7.0625 -8.484375 C 7.15625 -7.242188 7.550781 -6.296875 8.25 -5.640625 C 8.957031 -4.992188 9.820312 -4.671875 10.84375 -4.671875 C 12.363281 -4.671875 13.421875 -5.3125 14.015625 -6.59375 L 20.5 -6.59375 C 20.164062 -5.289062 19.566406 -4.113281 18.703125 -3.0625 C 17.835938 -2.019531 16.75 -1.203125 15.4375 -0.609375 C 14.132812 -0.015625 12.671875 0.28125 11.046875 0.28125 C 9.097656 0.28125 7.363281 -0.128906 5.84375 -0.953125 C 4.320312 -1.785156 3.132812 -2.972656 2.28125 -4.515625 C 1.425781 -6.066406 1 -7.878906 1 -9.953125 C 1 -12.015625 1.421875 -13.816406 2.265625 -15.359375 C 3.109375 -16.910156 4.289062 -18.101562 5.8125 -18.9375 C 7.332031 -19.769531 9.078125 -20.1875 11.046875 -20.1875 C 12.972656 -20.1875 14.6875 -19.78125 16.1875 -18.96875 C 17.6875 -18.15625 18.859375 -17 19.703125 -15.5 C 20.546875 -14.007812 20.96875 -12.265625 20.96875 -10.265625 Z M 14.71875 -11.875 C 14.71875 -12.914062 14.363281 -13.742188 13.65625 -14.359375 C 12.945312 -14.984375 12.054688 -15.296875 10.984375 -15.296875 C 9.960938 -15.296875 9.097656 -15 8.390625 -14.40625 C 7.691406 -13.8125 7.257812 -12.96875 7.09375 -11.875 Z M 14.71875 -11.875 "/></g></g></g><g fill="#7ed957" fill-opacity="1"><g transform="translate(99.915581, 38.120855)"><g><path d="M 20.21875 -25.03125 L 20.21875 -20.140625 L 13.578125 -20.140625 L 13.578125 0 L 7.484375 0 L 7.484375 -20.140625 L 0.859375 -20.140625 L 0.859375 -25.03125 Z M 20.21875 -25.03125 "/></g></g></g><g fill="#7ed957" fill-opacity="1"><g transform="translate(120.988991, 38.120855)"><g><path d="M 11.265625 0.28125 C 9.316406 0.28125 7.5625 -0.128906 6 -0.953125 C 4.445312 -1.785156 3.222656 -2.972656 2.328125 -4.515625 C 1.441406 -6.066406 1 -7.878906 1 -9.953125 C 1 -11.992188 1.445312 -13.789062 2.34375 -15.34375 C 3.25 -16.90625 4.488281 -18.101562 6.0625 -18.9375 C 7.632812 -19.769531 9.394531 -20.1875 11.34375 -20.1875 C 13.289062 -20.1875 15.046875 -19.769531 16.609375 -18.9375 C 18.179688 -18.101562 19.414062 -16.90625 20.3125 -15.34375 C 21.21875 -13.789062 21.671875 -11.992188 21.671875 -9.953125 C 21.671875 -7.898438 21.210938 -6.09375 20.296875 -4.53125 C 19.390625 -2.976562 18.144531 -1.785156 16.5625 -0.953125 C 14.976562 -0.128906 13.210938 0.28125 11.265625 0.28125 Z M 11.265625 -4.984375 C 12.429688 -4.984375 13.421875 -5.410156 14.234375 -6.265625 C 15.054688 -7.128906 15.46875 -8.359375 15.46875 -9.953125 C 15.46875 -11.546875 15.066406 -12.769531 14.265625 -13.625 C 13.472656 -14.476562 12.5 -14.90625 11.34375 -14.90625 C 10.15625 -14.90625 9.164062 -14.484375 8.375 -13.640625 C 7.59375 -12.796875 7.203125 -11.566406 7.203125 -9.953125 C 7.203125 -8.359375 7.585938 -7.128906 8.359375 -6.265625 C 9.128906 -5.410156 10.097656 -4.984375 11.265625 -4.984375 Z M 11.265625 -4.984375 "/></g></g></g><g fill="#7ed957" fill-opacity="1"><g transform="translate(143.702622, 38.120855)"><g><path d="M 9.765625 -20.1875 C 11.171875 -20.1875 12.398438 -19.898438 13.453125 -19.328125 C 14.515625 -18.753906 15.332031 -18.003906 15.90625 -17.078125 L 15.90625 -19.890625 L 22 -19.890625 L 22 -0.03125 C 22 1.789062 21.632812 3.445312 20.90625 4.9375 C 20.1875 6.425781 19.082031 7.609375 17.59375 8.484375 C 16.113281 9.367188 14.265625 9.8125 12.046875 9.8125 C 9.097656 9.8125 6.707031 9.113281 4.875 7.71875 C 3.050781 6.332031 2.007812 4.445312 1.75 2.0625 L 7.765625 2.0625 C 7.960938 2.820312 8.414062 3.421875 9.125 3.859375 C 9.84375 4.304688 10.722656 4.53125 11.765625 4.53125 C 13.023438 4.53125 14.03125 4.164062 14.78125 3.4375 C 15.53125 2.71875 15.90625 1.5625 15.90625 -0.03125 L 15.90625 -2.859375 C 15.3125 -1.929688 14.488281 -1.175781 13.4375 -0.59375 C 12.394531 -0.0078125 11.171875 0.28125 9.765625 0.28125 C 8.128906 0.28125 6.644531 -0.140625 5.3125 -0.984375 C 3.976562 -1.828125 2.925781 -3.023438 2.15625 -4.578125 C 1.382812 -6.140625 1 -7.941406 1 -9.984375 C 1 -12.023438 1.382812 -13.816406 2.15625 -15.359375 C 2.925781 -16.910156 3.976562 -18.101562 5.3125 -18.9375 C 6.644531 -19.769531 8.128906 -20.1875 9.765625 -20.1875 Z M 15.90625 -9.953125 C 15.90625 -11.472656 15.484375 -12.671875 14.640625 -13.546875 C 13.796875 -14.429688 12.765625 -14.875 11.546875 -14.875 C 10.335938 -14.875 9.3125 -14.4375 8.46875 -13.5625 C 7.625 -12.695312 7.203125 -11.503906 7.203125 -9.984375 C 7.203125 -8.460938 7.625 -7.253906 8.46875 -6.359375 C 9.3125 -5.472656 10.335938 -5.03125 11.546875 -5.03125 C 12.765625 -5.03125 13.796875 -5.46875 14.640625 -6.34375 C 15.484375 -7.226562 15.90625 -8.429688 15.90625 -9.953125 Z M 15.90625 -9.953125 "/></g></g></g><g fill="#7ed957" fill-opacity="1"><g transform="translate(167.913861, 38.120855)"><g><path d="M 20.96875 -10.265625 C 20.96875 -9.691406 20.929688 -9.097656 20.859375 -8.484375 L 7.0625 -8.484375 C 7.15625 -7.242188 7.550781 -6.296875 8.25 -5.640625 C 8.957031 -4.992188 9.820312 -4.671875 10.84375 -4.671875 C 12.363281 -4.671875 13.421875 -5.3125 14.015625 -6.59375 L 20.5 -6.59375 C 20.164062 -5.289062 19.566406 -4.113281 18.703125 -3.0625 C 17.835938 -2.019531 16.75 -1.203125 15.4375 -0.609375 C 14.132812 -0.015625 12.671875 0.28125 11.046875 0.28125 C 9.097656 0.28125 7.363281 -0.128906 5.84375 -0.953125 C 4.320312 -1.785156 3.132812 -2.972656 2.28125 -4.515625 C 1.425781 -6.066406 1 -7.878906 1 -9.953125 C 1 -12.015625 1.421875 -13.816406 2.265625 -15.359375 C 3.109375 -16.910156 4.289062 -18.101562 5.8125 -18.9375 C 7.332031 -19.769531 9.078125 -20.1875 11.046875 -20.1875 C 12.972656 -20.1875 14.6875 -19.78125 16.1875 -18.96875 C 17.6875 -18.15625 18.859375 -17 19.703125 -15.5 C 20.546875 -14.007812 20.96875 -12.265625 20.96875 -10.265625 Z M 14.71875 -11.875 C 14.71875 -12.914062 14.363281 -13.742188 13.65625 -14.359375 C 12.945312 -14.984375 12.054688 -15.296875 10.984375 -15.296875 C 9.960938 -15.296875 9.097656 -15 8.390625 -14.40625 C 7.691406 -13.8125 7.257812 -12.96875 7.09375 -11.875 Z M 14.71875 -11.875 "/></g></g></g><g fill="#7ed957" fill-opacity="1"><g transform="translate(189.878703, 38.120855)"><g><path d="M 13.296875 -5.171875 L 13.296875 0 L 10.203125 0 C 7.984375 0 6.253906 -0.539062 5.015625 -1.625 C 3.785156 -2.707031 3.171875 -4.472656 3.171875 -6.921875 L 3.171875 -14.828125 L 0.75 -14.828125 L 0.75 -19.890625 L 3.171875 -19.890625 L 3.171875 -24.75 L 9.265625 -24.75 L 9.265625 -19.890625 L 13.265625 -19.890625 L 13.265625 -14.828125 L 9.265625 -14.828125 L 9.265625 -6.84375 C 9.265625 -6.25 9.40625 -5.820312 9.6875 -5.5625 C 9.976562 -5.300781 10.457031 -5.171875 11.125 -5.171875 Z M 13.296875 -5.171875 "/></g></g></g><g fill="#7ed957" fill-opacity="1"><g transform="translate(204.355522, 38.120855)"><g><path d="M 14.4375 -20.109375 C 16.71875 -20.109375 18.546875 -19.351562 19.921875 -17.84375 C 21.304688 -16.332031 22 -14.257812 22 -11.625 L 22 0 L 15.9375 0 L 15.9375 -10.796875 C 15.9375 -12.128906 15.59375 -13.164062 14.90625 -13.90625 C 14.21875 -14.644531 13.289062 -15.015625 12.125 -15.015625 C 10.957031 -15.015625 10.03125 -14.644531 9.34375 -13.90625 C 8.65625 -13.164062 8.3125 -12.128906 8.3125 -10.796875 L 8.3125 0 L 2.203125 0 L 2.203125 -26.390625 L 8.3125 -26.390625 L 8.3125 -17.21875 C 8.925781 -18.101562 9.765625 -18.804688 10.828125 -19.328125 C 11.898438 -19.847656 13.101562 -20.109375 14.4375 -20.109375 Z M 14.4375 -20.109375 "/></g></g></g><g fill="#7ed957" fill-opacity="1"><g transform="translate(228.388482, 38.120855)"><g><path d="M 20.96875 -10.265625 C 20.96875 -9.691406 20.929688 -9.097656 20.859375 -8.484375 L 7.0625 -8.484375 C 7.15625 -7.242188 7.550781 -6.296875 8.25 -5.640625 C 8.957031 -4.992188 9.820312 -4.671875 10.84375 -4.671875 C 12.363281 -4.671875 13.421875 -5.3125 14.015625 -6.59375 L 20.5 -6.59375 C 20.164062 -5.289062 19.566406 -4.113281 18.703125 -3.0625 C 17.835938 -2.019531 16.75 -1.203125 15.4375 -0.609375 C 14.132812 -0.015625 12.671875 0.28125 11.046875 0.28125 C 9.097656 0.28125 7.363281 -0.128906 5.84375 -0.953125 C 4.320312 -1.785156 3.132812 -2.972656 2.28125 -4.515625 C 1.425781 -6.066406 1 -7.878906 1 -9.953125 C 1 -12.015625 1.421875 -13.816406 2.265625 -15.359375 C 3.109375 -16.910156 4.289062 -18.101562 5.8125 -18.9375 C 7.332031 -19.769531 9.078125 -20.1875 11.046875 -20.1875 C 12.972656 -20.1875 14.6875 -19.78125 16.1875 -18.96875 C 17.6875 -18.15625 18.859375 -17 19.703125 -15.5 C 20.546875 -14.007812 20.96875 -12.265625 20.96875 -10.265625 Z M 14.71875 -11.875 C 14.71875 -12.914062 14.363281 -13.742188 13.65625 -14.359375 C 12.945312 -14.984375 12.054688 -15.296875 10.984375 -15.296875 C 9.960938 -15.296875 9.097656 -15 8.390625 -14.40625 C 7.691406 -13.8125 7.257812 -12.96875 7.09375 -11.875 Z M 14.71875 -11.875 "/></g></g></g><g fill="#7ed957" fill-opacity="1"><g transform="translate(250.353323, 38.120855)"><g><path d="M 8.3125 -16.578125 C 9.019531 -17.671875 9.910156 -18.53125 10.984375 -19.15625 C 12.054688 -19.789062 13.242188 -20.109375 14.546875 -20.109375 L 14.546875 -13.65625 L 12.875 -13.65625 C 11.351562 -13.65625 10.210938 -13.328125 9.453125 -12.671875 C 8.691406 -12.015625 8.3125 -10.867188 8.3125 -9.234375 L 8.3125 0 L 2.203125 0 L 2.203125 -19.890625 L 8.3125 -19.890625 Z M 8.3125 -16.578125 "/></g></g></g></g></g><g transform="matrix(1, 0, 0, 1, 23, 28)"><g clip-path="url(#bc11cc45f7)"><g clip-path="url(#62873cd676)"><g clip-path="url(#6f13666bdd)"><g transform="matrix(1, 0, 0, 1, 0, -0.000000000000007105)"><g clip-path="url(#0835ab9af5)"><g clip-path="url(#395bb0e5b0)"><g clip-path="url(#f6e186e08f)"><path fill="#7ed957" d="M 0.960938 0.324219 L 121.804688 0.324219 L 121.804688 58.367188 L 0.960938 58.367188 Z M 0.960938 0.324219 " fill-opacity="1" fill-rule="nonzero"/></g></g></g></g></g></g><g clip-path="url(#2d737bb80d)"><g transform="matrix(1, 0, 0, 1, 42, -0.000000000000007105)"><g clip-path="url(#884d869420)"><g clip-path="url(#7f5d200324)"><path fill="#6ab649" d="M 0.0195312 0.324219 L 38.699219 0.324219 L 38.699219 56.230469 L 0.0195312 56.230469 Z M 0.0195312 0.324219 " fill-opacity="1" fill-rule="nonzero"/></g></g></g></g><g clip-path="url(#fc921d936d)"><g clip-path="url(#137b420ecf)"><g transform="matrix(1, 0, 0, 1, 54, 11)"><g clip-path="url(#969f1b69d3)"><g clip-path="url(#f619786719)"><g clip-path="url(#ae527506e9)"><path fill="#5f9f44" d="M 0.339844 13.550781 L 0.339844 0.121094 L 4.277344 0.121094 L 4.277344 13.550781 Z M 0.339844 13.550781 " fill-opacity="1" fill-rule="nonzero"/></g></g></g></g></g></g><g clip-path="url(#40d24cef6d)"><g clip-path="url(#11ebda1202)"><g transform="matrix(1, 0, 0, 1, 64, 11)"><g clip-path="url(#5a7fd7f132)"><g clip-path="url(#5ec8e8c336)"><g clip-path="url(#6dd019d69c)"><path fill="#5f9f44" d="M 0.441406 13.550781 L 0.441406 0.121094 L 4.378906 0.121094 L 4.378906 13.550781 Z M 0.441406 13.550781 " fill-opacity="1" fill-rule="nonzero"/></g></g></g></g></g></g><g clip-path="url(#946aad39ac)"><g transform="matrix(1, 0, 0, 1, 60, 36)"><g clip-path="url(#b33d7420f5)"><g clip-path="url(#7e4e808c6e)"><path fill="#5f9f44" d="M 0.105469 0.640625 L 2.617188 0.640625 L 2.617188 20.238281 L 0.105469 20.238281 Z M 0.105469 0.640625 " fill-opacity="1" fill-rule="nonzero"/></g></g></g></g><g clip-path="url(#28edf4f898)"><g clip-path="url(#ef9e14c414)"><g transform="matrix(1, 0, 0, 1, 0, 23)"><g clip-path="url(#c4f48cf133)"><g clip-path="url(#91f7b4ac88)"><g clip-path="url(#676a6068eb)"><path fill="#0664aa" d="M 0.960938 0.742188 L 63.433594 0.742188 L 63.433594 63.214844 L 0.960938 63.214844 Z M 0.960938 0.742188 " fill-opacity="1" fill-rule="nonzero"/></g></g></g></g></g></g><g clip-path="url(#03a2da3b79)"><g clip-path="url(#914df8a380)"><g transform="matrix(1, 0, 0, 1, 59, 23)"><g clip-path="url(#81366cc5db)"><g clip-path="url(#626cb1827d)"><g clip-path="url(#ce799a43f0)"><path fill="#0664aa" d="M 62.753906 0.742188 L 62.753906 63.214844 L 0.28125 63.214844 L 0.28125 0.742188 Z M 62.753906 0.742188 " fill-opacity="1" fill-rule="nonzero"/></g></g></g></g></g></g><g clip-path="url(#63fbb1fc1c)"><g clip-path="url(#bb0f18f52c)"><g transform="matrix(1, 0, 0, 1, 42, 70)"><g clip-path="url(#911c6ce373)"><g clip-path="url(#f2e52a110d)"><g clip-path="url(#1d169ec269)"><path fill="#ffffff" d="M 0.996094 0.484375 L 37.492188 0.484375 L 37.492188 31.945312 L 0.996094 31.945312 Z M 0.996094 0.484375 " fill-opacity="1" fill-rule="nonzero"/></g></g></g></g></g></g><g clip-path="url(#f00bafb83f)"><g clip-path="url(#e149730046)"><g transform="matrix(1, 0, 0, 1, 40, 2)"><g clip-path="url(#1c9cc965b7)"><g clip-path="url(#6e43162089)"><g clip-path="url(#7269f923f4)"><path fill="#7ed957" d="M 5.277344 0.453125 L 5.277344 25.378906 L 0.957031 25.378906 L 0.957031 0.453125 Z M 5.277344 0.453125 " fill-opacity="1" fill-rule="nonzero"/></g></g></g></g></g></g><g clip-path="url(#8681d12830)"><g clip-path="url(#b1a329c788)"><g transform="matrix(1, 0, 0, 1, 77, 2)"><g clip-path="url(#68bceaa2c9)"><g clip-path="url(#d43ea62239)"><g clip-path="url(#9e29d37cb7)"><path fill="#7ed957" d="M 0.378906 25.371094 L 0.378906 0.441406 L 4.695312 0.441406 L 4.695312 25.371094 Z M 0.378906 25.371094 " fill-opacity="1" fill-rule="nonzero"/></g></g></g></g></g></g></g></g></svg>