<svg xmlns="http://www.w3.org/2000/svg" xmlns:xlink="http://www.w3.org/1999/xlink" width="222" zoomAndPan="magnify" viewBox="0 0 166.5 83.999999" height="112" preserveAspectRatio="xMidYMid meet" version="1.0"><defs><g/><clipPath id="296f586a8c"><rect x="0" width="144" y="0" height="28"/></clipPath><clipPath id="3a29b83b45"><path d="M 0.402344 0.5 L 65.621094 0.5 L 65.621094 31.824219 L 0.402344 31.824219 Z M 0.402344 0.5 " clip-rule="nonzero"/></clipPath><clipPath id="1ecbaf69f7"><path d="M 16.066406 0.5 L 49.9375 0.5 C 54.089844 0.5 58.074219 2.152344 61.011719 5.089844 C 63.949219 8.023438 65.597656 12.007812 65.597656 16.164062 C 65.597656 20.316406 63.949219 24.300781 61.011719 27.238281 C 58.074219 30.175781 54.089844 31.824219 49.9375 31.824219 L 16.066406 31.824219 C 11.910156 31.824219 7.929688 30.175781 4.992188 27.238281 C 2.054688 24.300781 0.402344 20.316406 0.402344 16.164062 C 0.402344 12.007812 2.054688 8.023438 4.992188 5.089844 C 7.929688 2.152344 11.910156 0.5 16.066406 0.5 Z M 16.066406 0.5 " clip-rule="nonzero"/></clipPath><clipPath id="71553ee1dc"><path d="M 0.402344 0.5 L 65.621094 0.5 L 65.621094 31.824219 L 0.402344 31.824219 Z M 0.402344 0.5 " clip-rule="nonzero"/></clipPath><clipPath id="e8a2e5eb8a"><path d="M 16.066406 0.5 L 49.9375 0.5 C 54.089844 0.5 58.074219 2.152344 61.011719 5.089844 C 63.949219 8.023438 65.597656 12.007812 65.597656 16.164062 C 65.597656 20.316406 63.949219 24.300781 61.011719 27.238281 C 58.074219 30.175781 54.089844 31.824219 49.9375 31.824219 L 16.066406 31.824219 C 11.910156 31.824219 7.929688 30.175781 4.992188 27.238281 C 2.054688 24.300781 0.402344 20.316406 0.402344 16.164062 C 0.402344 12.007812 2.054688 8.023438 4.992188 5.089844 C 7.929688 2.152344 11.910156 0.5 16.066406 0.5 Z M 16.066406 0.5 " clip-rule="nonzero"/></clipPath><clipPath id="7f68cf8bf0"><rect x="0" width="66" y="0" height="32"/></clipPath><clipPath id="705aa6aecf"><path d="M 22.5625 0.5 L 43.4375 0.5 L 43.4375 30.675781 L 22.5625 30.675781 Z M 22.5625 0.5 " clip-rule="nonzero"/></clipPath><clipPath id="b2ce6d85f6"><path d="M 0.5625 0.5 L 21.4375 0.5 L 21.4375 30.675781 L 0.5625 30.675781 Z M 0.5625 0.5 " clip-rule="nonzero"/></clipPath><clipPath id="b3335679dd"><rect x="0" width="22" y="0" height="31"/></clipPath><clipPath id="017921ce97"><path d="M 29.210938 6.316406 L 31.335938 6.316406 L 31.335938 13.574219 L 29.210938 13.574219 Z M 29.210938 6.316406 " clip-rule="nonzero"/></clipPath><clipPath id="8d8e1592d9"><path d="M 29.210938 7.386719 C 29.210938 6.800781 29.6875 6.324219 30.273438 6.324219 C 30.863281 6.324219 31.335938 6.800781 31.335938 7.386719 L 31.335938 12.511719 C 31.335938 13.097656 30.863281 13.574219 30.273438 13.574219 C 29.6875 13.574219 29.210938 13.097656 29.210938 12.511719 Z M 29.210938 7.386719 " clip-rule="nonzero"/></clipPath><clipPath id="b96c307494"><path d="M 0.210938 0.316406 L 2.335938 0.316406 L 2.335938 7.574219 L 0.210938 7.574219 Z M 0.210938 0.316406 " clip-rule="nonzero"/></clipPath><clipPath id="4ab8901b3a"><path d="M 0.210938 1.386719 C 0.210938 0.800781 0.6875 0.324219 1.273438 0.324219 C 1.863281 0.324219 2.335938 0.800781 2.335938 1.386719 L 2.335938 6.511719 C 2.335938 7.097656 1.863281 7.574219 1.273438 7.574219 C 0.6875 7.574219 0.210938 7.097656 0.210938 6.511719 Z M 0.210938 1.386719 " clip-rule="nonzero"/></clipPath><clipPath id="387e12f3ce"><rect x="0" width="3" y="0" height="8"/></clipPath><clipPath id="3753c06b23"><path d="M 34.664062 6.316406 L 36.789062 6.316406 L 36.789062 13.574219 L 34.664062 13.574219 Z M 34.664062 6.316406 " clip-rule="nonzero"/></clipPath><clipPath id="304c681d33"><path d="M 34.664062 7.386719 C 34.664062 6.800781 35.140625 6.324219 35.726562 6.324219 C 36.3125 6.324219 36.789062 6.800781 36.789062 7.386719 L 36.789062 12.511719 C 36.789062 13.097656 36.3125 13.574219 35.726562 13.574219 C 35.140625 13.574219 34.664062 13.097656 34.664062 12.511719 Z M 34.664062 7.386719 " clip-rule="nonzero"/></clipPath><clipPath id="b873dd8cbc"><path d="M 0.664062 0.316406 L 2.789062 0.316406 L 2.789062 7.574219 L 0.664062 7.574219 Z M 0.664062 0.316406 " clip-rule="nonzero"/></clipPath><clipPath id="d593ee32b0"><path d="M 0.664062 1.386719 C 0.664062 0.800781 1.140625 0.324219 1.726562 0.324219 C 2.3125 0.324219 2.789062 0.800781 2.789062 1.386719 L 2.789062 6.511719 C 2.789062 7.097656 2.3125 7.574219 1.726562 7.574219 C 1.140625 7.574219 0.664062 7.097656 0.664062 6.511719 Z M 0.664062 1.386719 " clip-rule="nonzero"/></clipPath><clipPath id="ff1d7880c3"><rect x="0" width="3" y="0" height="8"/></clipPath><clipPath id="1f2775d72e"><path d="M 32.324219 20.101562 L 33.679688 20.101562 L 33.679688 30.675781 L 32.324219 30.675781 Z M 32.324219 20.101562 " clip-rule="nonzero"/></clipPath><clipPath id="d9164b963e"><path d="M 0.324219 0.101562 L 1.679688 0.101562 L 1.679688 10.675781 L 0.324219 10.675781 Z M 0.324219 0.101562 " clip-rule="nonzero"/></clipPath><clipPath id="7694311433"><rect x="0" width="2" y="0" height="11"/></clipPath><clipPath id="0bb9f8d6a5"><path d="M 0.402344 13.140625 L 34.121094 13.140625 L 34.121094 46.855469 L 0.402344 46.855469 Z M 0.402344 13.140625 " clip-rule="nonzero"/></clipPath><clipPath id="1bb2ae455d"><path d="M 10.519531 13.140625 C 23.523438 13.140625 34.121094 23.734375 34.121094 36.742188 L 34.121094 46.855469 L 24.003906 46.855469 C 11 46.855469 0.402344 36.257812 0.402344 23.253906 L 0.402344 13.140625 Z M 10.519531 13.140625 " clip-rule="nonzero"/></clipPath><clipPath id="4c769a28a8"><path d="M 0.402344 0.140625 L 34.121094 0.140625 L 34.121094 33.855469 L 0.402344 33.855469 Z M 0.402344 0.140625 " clip-rule="nonzero"/></clipPath><clipPath id="3bd40e1a73"><path d="M 10.519531 0.140625 C 23.523438 0.140625 34.121094 10.734375 34.121094 23.742188 L 34.121094 33.855469 L 24.003906 33.855469 C 11 33.855469 0.402344 23.257812 0.402344 10.253906 L 0.402344 0.140625 Z M 10.519531 0.140625 " clip-rule="nonzero"/></clipPath><clipPath id="99b563fd24"><rect x="0" width="35" y="0" height="34"/></clipPath><clipPath id="02ece2d8f4"><path d="M 31.878906 13.140625 L 65.597656 13.140625 L 65.597656 46.855469 L 31.878906 46.855469 Z M 31.878906 13.140625 " clip-rule="nonzero"/></clipPath><clipPath id="0cb4499c10"><path d="M 65.597656 23.253906 C 65.597656 36.257812 55 46.855469 41.996094 46.855469 L 31.878906 46.855469 L 31.878906 36.742188 C 31.878906 23.734375 42.476562 13.140625 55.480469 13.140625 L 65.597656 13.140625 Z M 65.597656 23.253906 " clip-rule="nonzero"/></clipPath><clipPath id="36206a3ad8"><path d="M 0.878906 0.140625 L 34.597656 0.140625 L 34.597656 33.855469 L 0.878906 33.855469 Z M 0.878906 0.140625 " clip-rule="nonzero"/></clipPath><clipPath id="fdf7552d36"><path d="M 34.597656 10.253906 C 34.597656 23.257812 24 33.855469 10.996094 33.855469 L 0.878906 33.855469 L 0.878906 23.742188 C 0.878906 10.734375 11.476562 0.140625 24.480469 0.140625 L 34.597656 0.140625 Z M 34.597656 10.253906 " clip-rule="nonzero"/></clipPath><clipPath id="a5a0e499e1"><rect x="0" width="35" y="0" height="34"/></clipPath><clipPath id="f9ff0ab3ee"><path d="M 23.089844 38.300781 L 42.785156 38.300781 L 42.785156 55.34375 L 23.089844 55.34375 Z M 23.089844 38.300781 " clip-rule="nonzero"/></clipPath><clipPath id="ee4955758d"><path d="M 42.757812 50.410156 C 42.757812 53.136719 38.355469 55.34375 32.921875 55.34375 C 27.492188 55.34375 23.089844 53.136719 23.089844 50.410156 C 23.089844 47.683594 32.921875 38.367188 32.921875 38.367188 C 32.921875 38.367188 42.757812 47.683594 42.757812 50.410156 Z M 42.757812 50.410156 " clip-rule="nonzero"/></clipPath><clipPath id="bfa4f96b57"><path d="M 0.0898438 0.308594 L 19.785156 0.308594 L 19.785156 17.34375 L 0.0898438 17.34375 Z M 0.0898438 0.308594 " clip-rule="nonzero"/></clipPath><clipPath id="b91bfbee07"><path d="M 19.757812 12.410156 C 19.757812 15.136719 15.355469 17.34375 9.921875 17.34375 C 4.492188 17.34375 0.0898438 15.136719 0.0898438 12.410156 C 0.0898438 9.683594 9.921875 0.367188 9.921875 0.367188 C 9.921875 0.367188 19.757812 9.683594 19.757812 12.410156 Z M 19.757812 12.410156 " clip-rule="nonzero"/></clipPath><clipPath id="35392bd8a8"><rect x="0" width="20" y="0" height="18"/></clipPath><clipPath id="45ca56b13d"><path d="M 21.988281 1.648438 L 24.320312 1.648438 L 24.320312 15.101562 L 21.988281 15.101562 Z M 21.988281 1.648438 " clip-rule="nonzero"/></clipPath><clipPath id="45b44dcecb"><path d="M 21.988281 15.097656 C 23.257812 15.097656 24.320312 12.035156 24.320312 8.375 C 24.320312 4.710938 23.257812 1.648438 21.988281 1.648438 Z M 21.988281 15.097656 " clip-rule="nonzero"/></clipPath><clipPath id="5e3ff3b2d9"><path d="M 0.988281 0.648438 L 3.320312 0.648438 L 3.320312 14.101562 L 0.988281 14.101562 Z M 0.988281 0.648438 " clip-rule="nonzero"/></clipPath><clipPath id="15452f8305"><path d="M 0.988281 14.097656 C 2.257812 14.097656 3.320312 11.035156 3.320312 7.375 C 3.320312 3.710938 2.257812 0.648438 0.988281 0.648438 Z M 0.988281 14.097656 " clip-rule="nonzero"/></clipPath><clipPath id="9487ce5062"><rect x="0" width="4" y="0" height="15"/></clipPath><clipPath id="bab5f4f589"><path d="M 41.644531 1.644531 L 43.976562 1.644531 L 43.976562 15.097656 L 41.644531 15.097656 Z M 41.644531 1.644531 " clip-rule="nonzero"/></clipPath><clipPath id="0eec6eac50"><path d="M 43.976562 1.648438 C 42.707031 1.648438 41.644531 4.707031 41.644531 8.371094 C 41.644531 12.035156 42.707031 15.097656 43.976562 15.097656 Z M 43.976562 1.648438 " clip-rule="nonzero"/></clipPath><clipPath id="1e86467897"><path d="M 0.644531 0.644531 L 2.976562 0.644531 L 2.976562 14.097656 L 0.644531 14.097656 Z M 0.644531 0.644531 " clip-rule="nonzero"/></clipPath><clipPath id="7bcacedbf0"><path d="M 2.976562 0.648438 C 1.707031 0.648438 0.644531 3.707031 0.644531 7.371094 C 0.644531 11.035156 1.707031 14.097656 2.976562 14.097656 Z M 2.976562 0.648438 " clip-rule="nonzero"/></clipPath><clipPath id="bcfc222b90"><rect x="0" width="3" y="0" height="15"/></clipPath><clipPath id="6dd347e223"><rect x="0" width="66" y="0" height="56"/></clipPath></defs><g transform="matrix(1, 0, 0, 1, 11, 55)"><g clip-path="url(#296f586a8c)"><g fill="#004aad" fill-opacity="1"><g transform="translate(0.795364, 21.069636)"><g><path d="M 19.65625 -13.421875 L 16.15625 0 L 12.203125 0 L 10.0625 -8.828125 L 7.84375 0 L 3.875 0 L 0.484375 -13.421875 L 3.984375 -13.421875 L 5.90625 -3.65625 L 8.296875 -13.421875 L 11.890625 -13.421875 L 14.1875 -3.65625 L 16.140625 -13.421875 Z M 19.65625 -13.421875 "/></g></g></g><g fill="#004aad" fill-opacity="1"><g transform="translate(20.920212, 21.069636)"><g><path d="M 4.453125 -8.890625 C 4.835938 -9.472656 5.316406 -9.929688 5.890625 -10.265625 C 6.460938 -10.609375 7.097656 -10.78125 7.796875 -10.78125 L 7.796875 -7.328125 L 6.90625 -7.328125 C 6.09375 -7.328125 5.476562 -7.148438 5.0625 -6.796875 C 4.65625 -6.441406 4.453125 -5.828125 4.453125 -4.953125 L 4.453125 0 L 1.1875 0 L 1.1875 -10.671875 L 4.453125 -10.671875 Z M 4.453125 -8.890625 "/></g></g></g><g fill="#004aad" fill-opacity="1"><g transform="translate(29.107892, 21.069636)"><g><path d="M 2.828125 -11.78125 C 2.253906 -11.78125 1.785156 -11.945312 1.421875 -12.28125 C 1.054688 -12.625 0.875 -13.046875 0.875 -13.546875 C 0.875 -14.054688 1.054688 -14.476562 1.421875 -14.8125 C 1.785156 -15.144531 2.253906 -15.3125 2.828125 -15.3125 C 3.390625 -15.3125 3.851562 -15.144531 4.21875 -14.8125 C 4.582031 -14.476562 4.765625 -14.054688 4.765625 -13.546875 C 4.765625 -13.046875 4.582031 -12.625 4.21875 -12.28125 C 3.851562 -11.945312 3.390625 -11.78125 2.828125 -11.78125 Z M 4.453125 -10.671875 L 4.453125 0 L 1.1875 0 L 1.1875 -10.671875 Z M 4.453125 -10.671875 "/></g></g></g><g fill="#004aad" fill-opacity="1"><g transform="translate(34.751267, 21.069636)"><g><path d="M 7.140625 -2.765625 L 7.140625 0 L 5.46875 0 C 4.28125 0 3.351562 -0.285156 2.6875 -0.859375 C 2.03125 -1.441406 1.703125 -2.390625 1.703125 -3.703125 L 1.703125 -7.953125 L 0.40625 -7.953125 L 0.40625 -10.671875 L 1.703125 -10.671875 L 1.703125 -13.265625 L 4.96875 -13.265625 L 4.96875 -10.671875 L 7.109375 -10.671875 L 7.109375 -7.953125 L 4.96875 -7.953125 L 4.96875 -3.671875 C 4.96875 -3.347656 5.046875 -3.113281 5.203125 -2.96875 C 5.359375 -2.832031 5.613281 -2.765625 5.96875 -2.765625 Z M 7.140625 -2.765625 "/></g></g></g><g fill="#004aad" fill-opacity="1"><g transform="translate(42.51808, 21.069636)"><g><path d="M 11.25 -5.515625 C 11.25 -5.203125 11.226562 -4.878906 11.1875 -4.546875 L 3.78125 -4.546875 C 3.832031 -3.890625 4.046875 -3.382812 4.421875 -3.03125 C 4.796875 -2.675781 5.257812 -2.5 5.8125 -2.5 C 6.625 -2.5 7.191406 -2.84375 7.515625 -3.53125 L 11 -3.53125 C 10.820312 -2.832031 10.5 -2.203125 10.03125 -1.640625 C 9.5625 -1.078125 8.976562 -0.632812 8.28125 -0.3125 C 7.582031 0 6.796875 0.15625 5.921875 0.15625 C 4.878906 0.15625 3.945312 -0.0664062 3.125 -0.515625 C 2.3125 -0.960938 1.675781 -1.597656 1.21875 -2.421875 C 0.757812 -3.253906 0.53125 -4.222656 0.53125 -5.328125 C 0.53125 -6.441406 0.753906 -7.410156 1.203125 -8.234375 C 1.660156 -9.066406 2.296875 -9.707031 3.109375 -10.15625 C 3.929688 -10.601562 4.867188 -10.828125 5.921875 -10.828125 C 6.960938 -10.828125 7.882812 -10.609375 8.6875 -10.171875 C 9.488281 -9.742188 10.113281 -9.125 10.5625 -8.3125 C 11.019531 -7.507812 11.25 -6.578125 11.25 -5.515625 Z M 7.90625 -6.375 C 7.90625 -6.925781 7.710938 -7.367188 7.328125 -7.703125 C 6.941406 -8.035156 6.460938 -8.203125 5.890625 -8.203125 C 5.335938 -8.203125 4.875 -8.039062 4.5 -7.71875 C 4.125 -7.40625 3.894531 -6.957031 3.8125 -6.375 Z M 7.90625 -6.375 "/></g></g></g><g fill="#7ed957" fill-opacity="1"><g transform="translate(54.303633, 21.069636)"><g><path d="M 10.84375 -13.421875 L 10.84375 -10.8125 L 7.28125 -10.8125 L 7.28125 0 L 4.015625 0 L 4.015625 -10.8125 L 0.453125 -10.8125 L 0.453125 -13.421875 Z M 10.84375 -13.421875 "/></g></g></g><g fill="#7ed957" fill-opacity="1"><g transform="translate(65.609516, 21.069636)"><g><path d="M 6.046875 0.15625 C 4.992188 0.15625 4.050781 -0.0664062 3.21875 -0.515625 C 2.382812 -0.960938 1.726562 -1.597656 1.25 -2.421875 C 0.769531 -3.253906 0.53125 -4.222656 0.53125 -5.328125 C 0.53125 -6.429688 0.769531 -7.398438 1.25 -8.234375 C 1.738281 -9.066406 2.40625 -9.707031 3.25 -10.15625 C 4.09375 -10.601562 5.035156 -10.828125 6.078125 -10.828125 C 7.128906 -10.828125 8.070312 -10.601562 8.90625 -10.15625 C 9.75 -9.707031 10.410156 -9.066406 10.890625 -8.234375 C 11.378906 -7.398438 11.625 -6.429688 11.625 -5.328125 C 11.625 -4.234375 11.378906 -3.269531 10.890625 -2.4375 C 10.398438 -1.601562 9.726562 -0.960938 8.875 -0.515625 C 8.03125 -0.0664062 7.085938 0.15625 6.046875 0.15625 Z M 6.046875 -2.671875 C 6.671875 -2.671875 7.203125 -2.898438 7.640625 -3.359375 C 8.078125 -3.816406 8.296875 -4.472656 8.296875 -5.328125 C 8.296875 -6.191406 8.082031 -6.851562 7.65625 -7.3125 C 7.226562 -7.769531 6.703125 -8 6.078125 -8 C 5.441406 -8 4.910156 -7.769531 4.484375 -7.3125 C 4.066406 -6.863281 3.859375 -6.203125 3.859375 -5.328125 C 3.859375 -4.472656 4.066406 -3.816406 4.484375 -3.359375 C 4.898438 -2.898438 5.421875 -2.671875 6.046875 -2.671875 Z M 6.046875 -2.671875 "/></g></g></g><g fill="#7ed957" fill-opacity="1"><g transform="translate(77.795379, 21.069636)"><g><path d="M 5.234375 -10.828125 C 5.992188 -10.828125 6.65625 -10.671875 7.21875 -10.359375 C 7.789062 -10.054688 8.226562 -9.65625 8.53125 -9.15625 L 8.53125 -10.671875 L 11.796875 -10.671875 L 11.796875 -0.015625 C 11.796875 0.960938 11.601562 1.847656 11.21875 2.640625 C 10.832031 3.441406 10.238281 4.078125 9.4375 4.546875 C 8.644531 5.023438 7.65625 5.265625 6.46875 5.265625 C 4.882812 5.265625 3.597656 4.890625 2.609375 4.140625 C 1.628906 3.390625 1.070312 2.378906 0.9375 1.109375 L 4.171875 1.109375 C 4.273438 1.515625 4.515625 1.832031 4.890625 2.0625 C 5.273438 2.300781 5.75 2.421875 6.3125 2.421875 C 6.988281 2.421875 7.523438 2.226562 7.921875 1.84375 C 8.328125 1.457031 8.53125 0.835938 8.53125 -0.015625 L 8.53125 -1.53125 C 8.207031 -1.03125 7.765625 -0.625 7.203125 -0.3125 C 6.648438 0 5.992188 0.15625 5.234375 0.15625 C 4.359375 0.15625 3.5625 -0.0664062 2.84375 -0.515625 C 2.132812 -0.972656 1.570312 -1.617188 1.15625 -2.453125 C 0.738281 -3.285156 0.53125 -4.253906 0.53125 -5.359375 C 0.53125 -6.453125 0.738281 -7.410156 1.15625 -8.234375 C 1.570312 -9.066406 2.132812 -9.707031 2.84375 -10.15625 C 3.5625 -10.601562 4.359375 -10.828125 5.234375 -10.828125 Z M 8.53125 -5.328125 C 8.53125 -6.148438 8.300781 -6.796875 7.84375 -7.265625 C 7.394531 -7.734375 6.847656 -7.96875 6.203125 -7.96875 C 5.546875 -7.96875 4.988281 -7.734375 4.53125 -7.265625 C 4.082031 -6.804688 3.859375 -6.171875 3.859375 -5.359375 C 3.859375 -4.535156 4.082031 -3.882812 4.53125 -3.40625 C 4.988281 -2.9375 5.546875 -2.703125 6.203125 -2.703125 C 6.847656 -2.703125 7.394531 -2.9375 7.84375 -3.40625 C 8.300781 -3.875 8.53125 -4.515625 8.53125 -5.328125 Z M 8.53125 -5.328125 "/></g></g></g><g fill="#7ed957" fill-opacity="1"><g transform="translate(90.784707, 21.069636)"><g><path d="M 11.25 -5.515625 C 11.25 -5.203125 11.226562 -4.878906 11.1875 -4.546875 L 3.78125 -4.546875 C 3.832031 -3.890625 4.046875 -3.382812 4.421875 -3.03125 C 4.796875 -2.675781 5.257812 -2.5 5.8125 -2.5 C 6.625 -2.5 7.191406 -2.84375 7.515625 -3.53125 L 11 -3.53125 C 10.820312 -2.832031 10.5 -2.203125 10.03125 -1.640625 C 9.5625 -1.078125 8.976562 -0.632812 8.28125 -0.3125 C 7.582031 0 6.796875 0.15625 5.921875 0.15625 C 4.878906 0.15625 3.945312 -0.0664062 3.125 -0.515625 C 2.3125 -0.960938 1.675781 -1.597656 1.21875 -2.421875 C 0.757812 -3.253906 0.53125 -4.222656 0.53125 -5.328125 C 0.53125 -6.441406 0.753906 -7.410156 1.203125 -8.234375 C 1.660156 -9.066406 2.296875 -9.707031 3.109375 -10.15625 C 3.929688 -10.601562 4.867188 -10.828125 5.921875 -10.828125 C 6.960938 -10.828125 7.882812 -10.609375 8.6875 -10.171875 C 9.488281 -9.742188 10.113281 -9.125 10.5625 -8.3125 C 11.019531 -7.507812 11.25 -6.578125 11.25 -5.515625 Z M 7.90625 -6.375 C 7.90625 -6.925781 7.710938 -7.367188 7.328125 -7.703125 C 6.941406 -8.035156 6.460938 -8.203125 5.890625 -8.203125 C 5.335938 -8.203125 4.875 -8.039062 4.5 -7.71875 C 4.125 -7.40625 3.894531 -6.957031 3.8125 -6.375 Z M 7.90625 -6.375 "/></g></g></g><g fill="#7ed957" fill-opacity="1"><g transform="translate(102.568844, 21.069636)"><g><path d="M 7.140625 -2.765625 L 7.140625 0 L 5.46875 0 C 4.28125 0 3.351562 -0.285156 2.6875 -0.859375 C 2.03125 -1.441406 1.703125 -2.390625 1.703125 -3.703125 L 1.703125 -7.953125 L 0.40625 -7.953125 L 0.40625 -10.671875 L 1.703125 -10.671875 L 1.703125 -13.265625 L 4.96875 -13.265625 L 4.96875 -10.671875 L 7.109375 -10.671875 L 7.109375 -7.953125 L 4.96875 -7.953125 L 4.96875 -3.671875 C 4.96875 -3.347656 5.046875 -3.113281 5.203125 -2.96875 C 5.359375 -2.832031 5.613281 -2.765625 5.96875 -2.765625 Z M 7.140625 -2.765625 "/></g></g></g><g fill="#7ed957" fill-opacity="1"><g transform="translate(110.335657, 21.069636)"><g><path d="M 7.75 -10.78125 C 8.96875 -10.78125 9.945312 -10.375 10.6875 -9.5625 C 11.425781 -8.757812 11.796875 -7.648438 11.796875 -6.234375 L 11.796875 0 L 8.546875 0 L 8.546875 -5.796875 C 8.546875 -6.503906 8.359375 -7.054688 7.984375 -7.453125 C 7.617188 -7.847656 7.125 -8.046875 6.5 -8.046875 C 5.875 -8.046875 5.375 -7.847656 5 -7.453125 C 4.632812 -7.054688 4.453125 -6.503906 4.453125 -5.796875 L 4.453125 0 L 1.1875 0 L 1.1875 -14.15625 L 4.453125 -14.15625 L 4.453125 -9.234375 C 4.785156 -9.703125 5.238281 -10.078125 5.8125 -10.359375 C 6.382812 -10.640625 7.03125 -10.78125 7.75 -10.78125 Z M 7.75 -10.78125 "/></g></g></g><g fill="#7ed957" fill-opacity="1"><g transform="translate(123.229339, 21.069636)"><g><path d="M 11.25 -5.515625 C 11.25 -5.203125 11.226562 -4.878906 11.1875 -4.546875 L 3.78125 -4.546875 C 3.832031 -3.890625 4.046875 -3.382812 4.421875 -3.03125 C 4.796875 -2.675781 5.257812 -2.5 5.8125 -2.5 C 6.625 -2.5 7.191406 -2.84375 7.515625 -3.53125 L 11 -3.53125 C 10.820312 -2.832031 10.5 -2.203125 10.03125 -1.640625 C 9.5625 -1.078125 8.976562 -0.632812 8.28125 -0.3125 C 7.582031 0 6.796875 0.15625 5.921875 0.15625 C 4.878906 0.15625 3.945312 -0.0664062 3.125 -0.515625 C 2.3125 -0.960938 1.675781 -1.597656 1.21875 -2.421875 C 0.757812 -3.253906 0.53125 -4.222656 0.53125 -5.328125 C 0.53125 -6.441406 0.753906 -7.410156 1.203125 -8.234375 C 1.660156 -9.066406 2.296875 -9.707031 3.109375 -10.15625 C 3.929688 -10.601562 4.867188 -10.828125 5.921875 -10.828125 C 6.960938 -10.828125 7.882812 -10.609375 8.6875 -10.171875 C 9.488281 -9.742188 10.113281 -9.125 10.5625 -8.3125 C 11.019531 -7.507812 11.25 -6.578125 11.25 -5.515625 Z M 7.90625 -6.375 C 7.90625 -6.925781 7.710938 -7.367188 7.328125 -7.703125 C 6.941406 -8.035156 6.460938 -8.203125 5.890625 -8.203125 C 5.335938 -8.203125 4.875 -8.039062 4.5 -7.71875 C 4.125 -7.40625 3.894531 -6.957031 3.8125 -6.375 Z M 7.90625 -6.375 "/></g></g></g><g fill="#7ed957" fill-opacity="1"><g transform="translate(135.013475, 21.069636)"><g><path d="M 4.453125 -8.890625 C 4.835938 -9.472656 5.316406 -9.929688 5.890625 -10.265625 C 6.460938 -10.609375 7.097656 -10.78125 7.796875 -10.78125 L 7.796875 -7.328125 L 6.90625 -7.328125 C 6.09375 -7.328125 5.476562 -7.148438 5.0625 -6.796875 C 4.65625 -6.441406 4.453125 -5.828125 4.453125 -4.953125 L 4.453125 0 L 1.1875 0 L 1.1875 -10.671875 L 4.453125 -10.671875 Z M 4.453125 -8.890625 "/></g></g></g></g></g><g transform="matrix(1, 0, 0, 1, 50, 8)"><g clip-path="url(#6dd347e223)"><g clip-path="url(#3a29b83b45)"><g clip-path="url(#1ecbaf69f7)"><g transform="matrix(1, 0, 0, 1, 0, 0.000000000000001776)"><g clip-path="url(#7f68cf8bf0)"><g clip-path="url(#71553ee1dc)"><g clip-path="url(#e8a2e5eb8a)"><path fill="#7ed957" d="M 0.402344 0.5 L 65.621094 0.5 L 65.621094 31.824219 L 0.402344 31.824219 Z M 0.402344 0.5 " fill-opacity="1" fill-rule="nonzero"/></g></g></g></g></g></g><g clip-path="url(#705aa6aecf)"><g transform="matrix(1, 0, 0, 1, 22, 0.000000000000001776)"><g clip-path="url(#b3335679dd)"><g clip-path="url(#b2ce6d85f6)"><path fill="#6ab649" d="M 0.5625 0.5 L 21.4375 0.5 L 21.4375 30.671875 L 0.5625 30.671875 Z M 0.5625 0.5 " fill-opacity="1" fill-rule="nonzero"/></g></g></g></g><g clip-path="url(#017921ce97)"><g clip-path="url(#8d8e1592d9)"><g transform="matrix(1, 0, 0, 1, 29, 6)"><g clip-path="url(#387e12f3ce)"><g clip-path="url(#b96c307494)"><g clip-path="url(#4ab8901b3a)"><path fill="#5f9f44" d="M 0.210938 7.574219 L 0.210938 0.328125 L 2.335938 0.328125 L 2.335938 7.574219 Z M 0.210938 7.574219 " fill-opacity="1" fill-rule="nonzero"/></g></g></g></g></g></g><g clip-path="url(#3753c06b23)"><g clip-path="url(#304c681d33)"><g transform="matrix(1, 0, 0, 1, 34, 6)"><g clip-path="url(#ff1d7880c3)"><g clip-path="url(#b873dd8cbc)"><g clip-path="url(#d593ee32b0)"><path fill="#5f9f44" d="M 0.664062 7.574219 L 0.664062 0.328125 L 2.789062 0.328125 L 2.789062 7.574219 Z M 0.664062 7.574219 " fill-opacity="1" fill-rule="nonzero"/></g></g></g></g></g></g><g clip-path="url(#1f2775d72e)"><g transform="matrix(1, 0, 0, 1, 32, 20)"><g clip-path="url(#7694311433)"><g clip-path="url(#d9164b963e)"><path fill="#5f9f44" d="M 0.324219 0.101562 L 1.679688 0.101562 L 1.679688 10.679688 L 0.324219 10.679688 Z M 0.324219 0.101562 " fill-opacity="1" fill-rule="nonzero"/></g></g></g></g><g clip-path="url(#0bb9f8d6a5)"><g clip-path="url(#1bb2ae455d)"><g transform="matrix(1, 0, 0, 1, 0, 13)"><g clip-path="url(#99b563fd24)"><g clip-path="url(#4c769a28a8)"><g clip-path="url(#3bd40e1a73)"><path fill="#0664aa" d="M 0.402344 0.140625 L 34.121094 0.140625 L 34.121094 33.855469 L 0.402344 33.855469 Z M 0.402344 0.140625 " fill-opacity="1" fill-rule="nonzero"/></g></g></g></g></g></g><g clip-path="url(#02ece2d8f4)"><g clip-path="url(#0cb4499c10)"><g transform="matrix(1, 0, 0, 1, 31, 13)"><g clip-path="url(#a5a0e499e1)"><g clip-path="url(#36206a3ad8)"><g clip-path="url(#fdf7552d36)"><path fill="#0664aa" d="M 34.597656 0.140625 L 34.597656 33.855469 L 0.878906 33.855469 L 0.878906 0.140625 Z M 34.597656 0.140625 " fill-opacity="1" fill-rule="nonzero"/></g></g></g></g></g></g><g clip-path="url(#f9ff0ab3ee)"><g clip-path="url(#ee4955758d)"><g transform="matrix(1, 0, 0, 1, 23, 38)"><g clip-path="url(#35392bd8a8)"><g clip-path="url(#bfa4f96b57)"><g clip-path="url(#b91bfbee07)"><path fill="#ffffff" d="M 0.0898438 0.367188 L 19.785156 0.367188 L 19.785156 17.34375 L 0.0898438 17.34375 Z M 0.0898438 0.367188 " fill-opacity="1" fill-rule="nonzero"/></g></g></g></g></g></g><g clip-path="url(#45ca56b13d)"><g clip-path="url(#45b44dcecb)"><g transform="matrix(1, 0, 0, 1, 21, 1)"><g clip-path="url(#9487ce5062)"><g clip-path="url(#5e3ff3b2d9)"><g clip-path="url(#15452f8305)"><path fill="#7ed957" d="M 3.320312 0.648438 L 3.320312 14.101562 L 0.988281 14.101562 L 0.988281 0.648438 Z M 3.320312 0.648438 " fill-opacity="1" fill-rule="nonzero"/></g></g></g></g></g></g><g clip-path="url(#bab5f4f589)"><g clip-path="url(#0eec6eac50)"><g transform="matrix(1, 0, 0, 1, 41, 1)"><g clip-path="url(#bcfc222b90)"><g clip-path="url(#1e86467897)"><g clip-path="url(#7bcacedbf0)"><path fill="#7ed957" d="M 0.644531 14.097656 L 0.644531 0.644531 L 2.976562 0.644531 L 2.976562 14.097656 Z M 0.644531 14.097656 " fill-opacity="1" fill-rule="nonzero"/></g></g></g></g></g></g></g></g></svg>