<svg xmlns="http://www.w3.org/2000/svg" xmlns:xlink="http://www.w3.org/1999/xlink" width="378" zoomAndPan="magnify" viewBox="0 0 282.96 283.499989" height="378" preserveAspectRatio="xMidYMid meet" version="1.0"><defs><clipPath id="a190b7d34f"><path d="M 9.210938 8.980469 L 274.214844 8.980469 L 274.214844 273.984375 L 9.210938 273.984375 Z M 9.210938 8.980469 " clip-rule="nonzero"/></clipPath><clipPath id="13282c80c9"><path d="M 31.671875 8.980469 L 251.753906 8.980469 C 257.710938 8.980469 263.421875 11.347656 267.636719 15.558594 C 271.847656 19.773438 274.214844 25.484375 274.214844 31.441406 L 274.214844 251.523438 C 274.214844 257.480469 271.847656 263.195312 267.636719 267.40625 C 263.421875 271.617188 257.710938 273.984375 251.753906 273.984375 L 31.671875 273.984375 C 25.714844 273.984375 20 271.617188 15.789062 267.40625 C 11.578125 263.195312 9.210938 257.480469 9.210938 251.523438 L 9.210938 31.441406 C 9.210938 25.484375 11.578125 19.773438 15.789062 15.558594 C 20 11.347656 25.714844 8.980469 31.671875 8.980469 Z M 31.671875 8.980469 " clip-rule="nonzero"/></clipPath><clipPath id="981b923697"><path d="M 0.210938 0.980469 L 265.214844 0.980469 L 265.214844 265.984375 L 0.210938 265.984375 Z M 0.210938 0.980469 " clip-rule="nonzero"/></clipPath><clipPath id="ba6bd25ff6"><path d="M 22.671875 0.980469 L 242.753906 0.980469 C 248.710938 0.980469 254.421875 3.347656 258.636719 7.558594 C 262.847656 11.773438 265.214844 17.484375 265.214844 23.441406 L 265.214844 243.523438 C 265.214844 249.480469 262.847656 255.195312 258.636719 259.40625 C 254.421875 263.617188 248.710938 265.984375 242.753906 265.984375 L 22.671875 265.984375 C 16.714844 265.984375 11 263.617188 6.789062 259.40625 C 2.578125 255.195312 0.210938 249.480469 0.210938 243.523438 L 0.210938 23.441406 C 0.210938 17.484375 2.578125 11.773438 6.789062 7.558594 C 11 3.347656 16.714844 0.980469 22.671875 0.980469 Z M 22.671875 0.980469 " clip-rule="nonzero"/></clipPath><clipPath id="8c10b80c7f"><rect x="0" width="266" y="0" height="266"/></clipPath><clipPath id="2606d52f5d"><path d="M 9.210938 8.980469 L 274.242188 8.980469 L 274.242188 274 L 9.210938 274 Z M 9.210938 8.980469 " clip-rule="nonzero"/></clipPath><clipPath id="689fe6792a"><path d="M 31.671875 8.980469 L 251.746094 8.980469 C 257.703125 8.980469 263.417969 11.347656 267.628906 15.558594 C 271.839844 19.773438 274.207031 25.484375 274.207031 31.441406 L 274.207031 251.519531 C 274.207031 257.476562 271.839844 263.1875 267.628906 267.402344 C 263.417969 271.613281 257.703125 273.980469 251.746094 273.980469 L 31.671875 273.980469 C 25.714844 273.980469 20 271.613281 15.789062 267.402344 C 11.578125 263.1875 9.210938 257.476562 9.210938 251.519531 L 9.210938 31.441406 C 9.210938 25.484375 11.578125 19.773438 15.789062 15.558594 C 20 11.347656 25.714844 8.980469 31.671875 8.980469 Z M 31.671875 8.980469 " clip-rule="nonzero"/></clipPath><clipPath id="8e30be045b"><path d="M 43.023438 33.636719 L 101.535156 33.636719 L 101.535156 92.148438 L 43.023438 92.148438 Z M 43.023438 33.636719 " clip-rule="nonzero"/></clipPath><clipPath id="9ea7843bf3"><path d="M 72.277344 33.636719 C 56.121094 33.636719 43.023438 46.734375 43.023438 62.894531 C 43.023438 79.050781 56.121094 92.148438 72.277344 92.148438 C 88.4375 92.148438 101.535156 79.050781 101.535156 62.894531 C 101.535156 46.734375 88.4375 33.636719 72.277344 33.636719 Z M 72.277344 33.636719 " clip-rule="nonzero"/></clipPath><clipPath id="82881f16e2"><path d="M 0.0234375 0.636719 L 58.535156 0.636719 L 58.535156 59.148438 L 0.0234375 59.148438 Z M 0.0234375 0.636719 " clip-rule="nonzero"/></clipPath><clipPath id="4c26314ed2"><path d="M 29.277344 0.636719 C 13.121094 0.636719 0.0234375 13.734375 0.0234375 29.894531 C 0.0234375 46.050781 13.121094 59.148438 29.277344 59.148438 C 45.4375 59.148438 58.535156 46.050781 58.535156 29.894531 C 58.535156 13.734375 45.4375 0.636719 29.277344 0.636719 Z M 29.277344 0.636719 " clip-rule="nonzero"/></clipPath><clipPath id="d315eb6dea"><rect x="0" width="59" y="0" height="60"/></clipPath><clipPath id="eb01774639"><path d="M 43.023438 112.28125 L 101.535156 112.28125 L 101.535156 170.792969 L 43.023438 170.792969 Z M 43.023438 112.28125 " clip-rule="nonzero"/></clipPath><clipPath id="0b78389c0d"><path d="M 72.277344 112.28125 C 56.121094 112.28125 43.023438 125.378906 43.023438 141.539062 C 43.023438 157.695312 56.121094 170.792969 72.277344 170.792969 C 88.4375 170.792969 101.535156 157.695312 101.535156 141.539062 C 101.535156 125.378906 88.4375 112.28125 72.277344 112.28125 Z M 72.277344 112.28125 " clip-rule="nonzero"/></clipPath><clipPath id="486cb0f904"><path d="M 0.0234375 0.28125 L 58.535156 0.28125 L 58.535156 58.792969 L 0.0234375 58.792969 Z M 0.0234375 0.28125 " clip-rule="nonzero"/></clipPath><clipPath id="51553f673f"><path d="M 29.277344 0.28125 C 13.121094 0.28125 0.0234375 13.378906 0.0234375 29.539062 C 0.0234375 45.695312 13.121094 58.792969 29.277344 58.792969 C 45.4375 58.792969 58.535156 45.695312 58.535156 29.539062 C 58.535156 13.378906 45.4375 0.28125 29.277344 0.28125 Z M 29.277344 0.28125 " clip-rule="nonzero"/></clipPath><clipPath id="4263aa5e8d"><rect x="0" width="59" y="0" height="59"/></clipPath><clipPath id="4e92a4bb50"><path d="M 43.023438 190.925781 L 101.535156 190.925781 L 101.535156 249.4375 L 43.023438 249.4375 Z M 43.023438 190.925781 " clip-rule="nonzero"/></clipPath><clipPath id="c7a8e5c225"><path d="M 72.277344 190.925781 C 56.121094 190.925781 43.023438 204.023438 43.023438 220.179688 C 43.023438 236.339844 56.121094 249.4375 72.277344 249.4375 C 88.4375 249.4375 101.535156 236.339844 101.535156 220.179688 C 101.535156 204.023438 88.4375 190.925781 72.277344 190.925781 Z M 72.277344 190.925781 " clip-rule="nonzero"/></clipPath><clipPath id="836290a68b"><path d="M 0.0234375 0.925781 L 58.535156 0.925781 L 58.535156 59.4375 L 0.0234375 59.4375 Z M 0.0234375 0.925781 " clip-rule="nonzero"/></clipPath><clipPath id="d7e701e4f8"><path d="M 29.277344 0.925781 C 13.121094 0.925781 0.0234375 14.023438 0.0234375 30.179688 C 0.0234375 46.339844 13.121094 59.4375 29.277344 59.4375 C 45.4375 59.4375 58.535156 46.339844 58.535156 30.179688 C 58.535156 14.023438 45.4375 0.925781 29.277344 0.925781 Z M 29.277344 0.925781 " clip-rule="nonzero"/></clipPath><clipPath id="87e18f6469"><rect x="0" width="59" y="0" height="60"/></clipPath></defs><g clip-path="url(#a190b7d34f)"><g clip-path="url(#13282c80c9)"><g transform="matrix(1, 0, 0, 1, 9, 8)"><g clip-path="url(#8c10b80c7f)"><g clip-path="url(#981b923697)"><g clip-path="url(#ba6bd25ff6)"><path fill="#ffe788" d="M 0.210938 0.980469 L 265.214844 0.980469 L 265.214844 265.984375 L 0.210938 265.984375 Z M 0.210938 0.980469 " fill-opacity="1" fill-rule="nonzero"/></g></g></g></g></g></g><g clip-path="url(#2606d52f5d)"><g clip-path="url(#689fe6792a)"><path stroke-linecap="butt" transform="matrix(0.74868, 0, 0, 0.74868, 9.21045, 8.981347)" fill="none" stroke-linejoin="miter" d="M 30.001386 -0.00117251 L 323.951201 -0.00117251 C 331.907917 -0.00117251 339.541148 3.160644 345.165634 8.78513 C 350.790119 14.414833 353.951936 22.042846 353.951936 29.999563 L 353.951936 323.954595 C 353.951936 331.911311 350.790119 339.539325 345.165634 345.169028 C 339.541148 350.793513 331.907917 353.95533 323.951201 353.95533 L 30.001386 353.95533 C 22.044669 353.95533 14.411439 350.793513 8.786953 345.169028 C 3.162467 339.539325 0.00065084 331.911311 0.00065084 323.954595 L 0.00065084 29.999563 C 0.00065084 22.042846 3.162467 14.414833 8.786953 8.78513 C 14.411439 3.160644 22.044669 -0.00117251 30.001386 -0.00117251 Z M 30.001386 -0.00117251 " stroke="#0664aa" stroke-width="36" stroke-opacity="1" stroke-miterlimit="4"/></g></g><g clip-path="url(#8e30be045b)"><g clip-path="url(#9ea7843bf3)"><g transform="matrix(1, 0, 0, 1, 43, 33)"><g clip-path="url(#d315eb6dea)"><g clip-path="url(#82881f16e2)"><g clip-path="url(#4c26314ed2)"><path fill="#0664aa" d="M 0.0234375 0.636719 L 58.535156 0.636719 L 58.535156 59.148438 L 0.0234375 59.148438 Z M 0.0234375 0.636719 " fill-opacity="1" fill-rule="nonzero"/></g></g></g></g></g></g><g clip-path="url(#eb01774639)"><g clip-path="url(#0b78389c0d)"><g transform="matrix(1, 0, 0, 1, 43, 112)"><g clip-path="url(#4263aa5e8d)"><g clip-path="url(#486cb0f904)"><g clip-path="url(#51553f673f)"><path fill="#0664aa" d="M 0.0234375 0.28125 L 58.535156 0.28125 L 58.535156 58.792969 L 0.0234375 58.792969 Z M 0.0234375 0.28125 " fill-opacity="1" fill-rule="nonzero"/></g></g></g></g></g></g><g clip-path="url(#4e92a4bb50)"><g clip-path="url(#c7a8e5c225)"><g transform="matrix(1, 0, 0, 1, 43, 190)"><g clip-path="url(#87e18f6469)"><g clip-path="url(#836290a68b)"><g clip-path="url(#d7e701e4f8)"><path fill="#0664aa" d="M 0.0234375 0.925781 L 58.535156 0.925781 L 58.535156 59.4375 L 0.0234375 59.4375 Z M 0.0234375 0.925781 " fill-opacity="1" fill-rule="nonzero"/></g></g></g></g></g></g><path stroke-linecap="round" transform="matrix(0.74868, 0, 0, 0.74868, 112.569474, 58.401214)" fill="none" stroke-linejoin="miter" d="M 6.001268 6.001656 L 169.695726 6.001656 " stroke="#0664aa" stroke-width="12" stroke-opacity="1" stroke-miterlimit="4"/><path stroke-linecap="round" transform="matrix(0.74868, 0, 0, 0.74868, 112.569474, 137.028941)" fill="none" stroke-linejoin="miter" d="M 6.001268 5.998014 L 169.695726 5.998014 " stroke="#0664aa" stroke-width="12" stroke-opacity="1" stroke-miterlimit="4"/><path stroke-linecap="round" transform="matrix(0.74868, 0, 0, 0.74868, 112.569474, 215.65655)" fill="none" stroke-linejoin="miter" d="M 6.001268 5.999747 L 169.695726 5.999747 " stroke="#0664aa" stroke-width="12" stroke-opacity="1" stroke-miterlimit="4"/></svg>