<svg xmlns="http://www.w3.org/2000/svg" xmlns:xlink="http://www.w3.org/1999/xlink" width="378" zoomAndPan="magnify" viewBox="0 0 282.96 283.499989" height="378" preserveAspectRatio="xMidYMid meet" version="1.0"><defs><g/><clipPath id="053fb31ca7"><path d="M 9.210938 8.980469 L 274.214844 8.980469 L 274.214844 273.984375 L 9.210938 273.984375 Z M 9.210938 8.980469 " clip-rule="nonzero"/></clipPath><clipPath id="da77330b16"><path d="M 31.671875 8.980469 L 251.753906 8.980469 C 257.710938 8.980469 263.421875 11.347656 267.636719 15.558594 C 271.847656 19.773438 274.214844 25.484375 274.214844 31.441406 L 274.214844 251.523438 C 274.214844 257.480469 271.847656 263.195312 267.636719 267.40625 C 263.421875 271.617188 257.710938 273.984375 251.753906 273.984375 L 31.671875 273.984375 C 25.714844 273.984375 20 271.617188 15.789062 267.40625 C 11.578125 263.195312 9.210938 257.480469 9.210938 251.523438 L 9.210938 31.441406 C 9.210938 25.484375 11.578125 19.773438 15.789062 15.558594 C 20 11.347656 25.714844 8.980469 31.671875 8.980469 Z M 31.671875 8.980469 " clip-rule="nonzero"/></clipPath><clipPath id="d020bc8769"><path d="M 0.210938 0.980469 L 265.214844 0.980469 L 265.214844 265.984375 L 0.210938 265.984375 Z M 0.210938 0.980469 " clip-rule="nonzero"/></clipPath><clipPath id="fa10ca7296"><path d="M 22.671875 0.980469 L 242.753906 0.980469 C 248.710938 0.980469 254.421875 3.347656 258.636719 7.558594 C 262.847656 11.773438 265.214844 17.484375 265.214844 23.441406 L 265.214844 243.523438 C 265.214844 249.480469 262.847656 255.195312 258.636719 259.40625 C 254.421875 263.617188 248.710938 265.984375 242.753906 265.984375 L 22.671875 265.984375 C 16.714844 265.984375 11 263.617188 6.789062 259.40625 C 2.578125 255.195312 0.210938 249.480469 0.210938 243.523438 L 0.210938 23.441406 C 0.210938 17.484375 2.578125 11.773438 6.789062 7.558594 C 11 3.347656 16.714844 0.980469 22.671875 0.980469 Z M 22.671875 0.980469 " clip-rule="nonzero"/></clipPath><clipPath id="d0582c418e"><rect x="0" width="266" y="0" height="266"/></clipPath><clipPath id="5f88c09e45"><path d="M 9.210938 8.980469 L 274.242188 8.980469 L 274.242188 274 L 9.210938 274 Z M 9.210938 8.980469 " clip-rule="nonzero"/></clipPath><clipPath id="a45a91094c"><path d="M 31.671875 8.980469 L 251.746094 8.980469 C 257.703125 8.980469 263.417969 11.347656 267.628906 15.558594 C 271.839844 19.773438 274.207031 25.484375 274.207031 31.441406 L 274.207031 251.519531 C 274.207031 257.476562 271.839844 263.1875 267.628906 267.402344 C 263.417969 271.613281 257.703125 273.980469 251.746094 273.980469 L 31.671875 273.980469 C 25.714844 273.980469 20 271.613281 15.789062 267.402344 C 11.578125 263.1875 9.210938 257.476562 9.210938 251.519531 L 9.210938 31.441406 C 9.210938 25.484375 11.578125 19.773438 15.789062 15.558594 C 20 11.347656 25.714844 8.980469 31.671875 8.980469 Z M 31.671875 8.980469 " clip-rule="nonzero"/></clipPath><clipPath id="7410b57b41"><path d="M 147 165.472656 L 234.574219 165.472656 L 234.574219 217.132812 L 147 217.132812 Z M 147 165.472656 " clip-rule="nonzero"/></clipPath><clipPath id="5dfd0efc60"><path d="M 2 27 L 97.820312 27 L 97.820312 144 L 2 144 Z M 2 27 " clip-rule="nonzero"/></clipPath><clipPath id="eb9bd72547"><rect x="0" width="98" y="0" height="191"/></clipPath></defs><g clip-path="url(#053fb31ca7)"><g clip-path="url(#da77330b16)"><g transform="matrix(1, 0, 0, 1, 9, 8)"><g clip-path="url(#d0582c418e)"><g clip-path="url(#d020bc8769)"><g clip-path="url(#fa10ca7296)"><path fill="#ffe788" d="M 0.210938 0.980469 L 265.214844 0.980469 L 265.214844 265.984375 L 0.210938 265.984375 Z M 0.210938 0.980469 " fill-opacity="1" fill-rule="nonzero"/></g></g></g></g></g></g><g clip-path="url(#5f88c09e45)"><g clip-path="url(#a45a91094c)"><path stroke-linecap="butt" transform="matrix(0.74868, 0, 0, 0.74868, 9.21045, 8.981317)" fill="none" stroke-linejoin="miter" d="M 30.001386 -0.00113347 L 323.951201 -0.00113347 C 331.907917 -0.00113347 339.541148 3.160683 345.165634 8.785169 C 350.790119 14.414872 353.951936 22.042885 353.951936 29.999602 L 353.951936 323.954634 C 353.951936 331.911351 350.790119 339.539364 345.165634 345.169067 C 339.541148 350.793553 331.907917 353.955369 323.951201 353.955369 L 30.001386 353.955369 C 22.044669 353.955369 14.411439 350.793553 8.786953 345.169067 C 3.162467 339.539364 0.00065084 331.911351 0.00065084 323.954634 L 0.00065084 29.999602 C 0.00065084 22.042885 3.162467 14.414872 8.786953 8.785169 C 14.411439 3.160683 22.044669 -0.00113347 30.001386 -0.00113347 Z M 30.001386 -0.00113347 " stroke="#0664aa" stroke-width="36" stroke-opacity="1" stroke-miterlimit="4"/></g></g><g clip-path="url(#7410b57b41)"><path fill="#0664aa" d="M 226.417969 165.542969 L 234.511719 173.632812 L 190.855469 217.289062 L 147.203125 173.632812 L 155.292969 165.542969 L 190.855469 201 Z M 226.417969 165.542969 " fill-opacity="1" fill-rule="nonzero"/></g><g transform="matrix(1, 0, 0, 1, 44, 74)"><g clip-path="url(#eb9bd72547)"><g clip-path="url(#5dfd0efc60)"><g fill="#0664aa" fill-opacity="1"><g transform="translate(0.932838, 142.908008)"><g><path d="M 17.265625 -4.75 C 16.421875 -2.632812 14.96875 -1.15625 12.90625 -0.3125 C 10.84375 0.53125 8.78125 0.53125 6.71875 -0.3125 C 4.664062 -1.15625 3.21875 -2.609375 2.375 -4.671875 C 1.53125 -6.734375 1.53125 -8.765625 2.375 -10.765625 C 4.488281 -15.941406 7.257812 -23.804688 10.6875 -34.359375 C 14.125 -44.921875 16.582031 -52.050781 18.0625 -55.75 C 18.800781 -57.863281 21.804688 -65.363281 27.078125 -78.25 C 32.046875 -90.914062 35.898438 -101.207031 38.640625 -109.125 C 39.378906 -111.238281 40.722656 -112.796875 42.671875 -113.796875 C 44.628906 -114.804688 46.664062 -114.941406 48.78125 -114.203125 C 49.726562 -113.878906 50.570312 -113.40625 51.3125 -112.78125 C 53.425781 -112.039062 54.90625 -110.613281 55.75 -108.5 L 95.1875 -11.09375 C 96.03125 -8.976562 96.03125 -6.890625 95.1875 -4.828125 C 94.34375 -2.773438 92.890625 -1.320312 90.828125 -0.46875 C 88.773438 0.375 86.71875 0.375 84.65625 -0.46875 C 82.601562 -1.320312 81.148438 -2.75 80.296875 -4.75 L 68.421875 -35.484375 C 64.097656 -35.265625 61.671875 -35.15625 61.140625 -35.15625 C 46.878906 -34.632812 35.6875 -34.375 27.5625 -34.375 C 22.8125 -20.4375 19.378906 -10.5625 17.265625 -4.75 Z M 33.421875 -50.53125 C 42.285156 -50.632812 51.789062 -50.84375 61.9375 -51.15625 L 47.515625 -86 Z M 33.421875 -50.53125 "/></g></g></g></g></g></g></svg>