<svg xmlns="http://www.w3.org/2000/svg" xmlns:xlink="http://www.w3.org/1999/xlink" width="378" zoomAndPan="magnify" viewBox="0 0 282.96 283.499989" height="378" preserveAspectRatio="xMidYMid meet" version="1.0"><defs><clipPath id="23dc20e586"><path d="M 9.210938 8.980469 L 274.214844 8.980469 L 274.214844 273.984375 L 9.210938 273.984375 Z M 9.210938 8.980469 " clip-rule="nonzero"/></clipPath><clipPath id="071a5a6737"><path d="M 31.671875 8.980469 L 251.753906 8.980469 C 257.710938 8.980469 263.421875 11.347656 267.636719 15.558594 C 271.847656 19.773438 274.214844 25.484375 274.214844 31.441406 L 274.214844 251.523438 C 274.214844 257.480469 271.847656 263.195312 267.636719 267.40625 C 263.421875 271.617188 257.710938 273.984375 251.753906 273.984375 L 31.671875 273.984375 C 25.714844 273.984375 20 271.617188 15.789062 267.40625 C 11.578125 263.195312 9.210938 257.480469 9.210938 251.523438 L 9.210938 31.441406 C 9.210938 25.484375 11.578125 19.773438 15.789062 15.558594 C 20 11.347656 25.714844 8.980469 31.671875 8.980469 Z M 31.671875 8.980469 " clip-rule="nonzero"/></clipPath><clipPath id="87ac625334"><path d="M 0.210938 0.980469 L 265.214844 0.980469 L 265.214844 265.984375 L 0.210938 265.984375 Z M 0.210938 0.980469 " clip-rule="nonzero"/></clipPath><clipPath id="9b250ed57f"><path d="M 22.671875 0.980469 L 242.753906 0.980469 C 248.710938 0.980469 254.421875 3.347656 258.636719 7.558594 C 262.847656 11.773438 265.214844 17.484375 265.214844 23.441406 L 265.214844 243.523438 C 265.214844 249.480469 262.847656 255.195312 258.636719 259.40625 C 254.421875 263.617188 248.710938 265.984375 242.753906 265.984375 L 22.671875 265.984375 C 16.714844 265.984375 11 263.617188 6.789062 259.40625 C 2.578125 255.195312 0.210938 249.480469 0.210938 243.523438 L 0.210938 23.441406 C 0.210938 17.484375 2.578125 11.773438 6.789062 7.558594 C 11 3.347656 16.714844 0.980469 22.671875 0.980469 Z M 22.671875 0.980469 " clip-rule="nonzero"/></clipPath><clipPath id="751ad7682a"><rect x="0" width="266" y="0" height="266"/></clipPath><clipPath id="cd849d73cc"><path d="M 9.210938 8.980469 L 274.242188 8.980469 L 274.242188 274 L 9.210938 274 Z M 9.210938 8.980469 " clip-rule="nonzero"/></clipPath><clipPath id="8284c433be"><path d="M 31.671875 8.980469 L 251.746094 8.980469 C 257.703125 8.980469 263.417969 11.347656 267.628906 15.558594 C 271.839844 19.773438 274.207031 25.484375 274.207031 31.441406 L 274.207031 251.519531 C 274.207031 257.476562 271.839844 263.1875 267.628906 267.402344 C 263.417969 271.613281 257.703125 273.980469 251.746094 273.980469 L 31.671875 273.980469 C 25.714844 273.980469 20 271.613281 15.789062 267.402344 C 11.578125 263.1875 9.210938 257.476562 9.210938 251.519531 L 9.210938 31.441406 C 9.210938 25.484375 11.578125 19.773438 15.789062 15.558594 C 20 11.347656 25.714844 8.980469 31.671875 8.980469 Z M 31.671875 8.980469 " clip-rule="nonzero"/></clipPath><clipPath id="d5166fb2fd"><path d="M 59.601562 48.953125 L 223.8125 48.953125 L 223.8125 89.515625 L 59.601562 89.515625 Z M 59.601562 48.953125 " clip-rule="nonzero"/></clipPath><clipPath id="1a96e3f5c2"><path d="M 0.601562 0.953125 L 164.8125 0.953125 L 164.8125 41.515625 L 0.601562 41.515625 Z M 0.601562 0.953125 " clip-rule="nonzero"/></clipPath><clipPath id="fc4cfcb164"><rect x="0" width="165" y="0" height="42"/></clipPath><clipPath id="6b14564758"><path d="M 59.601562 121.199219 L 223.8125 121.199219 L 223.8125 161.761719 L 59.601562 161.761719 Z M 59.601562 121.199219 " clip-rule="nonzero"/></clipPath><clipPath id="e7d156c7f4"><path d="M 0.601562 0.199219 L 164.8125 0.199219 L 164.8125 40.761719 L 0.601562 40.761719 Z M 0.601562 0.199219 " clip-rule="nonzero"/></clipPath><clipPath id="f5d03887a1"><rect x="0" width="165" y="0" height="41"/></clipPath><clipPath id="2034e3073c"><path d="M 59.601562 193.449219 L 223.8125 193.449219 L 223.8125 234.011719 L 59.601562 234.011719 Z M 59.601562 193.449219 " clip-rule="nonzero"/></clipPath><clipPath id="fecfbfa94a"><path d="M 0.601562 0.449219 L 164.8125 0.449219 L 164.8125 41.011719 L 0.601562 41.011719 Z M 0.601562 0.449219 " clip-rule="nonzero"/></clipPath><clipPath id="be7577501a"><rect x="0" width="165" y="0" height="42"/></clipPath></defs><g clip-path="url(#23dc20e586)"><g clip-path="url(#071a5a6737)"><g transform="matrix(1, 0, 0, 1, 9, 8)"><g clip-path="url(#751ad7682a)"><g clip-path="url(#87ac625334)"><g clip-path="url(#9b250ed57f)"><path fill="#ffe788" d="M 0.210938 0.980469 L 265.214844 0.980469 L 265.214844 265.984375 L 0.210938 265.984375 Z M 0.210938 0.980469 " fill-opacity="1" fill-rule="nonzero"/></g></g></g></g></g></g><g clip-path="url(#cd849d73cc)"><g clip-path="url(#8284c433be)"><path stroke-linecap="butt" transform="matrix(0.74868, 0, 0, 0.74868, 9.21045, 8.981325)" fill="none" stroke-linejoin="miter" d="M 30.001386 -0.00114339 L 323.951201 -0.00114339 C 331.907917 -0.00114339 339.541148 3.160673 345.165634 8.785159 C 350.790119 14.414862 353.951936 22.042875 353.951936 29.999592 L 353.951936 323.954624 C 353.951936 331.911341 350.790119 339.539354 345.165634 345.169057 C 339.541148 350.793543 331.907917 353.955359 323.951201 353.955359 L 30.001386 353.955359 C 22.044669 353.955359 14.411439 350.793543 8.786953 345.169057 C 3.162467 339.539354 0.00065084 331.911341 0.00065084 323.954624 L 0.00065084 29.999592 C 0.00065084 22.042875 3.162467 14.414862 8.786953 8.785159 C 14.411439 3.160673 22.044669 -0.00114339 30.001386 -0.00114339 Z M 30.001386 -0.00114339 " stroke="#0664aa" stroke-width="36" stroke-opacity="1" stroke-miterlimit="4"/></g></g><g clip-path="url(#d5166fb2fd)"><g transform="matrix(1, 0, 0, 1, 59, 48)"><g clip-path="url(#fc4cfcb164)"><g clip-path="url(#1a96e3f5c2)"><path fill="#0664aa" d="M 164.8125 0.953125 L 164.8125 41.515625 L 0.664062 41.515625 L 0.664062 0.953125 Z M 164.8125 0.953125 " fill-opacity="1" fill-rule="nonzero"/></g></g></g></g><g clip-path="url(#6b14564758)"><g transform="matrix(1, 0, 0, 1, 59, 121)"><g clip-path="url(#f5d03887a1)"><g clip-path="url(#e7d156c7f4)"><path fill="#0664aa" d="M 164.8125 0.199219 L 164.8125 40.761719 L 0.664062 40.761719 L 0.664062 0.199219 Z M 164.8125 0.199219 " fill-opacity="1" fill-rule="nonzero"/></g></g></g></g><g clip-path="url(#2034e3073c)"><g transform="matrix(1, 0, 0, 1, 59, 193)"><g clip-path="url(#be7577501a)"><g clip-path="url(#fecfbfa94a)"><path fill="#0664aa" d="M 164.8125 0.449219 L 164.8125 41.011719 L 0.664062 41.011719 L 0.664062 0.449219 Z M 164.8125 0.449219 " fill-opacity="1" fill-rule="nonzero"/></g></g></g></g></svg>