<svg xmlns="http://www.w3.org/2000/svg" xmlns:xlink="http://www.w3.org/1999/xlink" width="378" zoomAndPan="magnify" viewBox="0 0 282.96 283.499989" height="378" preserveAspectRatio="xMidYMid meet" version="1.0"><defs><clipPath id="beeeb4b299"><path d="M 9.210938 8.980469 L 274.214844 8.980469 L 274.214844 273.984375 L 9.210938 273.984375 Z M 9.210938 8.980469 " clip-rule="nonzero"/></clipPath><clipPath id="4ad96892c3"><path d="M 31.671875 8.980469 L 251.753906 8.980469 C 257.710938 8.980469 263.421875 11.347656 267.636719 15.558594 C 271.847656 19.773438 274.214844 25.484375 274.214844 31.441406 L 274.214844 251.523438 C 274.214844 257.480469 271.847656 263.195312 267.636719 267.40625 C 263.421875 271.617188 257.710938 273.984375 251.753906 273.984375 L 31.671875 273.984375 C 25.714844 273.984375 20 271.617188 15.789062 267.40625 C 11.578125 263.195312 9.210938 257.480469 9.210938 251.523438 L 9.210938 31.441406 C 9.210938 25.484375 11.578125 19.773438 15.789062 15.558594 C 20 11.347656 25.714844 8.980469 31.671875 8.980469 Z M 31.671875 8.980469 " clip-rule="nonzero"/></clipPath><clipPath id="7397f84d58"><path d="M 0.210938 0.980469 L 265.214844 0.980469 L 265.214844 265.984375 L 0.210938 265.984375 Z M 0.210938 0.980469 " clip-rule="nonzero"/></clipPath><clipPath id="5592dbc3ca"><path d="M 22.671875 0.980469 L 242.753906 0.980469 C 248.710938 0.980469 254.421875 3.347656 258.636719 7.558594 C 262.847656 11.773438 265.214844 17.484375 265.214844 23.441406 L 265.214844 243.523438 C 265.214844 249.480469 262.847656 255.195312 258.636719 259.40625 C 254.421875 263.617188 248.710938 265.984375 242.753906 265.984375 L 22.671875 265.984375 C 16.714844 265.984375 11 263.617188 6.789062 259.40625 C 2.578125 255.195312 0.210938 249.480469 0.210938 243.523438 L 0.210938 23.441406 C 0.210938 17.484375 2.578125 11.773438 6.789062 7.558594 C 11 3.347656 16.714844 0.980469 22.671875 0.980469 Z M 22.671875 0.980469 " clip-rule="nonzero"/></clipPath><clipPath id="a1a87fe150"><rect x="0" width="266" y="0" height="266"/></clipPath><clipPath id="0f9fd35a05"><path d="M 9.210938 8.980469 L 274.242188 8.980469 L 274.242188 274 L 9.210938 274 Z M 9.210938 8.980469 " clip-rule="nonzero"/></clipPath><clipPath id="875ae880bd"><path d="M 31.671875 8.980469 L 251.746094 8.980469 C 257.703125 8.980469 263.417969 11.347656 267.628906 15.558594 C 271.839844 19.773438 274.207031 25.484375 274.207031 31.441406 L 274.207031 251.519531 C 274.207031 257.476562 271.839844 263.1875 267.628906 267.402344 C 263.417969 271.613281 257.703125 273.980469 251.746094 273.980469 L 31.671875 273.980469 C 25.714844 273.980469 20 271.613281 15.789062 267.402344 C 11.578125 263.1875 9.210938 257.476562 9.210938 251.519531 L 9.210938 31.441406 C 9.210938 25.484375 11.578125 19.773438 15.789062 15.558594 C 20 11.347656 25.714844 8.980469 31.671875 8.980469 Z M 31.671875 8.980469 " clip-rule="nonzero"/></clipPath><clipPath id="64a6383b10"><path d="M 56.683594 44.308594 L 226.734375 44.308594 L 226.734375 238.9375 L 56.683594 238.9375 Z M 56.683594 44.308594 " clip-rule="nonzero"/></clipPath><clipPath id="e664aa1392"><path d="M 226.734375 141.480469 L 56.683594 238.652344 L 56.683594 44.308594 Z M 226.734375 141.480469 " clip-rule="nonzero"/></clipPath><clipPath id="38647c78a1"><path d="M 0.683594 0.308594 L 170.734375 0.308594 L 170.734375 194.859375 L 0.683594 194.859375 Z M 0.683594 0.308594 " clip-rule="nonzero"/></clipPath><clipPath id="e18658d9cd"><path d="M 170.734375 97.480469 L 0.683594 194.652344 L 0.683594 0.308594 Z M 170.734375 97.480469 " clip-rule="nonzero"/></clipPath><clipPath id="dbd707d6fb"><rect x="0" width="171" y="0" height="195"/></clipPath></defs><g clip-path="url(#beeeb4b299)"><g clip-path="url(#4ad96892c3)"><g transform="matrix(1, 0, 0, 1, 9, 8)"><g clip-path="url(#a1a87fe150)"><g clip-path="url(#7397f84d58)"><g clip-path="url(#5592dbc3ca)"><path fill="#ffe788" d="M 0.210938 0.980469 L 265.214844 0.980469 L 265.214844 265.984375 L 0.210938 265.984375 Z M 0.210938 0.980469 " fill-opacity="1" fill-rule="nonzero"/></g></g></g></g></g></g><g clip-path="url(#0f9fd35a05)"><g clip-path="url(#875ae880bd)"><path stroke-linecap="butt" transform="matrix(0.74868, 0, 0, 0.74868, 9.21045, 8.981347)" fill="none" stroke-linejoin="miter" d="M 30.001386 -0.00117251 L 323.951201 -0.00117251 C 331.907917 -0.00117251 339.541148 3.160644 345.165634 8.78513 C 350.790119 14.414833 353.951936 22.042846 353.951936 29.999563 L 353.951936 323.954595 C 353.951936 331.911311 350.790119 339.539325 345.165634 345.169028 C 339.541148 350.793513 331.907917 353.95533 323.951201 353.95533 L 30.001386 353.95533 C 22.044669 353.95533 14.411439 350.793513 8.786953 345.169028 C 3.162467 339.539325 0.00065084 331.911311 0.00065084 323.954595 L 0.00065084 29.999563 C 0.00065084 22.042846 3.162467 14.414833 8.786953 8.78513 C 14.411439 3.160644 22.044669 -0.00117251 30.001386 -0.00117251 Z M 30.001386 -0.00117251 " stroke="#0664aa" stroke-width="36" stroke-opacity="1" stroke-miterlimit="4"/></g></g><g clip-path="url(#64a6383b10)"><g clip-path="url(#e664aa1392)"><g transform="matrix(1, 0, 0, 1, 56, 44)"><g clip-path="url(#dbd707d6fb)"><g clip-path="url(#38647c78a1)"><g clip-path="url(#e18658d9cd)"><path fill="#00bf63" d="M 170.734375 0.308594 L 170.734375 194.9375 L 0.683594 194.9375 L 0.683594 0.308594 Z M 170.734375 0.308594 " fill-opacity="1" fill-rule="nonzero"/></g></g></g></g></g></g></svg>