<svg xmlns="http://www.w3.org/2000/svg" xmlns:xlink="http://www.w3.org/1999/xlink" width="378" zoomAndPan="magnify" viewBox="0 0 283.5 283.500005" height="378" preserveAspectRatio="xMidYMid meet" version="1.0"><defs><clipPath id="b9ea53fa3d"><path d="M 8.984375 8.984375 L 274.019531 8.984375 L 274.019531 274.019531 L 8.984375 274.019531 Z M 8.984375 8.984375 " clip-rule="nonzero"/></clipPath><clipPath id="3b59b76ff9"><path d="M 31.445312 8.984375 L 251.554688 8.984375 C 257.511719 8.984375 263.226562 11.347656 267.4375 15.5625 C 271.652344 19.773438 274.019531 25.488281 274.019531 31.445312 L 274.019531 251.554688 C 274.019531 257.511719 271.652344 263.226562 267.4375 267.4375 C 263.226562 271.652344 257.511719 274.019531 251.554688 274.019531 L 31.445312 274.019531 C 25.488281 274.019531 19.773438 271.652344 15.5625 267.4375 C 11.347656 263.226562 8.984375 257.511719 8.984375 251.554688 L 8.984375 31.445312 C 8.984375 25.488281 11.347656 19.773438 15.5625 15.5625 C 19.773438 11.347656 25.488281 8.984375 31.445312 8.984375 Z M 31.445312 8.984375 " clip-rule="nonzero"/></clipPath><clipPath id="daaa4d812d"><path d="M 0.984375 0.984375 L 266.019531 0.984375 L 266.019531 266.019531 L 0.984375 266.019531 Z M 0.984375 0.984375 " clip-rule="nonzero"/></clipPath><clipPath id="e4aa7275ac"><path d="M 23.445312 0.984375 L 243.554688 0.984375 C 249.511719 0.984375 255.226562 3.347656 259.4375 7.5625 C 263.652344 11.773438 266.019531 17.488281 266.019531 23.445312 L 266.019531 243.554688 C 266.019531 249.511719 263.652344 255.226562 259.4375 259.4375 C 255.226562 263.652344 249.511719 266.019531 243.554688 266.019531 L 23.445312 266.019531 C 17.488281 266.019531 11.773438 263.652344 7.5625 259.4375 C 3.347656 255.226562 0.984375 249.511719 0.984375 243.554688 L 0.984375 23.445312 C 0.984375 17.488281 3.347656 11.773438 7.5625 7.5625 C 11.773438 3.347656 17.488281 0.984375 23.445312 0.984375 Z M 23.445312 0.984375 " clip-rule="nonzero"/></clipPath><clipPath id="8ec1eb1a86"><rect x="0" width="267" y="0" height="267"/></clipPath><clipPath id="0b0f99b49d"><path d="M 8.984375 8.984375 L 274.046875 8.984375 L 274.046875 274.046875 L 8.984375 274.046875 Z M 8.984375 8.984375 " clip-rule="nonzero"/></clipPath><clipPath id="6aaef5e3e4"><path d="M 31.445312 8.984375 L 251.550781 8.984375 C 257.507812 8.984375 263.222656 11.347656 267.433594 15.5625 C 271.644531 19.773438 274.011719 25.488281 274.011719 31.445312 L 274.011719 251.550781 C 274.011719 257.507812 271.644531 263.222656 267.433594 267.433594 C 263.222656 271.644531 257.507812 274.011719 251.550781 274.011719 L 31.445312 274.011719 C 25.488281 274.011719 19.773438 271.644531 15.5625 267.433594 C 11.347656 263.222656 8.984375 257.507812 8.984375 251.550781 L 8.984375 31.445312 C 8.984375 25.488281 11.347656 19.773438 15.5625 15.5625 C 19.773438 11.347656 25.488281 8.984375 31.445312 8.984375 Z M 31.445312 8.984375 " clip-rule="nonzero"/></clipPath><clipPath id="a2d1f29280"><path d="M 57.050781 57.050781 L 225.949219 57.050781 L 225.949219 225.949219 L 57.050781 225.949219 Z M 57.050781 57.050781 " clip-rule="nonzero"/></clipPath><clipPath id="aba31c1bee"><path d="M 0.0507812 0.0507812 L 168.949219 0.0507812 L 168.949219 168.949219 L 0.0507812 168.949219 Z M 0.0507812 0.0507812 " clip-rule="nonzero"/></clipPath><clipPath id="a5d3b8a35c"><rect x="0" width="169" y="0" height="169"/></clipPath><clipPath id="bd59d51ba0"><rect x="0" width="283" y="0" height="283"/></clipPath></defs><g transform="matrix(1, 0, 0, 1, 0, 0.000000000000005262)"><g clip-path="url(#bd59d51ba0)"><g clip-path="url(#b9ea53fa3d)"><g clip-path="url(#3b59b76ff9)"><g transform="matrix(1, 0, 0, 1, 8, 8)"><g clip-path="url(#8ec1eb1a86)"><g clip-path="url(#daaa4d812d)"><g clip-path="url(#e4aa7275ac)"><path fill="#ffe788" d="M 0.984375 0.984375 L 266.019531 0.984375 L 266.019531 266.019531 L 0.984375 266.019531 Z M 0.984375 0.984375 " fill-opacity="1" fill-rule="nonzero"/></g></g></g></g></g></g><g clip-path="url(#0b0f99b49d)"><g clip-path="url(#6aaef5e3e4)"><path stroke-linecap="butt" transform="matrix(0.748773, 0, 0, 0.748773, 8.982448, 8.982461)" fill="none" stroke-linejoin="miter" d="M 29.999558 0.00255649 L 323.954358 0.00255649 C 331.910081 0.00255649 339.542357 3.158761 345.166139 8.78776 C 350.789922 14.411543 353.951343 22.043819 353.951343 29.999541 L 353.951343 323.954342 C 353.951343 331.910064 350.789922 339.54234 345.166139 345.166123 C 339.542357 350.789905 331.910081 353.951327 323.954358 353.951327 L 29.999558 353.951327 C 22.043836 353.951327 14.41156 350.789905 8.787777 345.166123 C 3.158778 339.54234 0.00257316 331.910064 0.00257316 323.954342 L 0.00257316 29.999541 C 0.00257316 22.043819 3.158778 14.411543 8.787777 8.78776 C 14.41156 3.158761 22.043836 0.00255649 29.999558 0.00255649 Z M 29.999558 0.00255649 " stroke="#0664aa" stroke-width="36" stroke-opacity="1" stroke-miterlimit="4"/></g></g><g clip-path="url(#a2d1f29280)"><g transform="matrix(1, 0, 0, 1, 57, 57)"><g clip-path="url(#a5d3b8a35c)"><g clip-path="url(#aba31c1bee)"><path fill="#0664aa" d="M 0.0507812 0.0507812 L 168.949219 0.0507812 L 168.949219 168.949219 L 0.0507812 168.949219 Z M 0.0507812 0.0507812 " fill-opacity="1" fill-rule="nonzero"/></g></g></g></g></g></g></svg>