<svg xmlns="http://www.w3.org/2000/svg" xmlns:xlink="http://www.w3.org/1999/xlink" width="378" zoomAndPan="magnify" viewBox="0 0 282.96 283.499989" height="378" preserveAspectRatio="xMidYMid meet" version="1.0"><defs><clipPath id="6e3f2a3ee7"><path d="M 9.210938 8.980469 L 274.214844 8.980469 L 274.214844 273.984375 L 9.210938 273.984375 Z M 9.210938 8.980469 " clip-rule="nonzero"/></clipPath><clipPath id="f8b6aea9fd"><path d="M 31.671875 8.980469 L 251.753906 8.980469 C 257.710938 8.980469 263.421875 11.347656 267.636719 15.558594 C 271.847656 19.773438 274.214844 25.484375 274.214844 31.441406 L 274.214844 251.523438 C 274.214844 257.480469 271.847656 263.195312 267.636719 267.40625 C 263.421875 271.617188 257.710938 273.984375 251.753906 273.984375 L 31.671875 273.984375 C 25.714844 273.984375 20 271.617188 15.789062 267.40625 C 11.578125 263.195312 9.210938 257.480469 9.210938 251.523438 L 9.210938 31.441406 C 9.210938 25.484375 11.578125 19.773438 15.789062 15.558594 C 20 11.347656 25.714844 8.980469 31.671875 8.980469 Z M 31.671875 8.980469 " clip-rule="nonzero"/></clipPath><clipPath id="7a4ad8fce4"><path d="M 0.210938 0.980469 L 265.214844 0.980469 L 265.214844 265.984375 L 0.210938 265.984375 Z M 0.210938 0.980469 " clip-rule="nonzero"/></clipPath><clipPath id="6100118a5b"><path d="M 22.671875 0.980469 L 242.753906 0.980469 C 248.710938 0.980469 254.421875 3.347656 258.636719 7.558594 C 262.847656 11.773438 265.214844 17.484375 265.214844 23.441406 L 265.214844 243.523438 C 265.214844 249.480469 262.847656 255.195312 258.636719 259.40625 C 254.421875 263.617188 248.710938 265.984375 242.753906 265.984375 L 22.671875 265.984375 C 16.714844 265.984375 11 263.617188 6.789062 259.40625 C 2.578125 255.195312 0.210938 249.480469 0.210938 243.523438 L 0.210938 23.441406 C 0.210938 17.484375 2.578125 11.773438 6.789062 7.558594 C 11 3.347656 16.714844 0.980469 22.671875 0.980469 Z M 22.671875 0.980469 " clip-rule="nonzero"/></clipPath><clipPath id="1cab356f92"><rect x="0" width="266" y="0" height="266"/></clipPath><clipPath id="e804db78cd"><path d="M 9.210938 8.980469 L 274.242188 8.980469 L 274.242188 274 L 9.210938 274 Z M 9.210938 8.980469 " clip-rule="nonzero"/></clipPath><clipPath id="6c1c9d353a"><path d="M 31.671875 8.980469 L 251.746094 8.980469 C 257.703125 8.980469 263.417969 11.347656 267.628906 15.558594 C 271.839844 19.773438 274.207031 25.484375 274.207031 31.441406 L 274.207031 251.519531 C 274.207031 257.476562 271.839844 263.1875 267.628906 267.402344 C 263.417969 271.613281 257.703125 273.980469 251.746094 273.980469 L 31.671875 273.980469 C 25.714844 273.980469 20 271.613281 15.789062 267.402344 C 11.578125 263.1875 9.210938 257.476562 9.210938 251.519531 L 9.210938 31.441406 C 9.210938 25.484375 11.578125 19.773438 15.789062 15.558594 C 20 11.347656 25.714844 8.980469 31.671875 8.980469 Z M 31.671875 8.980469 " clip-rule="nonzero"/></clipPath><clipPath id="be3173b27d"><path d="M 85.113281 71.042969 L 125.675781 71.042969 L 125.675781 196.371094 L 85.113281 196.371094 Z M 85.113281 71.042969 " clip-rule="nonzero"/></clipPath><clipPath id="325a224b83"><path d="M 0.113281 0.0429688 L 40.675781 0.0429688 L 40.675781 125.371094 L 0.113281 125.371094 Z M 0.113281 0.0429688 " clip-rule="nonzero"/></clipPath><clipPath id="330717a9ed"><rect x="0" width="41" y="0" height="126"/></clipPath><clipPath id="b705cc15cd"><path d="M 157.75 71.042969 L 198.3125 71.042969 L 198.3125 196.371094 L 157.75 196.371094 Z M 157.75 71.042969 " clip-rule="nonzero"/></clipPath><clipPath id="c7f57b47d1"><path d="M 0.75 0.0429688 L 41.3125 0.0429688 L 41.3125 125.371094 L 0.75 125.371094 Z M 0.75 0.0429688 " clip-rule="nonzero"/></clipPath><clipPath id="08ca1c4dc2"><rect x="0" width="42" y="0" height="126"/></clipPath></defs><g clip-path="url(#6e3f2a3ee7)"><g clip-path="url(#f8b6aea9fd)"><g transform="matrix(1, 0, 0, 1, 9, 8)"><g clip-path="url(#1cab356f92)"><g clip-path="url(#7a4ad8fce4)"><g clip-path="url(#6100118a5b)"><path fill="#ffe788" d="M 0.210938 0.980469 L 265.214844 0.980469 L 265.214844 265.984375 L 0.210938 265.984375 Z M 0.210938 0.980469 " fill-opacity="1" fill-rule="nonzero"/></g></g></g></g></g></g><g clip-path="url(#e804db78cd)"><g clip-path="url(#6c1c9d353a)"><path stroke-linecap="butt" transform="matrix(0.74868, 0, 0, 0.74868, 9.21045, 8.981317)" fill="none" stroke-linejoin="miter" d="M 30.001386 -0.00113347 L 323.951201 -0.00113347 C 331.907917 -0.00113347 339.541148 3.160683 345.165634 8.785169 C 350.790119 14.414872 353.951936 22.042885 353.951936 29.999602 L 353.951936 323.954634 C 353.951936 331.911351 350.790119 339.539364 345.165634 345.169067 C 339.541148 350.793553 331.907917 353.955369 323.951201 353.955369 L 30.001386 353.955369 C 22.044669 353.955369 14.411439 350.793553 8.786953 345.169067 C 3.162467 339.539364 0.00065084 331.911351 0.00065084 323.954634 L 0.00065084 29.999602 C 0.00065084 22.042885 3.162467 14.414872 8.786953 8.785169 C 14.411439 3.160683 22.044669 -0.00113347 30.001386 -0.00113347 Z M 30.001386 -0.00113347 " stroke="#0664aa" stroke-width="36" stroke-opacity="1" stroke-miterlimit="4"/></g></g><g clip-path="url(#be3173b27d)"><g transform="matrix(1, 0, 0, 1, 85, 71)"><g clip-path="url(#330717a9ed)"><g clip-path="url(#325a224b83)"><path fill="#0664aa" d="M 0.113281 0.0429688 L 40.675781 0.0429688 L 40.675781 125.371094 L 0.113281 125.371094 Z M 0.113281 0.0429688 " fill-opacity="1" fill-rule="nonzero"/></g></g></g></g><g clip-path="url(#b705cc15cd)"><g transform="matrix(1, 0, 0, 1, 157, 71)"><g clip-path="url(#08ca1c4dc2)"><g clip-path="url(#c7f57b47d1)"><path fill="#0664aa" d="M 0.75 0.0429688 L 41.3125 0.0429688 L 41.3125 125.371094 L 0.75 125.371094 Z M 0.75 0.0429688 " fill-opacity="1" fill-rule="nonzero"/></g></g></g></g></svg>