<svg xmlns="http://www.w3.org/2000/svg" xmlns:xlink="http://www.w3.org/1999/xlink" width="378" zoomAndPan="magnify" viewBox="0 0 282.96 283.499989" height="378" preserveAspectRatio="xMidYMid meet" version="1.0"><defs><g/><clipPath id="3351480bb5"><path d="M 9.210938 8.980469 L 274.214844 8.980469 L 274.214844 273.984375 L 9.210938 273.984375 Z M 9.210938 8.980469 " clip-rule="nonzero"/></clipPath><clipPath id="8a575bd17e"><path d="M 31.671875 8.980469 L 251.753906 8.980469 C 257.710938 8.980469 263.421875 11.347656 267.636719 15.558594 C 271.847656 19.773438 274.214844 25.484375 274.214844 31.441406 L 274.214844 251.523438 C 274.214844 257.480469 271.847656 263.195312 267.636719 267.40625 C 263.421875 271.617188 257.710938 273.984375 251.753906 273.984375 L 31.671875 273.984375 C 25.714844 273.984375 20 271.617188 15.789062 267.40625 C 11.578125 263.195312 9.210938 257.480469 9.210938 251.523438 L 9.210938 31.441406 C 9.210938 25.484375 11.578125 19.773438 15.789062 15.558594 C 20 11.347656 25.714844 8.980469 31.671875 8.980469 Z M 31.671875 8.980469 " clip-rule="nonzero"/></clipPath><clipPath id="5305e909a0"><path d="M 0.210938 0.980469 L 265.214844 0.980469 L 265.214844 265.984375 L 0.210938 265.984375 Z M 0.210938 0.980469 " clip-rule="nonzero"/></clipPath><clipPath id="46640ad7bd"><path d="M 22.671875 0.980469 L 242.753906 0.980469 C 248.710938 0.980469 254.421875 3.347656 258.636719 7.558594 C 262.847656 11.773438 265.214844 17.484375 265.214844 23.441406 L 265.214844 243.523438 C 265.214844 249.480469 262.847656 255.195312 258.636719 259.40625 C 254.421875 263.617188 248.710938 265.984375 242.753906 265.984375 L 22.671875 265.984375 C 16.714844 265.984375 11 263.617188 6.789062 259.40625 C 2.578125 255.195312 0.210938 249.480469 0.210938 243.523438 L 0.210938 23.441406 C 0.210938 17.484375 2.578125 11.773438 6.789062 7.558594 C 11 3.347656 16.714844 0.980469 22.671875 0.980469 Z M 22.671875 0.980469 " clip-rule="nonzero"/></clipPath><clipPath id="7122416768"><rect x="0" width="266" y="0" height="266"/></clipPath><clipPath id="4cb7c04dd5"><path d="M 9.210938 8.980469 L 274.242188 8.980469 L 274.242188 274 L 9.210938 274 Z M 9.210938 8.980469 " clip-rule="nonzero"/></clipPath><clipPath id="52e830fb15"><path d="M 31.671875 8.980469 L 251.746094 8.980469 C 257.703125 8.980469 263.417969 11.347656 267.628906 15.558594 C 271.839844 19.773438 274.207031 25.484375 274.207031 31.441406 L 274.207031 251.519531 C 274.207031 257.476562 271.839844 263.1875 267.628906 267.402344 C 263.417969 271.613281 257.703125 273.980469 251.746094 273.980469 L 31.671875 273.980469 C 25.714844 273.980469 20 271.613281 15.789062 267.402344 C 11.578125 263.1875 9.210938 257.476562 9.210938 251.519531 L 9.210938 31.441406 C 9.210938 25.484375 11.578125 19.773438 15.789062 15.558594 C 20 11.347656 25.714844 8.980469 31.671875 8.980469 Z M 31.671875 8.980469 " clip-rule="nonzero"/></clipPath><clipPath id="b4e62262db"><rect x="0" width="132" y="0" height="217"/></clipPath></defs><g clip-path="url(#3351480bb5)"><g clip-path="url(#8a575bd17e)"><g transform="matrix(1, 0, 0, 1, 9, 8)"><g clip-path="url(#7122416768)"><g clip-path="url(#5305e909a0)"><g clip-path="url(#46640ad7bd)"><path fill="#ffe788" d="M 0.210938 0.980469 L 265.214844 0.980469 L 265.214844 265.984375 L 0.210938 265.984375 Z M 0.210938 0.980469 " fill-opacity="1" fill-rule="nonzero"/></g></g></g></g></g></g><g clip-path="url(#4cb7c04dd5)"><g clip-path="url(#52e830fb15)"><path stroke-linecap="butt" transform="matrix(0.74868, 0, 0, 0.74868, 9.21045, 8.981325)" fill="none" stroke-linejoin="miter" d="M 30.001386 -0.00114339 L 323.951201 -0.00114339 C 331.907917 -0.00114339 339.541148 3.160673 345.165634 8.785159 C 350.790119 14.414862 353.951936 22.042875 353.951936 29.999592 L 353.951936 323.954624 C 353.951936 331.911341 350.790119 339.539354 345.165634 345.169057 C 339.541148 350.793543 331.907917 353.955359 323.951201 353.955359 L 30.001386 353.955359 C 22.044669 353.955359 14.411439 350.793543 8.786953 345.169057 C 3.162467 339.539354 0.00065084 331.911341 0.00065084 323.954624 L 0.00065084 29.999592 C 0.00065084 22.042875 3.162467 14.414862 8.786953 8.785159 C 14.411439 3.160673 22.044669 -0.00114339 30.001386 -0.00114339 Z M 30.001386 -0.00114339 " stroke="#0664aa" stroke-width="36" stroke-opacity="1" stroke-miterlimit="4"/></g></g><g transform="matrix(1, 0, 0, 1, 78, 33)"><g clip-path="url(#b4e62262db)"><g fill="#0664aa" fill-opacity="1"><g transform="translate(0.315865, 161.17553)"><g><path d="M 63.84375 0.546875 C 58.320312 0.785156 51.726562 0.722656 44.0625 0.359375 C 42.863281 0.359375 40.523438 0.265625 37.046875 0.078125 C 33.566406 -0.0976562 30.925781 -0.242188 29.125 -0.359375 C 28.644531 -0.242188 28.164062 -0.1875 27.6875 -0.1875 C 25.53125 -0.1875 23.613281 -0.664062 21.9375 -1.625 C 19.78125 -2.695312 18.039062 -4.25 16.71875 -6.28125 C 15.40625 -8.320312 14.75 -10.601562 14.75 -13.125 C 14.75 -13.96875 14.867188 -14.804688 15.109375 -15.640625 C 15.109375 -21.273438 15.164062 -31.285156 15.28125 -45.671875 C 15.40625 -60.054688 15.347656 -72.3125 15.109375 -82.4375 C 14.867188 -92.570312 14.328125 -102.738281 13.484375 -112.9375 C 13.242188 -116.289062 14.082031 -119.253906 16 -121.828125 C 17.914062 -124.410156 20.4375 -126 23.5625 -126.59375 C 25.351562 -127.789062 27.390625 -128.453125 29.671875 -128.578125 C 31.347656 -128.578125 33.832031 -128.632812 37.125 -128.75 C 40.425781 -128.875 42.738281 -128.992188 44.0625 -129.109375 C 50.53125 -129.347656 56.101562 -129.289062 60.78125 -128.9375 C 75.289062 -128.09375 86.859375 -124.4375 95.484375 -117.96875 C 102.796875 -112.445312 107.113281 -105.550781 108.4375 -97.28125 C 109.519531 -90.445312 108.378906 -82.957031 105.015625 -74.8125 C 104.054688 -72.53125 102.800781 -70.910156 101.25 -69.953125 C 110.113281 -65.273438 115.804688 -58.203125 118.328125 -48.734375 C 120.484375 -40.460938 120.363281 -33.328125 117.96875 -27.328125 C 115.6875 -21.453125 111.128906 -16.0625 104.296875 -11.15625 C 94.222656 -4.082031 80.738281 -0.179688 63.84375 0.546875 Z M 62.765625 -24.09375 C 74.753906 -24.570312 83.804688 -27.03125 89.921875 -31.46875 C 92.671875 -33.382812 94.253906 -34.941406 94.671875 -36.140625 C 95.097656 -37.335938 94.890625 -39.5 94.046875 -42.625 C 92.972656 -47.175781 87.578125 -49.992188 77.859375 -51.078125 C 73.429688 -51.671875 67.5625 -51.847656 60.25 -51.609375 C 50.050781 -51.492188 44.175781 -51.4375 42.625 -51.4375 L 40.109375 -51.796875 C 39.984375 -34.765625 39.921875 -25.710938 39.921875 -24.640625 C 42.203125 -24.515625 44 -24.394531 45.3125 -24.28125 C 52.269531 -24.039062 58.085938 -23.976562 62.765625 -24.09375 Z M 65.640625 -78.046875 C 74.984375 -78.878906 80.5 -81.273438 82.1875 -85.234375 C 83.625 -88.472656 84.160156 -91.050781 83.796875 -92.96875 C 83.554688 -94.289062 82.597656 -95.671875 80.921875 -97.109375 C 76.128906 -100.585938 68.9375 -102.625 59.34375 -103.21875 C 55.382812 -103.457031 50.585938 -103.457031 44.953125 -103.21875 C 43.515625 -103.21875 41.597656 -103.160156 39.203125 -103.046875 C 39.554688 -95.734375 39.859375 -87.757812 40.109375 -79.125 C 50.890625 -77.925781 59.398438 -77.566406 65.640625 -78.046875 Z M 65.640625 -78.046875 "/></g></g></g></g></g></svg>