<svg xmlns="http://www.w3.org/2000/svg" xmlns:xlink="http://www.w3.org/1999/xlink" width="378" zoomAndPan="magnify" viewBox="0 0 282.96 283.499989" height="378" preserveAspectRatio="xMidYMid meet" version="1.0"><defs><g/><clipPath id="5136b07f4d"><path d="M 9.210938 8.980469 L 274.214844 8.980469 L 274.214844 273.984375 L 9.210938 273.984375 Z M 9.210938 8.980469 " clip-rule="nonzero"/></clipPath><clipPath id="c03029fbaa"><path d="M 31.671875 8.980469 L 251.753906 8.980469 C 257.710938 8.980469 263.421875 11.347656 267.636719 15.558594 C 271.847656 19.773438 274.214844 25.484375 274.214844 31.441406 L 274.214844 251.523438 C 274.214844 257.480469 271.847656 263.195312 267.636719 267.40625 C 263.421875 271.617188 257.710938 273.984375 251.753906 273.984375 L 31.671875 273.984375 C 25.714844 273.984375 20 271.617188 15.789062 267.40625 C 11.578125 263.195312 9.210938 257.480469 9.210938 251.523438 L 9.210938 31.441406 C 9.210938 25.484375 11.578125 19.773438 15.789062 15.558594 C 20 11.347656 25.714844 8.980469 31.671875 8.980469 Z M 31.671875 8.980469 " clip-rule="nonzero"/></clipPath><clipPath id="f8e2e89be9"><path d="M 0.210938 0.980469 L 265.214844 0.980469 L 265.214844 265.984375 L 0.210938 265.984375 Z M 0.210938 0.980469 " clip-rule="nonzero"/></clipPath><clipPath id="621af2f892"><path d="M 22.671875 0.980469 L 242.753906 0.980469 C 248.710938 0.980469 254.421875 3.347656 258.636719 7.558594 C 262.847656 11.773438 265.214844 17.484375 265.214844 23.441406 L 265.214844 243.523438 C 265.214844 249.480469 262.847656 255.195312 258.636719 259.40625 C 254.421875 263.617188 248.710938 265.984375 242.753906 265.984375 L 22.671875 265.984375 C 16.714844 265.984375 11 263.617188 6.789062 259.40625 C 2.578125 255.195312 0.210938 249.480469 0.210938 243.523438 L 0.210938 23.441406 C 0.210938 17.484375 2.578125 11.773438 6.789062 7.558594 C 11 3.347656 16.714844 0.980469 22.671875 0.980469 Z M 22.671875 0.980469 " clip-rule="nonzero"/></clipPath><clipPath id="0f7551c917"><rect x="0" width="266" y="0" height="266"/></clipPath><clipPath id="9d9689aa35"><path d="M 9.210938 8.980469 L 274.242188 8.980469 L 274.242188 274 L 9.210938 274 Z M 9.210938 8.980469 " clip-rule="nonzero"/></clipPath><clipPath id="9c9195dfb9"><path d="M 31.671875 8.980469 L 251.746094 8.980469 C 257.703125 8.980469 263.417969 11.347656 267.628906 15.558594 C 271.839844 19.773438 274.207031 25.484375 274.207031 31.441406 L 274.207031 251.519531 C 274.207031 257.476562 271.839844 263.1875 267.628906 267.402344 C 263.417969 271.613281 257.703125 273.980469 251.746094 273.980469 L 31.671875 273.980469 C 25.714844 273.980469 20 271.613281 15.789062 267.402344 C 11.578125 263.1875 9.210938 257.476562 9.210938 251.519531 L 9.210938 31.441406 C 9.210938 25.484375 11.578125 19.773438 15.789062 15.558594 C 20 11.347656 25.714844 8.980469 31.671875 8.980469 Z M 31.671875 8.980469 " clip-rule="nonzero"/></clipPath><clipPath id="000966247e"><path d="M 151.03125 63.097656 L 238.625 63.097656 L 238.625 114.757812 L 151.03125 114.757812 Z M 151.03125 63.097656 " clip-rule="nonzero"/></clipPath><clipPath id="abe3fa11d9"><rect x="0" width="131" y="0" height="254"/></clipPath></defs><g clip-path="url(#5136b07f4d)"><g clip-path="url(#c03029fbaa)"><g transform="matrix(1, 0, 0, 1, 9, 8)"><g clip-path="url(#0f7551c917)"><g clip-path="url(#f8e2e89be9)"><g clip-path="url(#621af2f892)"><path fill="#ffe788" d="M 0.210938 0.980469 L 265.214844 0.980469 L 265.214844 265.984375 L 0.210938 265.984375 Z M 0.210938 0.980469 " fill-opacity="1" fill-rule="nonzero"/></g></g></g></g></g></g><g clip-path="url(#9d9689aa35)"><g clip-path="url(#9c9195dfb9)"><path stroke-linecap="butt" transform="matrix(0.74868, 0, 0, 0.74868, 9.21045, 8.981325)" fill="none" stroke-linejoin="miter" d="M 30.001386 -0.00114339 L 323.951201 -0.00114339 C 331.907917 -0.00114339 339.541148 3.160673 345.165634 8.785159 C 350.790119 14.414862 353.951936 22.042875 353.951936 29.999592 L 353.951936 323.954624 C 353.951936 331.911341 350.790119 339.539354 345.165634 345.169057 C 339.541148 350.793543 331.907917 353.955359 323.951201 353.955359 L 30.001386 353.955359 C 22.044669 353.955359 14.411439 350.793543 8.786953 345.169057 C 3.162467 339.539354 0.00065084 331.911341 0.00065084 323.954624 L 0.00065084 29.999592 C 0.00065084 22.042875 3.162467 14.414862 8.786953 8.785159 C 14.411439 3.160673 22.044669 -0.00114339 30.001386 -0.00114339 Z M 30.001386 -0.00114339 " stroke="#0664aa" stroke-width="36" stroke-opacity="1" stroke-miterlimit="4"/></g></g><g clip-path="url(#000966247e)"><path fill="#0664aa" d="M 159.183594 114.691406 L 151.09375 106.597656 L 194.746094 62.941406 L 238.402344 106.597656 L 230.308594 114.691406 L 194.746094 79.234375 Z M 159.183594 114.691406 " fill-opacity="1" fill-rule="nonzero"/></g><g transform="matrix(1, 0, 0, 1, 36, 28)"><g clip-path="url(#abe3fa11d9)"><g fill="#0664aa" fill-opacity="1"><g transform="translate(1.061551, 188.798596)"><g><path d="M 22.953125 -6.3125 C 21.835938 -3.507812 19.910156 -1.546875 17.171875 -0.421875 C 14.429688 0.703125 11.691406 0.703125 8.953125 -0.421875 C 6.210938 -1.546875 4.28125 -3.476562 3.15625 -6.21875 C 2.03125 -8.957031 2.03125 -11.660156 3.15625 -14.328125 C 5.96875 -21.203125 9.65625 -31.660156 14.21875 -45.703125 C 18.78125 -59.742188 22.046875 -69.222656 24.015625 -74.140625 C 24.992188 -76.953125 28.992188 -86.925781 36.015625 -104.0625 C 42.617188 -120.90625 47.742188 -134.59375 51.390625 -145.125 C 52.378906 -147.9375 54.171875 -150.007812 56.765625 -151.34375 C 59.367188 -152.675781 62.070312 -152.851562 64.875 -151.875 C 66.132812 -151.445312 67.257812 -150.8125 68.25 -149.96875 C 71.050781 -148.988281 73.015625 -147.09375 74.140625 -144.28125 L 126.59375 -14.75 C 127.71875 -11.9375 127.71875 -9.160156 126.59375 -6.421875 C 125.46875 -3.679688 123.535156 -1.75 120.796875 -0.625 C 118.054688 0.488281 115.316406 0.488281 112.578125 -0.625 C 109.847656 -1.75 107.921875 -3.644531 106.796875 -6.3125 L 91 -47.1875 C 85.238281 -46.90625 82.007812 -46.765625 81.3125 -46.765625 C 62.351562 -46.054688 47.46875 -45.703125 36.65625 -45.703125 C 30.332031 -27.171875 25.765625 -14.039062 22.953125 -6.3125 Z M 44.4375 -67.1875 C 56.238281 -67.332031 68.878906 -67.613281 82.359375 -68.03125 L 63.1875 -114.375 Z M 44.4375 -67.1875 "/></g></g></g></g></g></svg>