<svg xmlns="http://www.w3.org/2000/svg" xmlns:xlink="http://www.w3.org/1999/xlink" width="378" zoomAndPan="magnify" viewBox="0 0 282.96 283.499989" height="378" preserveAspectRatio="xMidYMid meet" version="1.0"><defs><g/><clipPath id="0f10c09609"><path d="M 9.210938 8.980469 L 274.214844 8.980469 L 274.214844 273.984375 L 9.210938 273.984375 Z M 9.210938 8.980469 " clip-rule="nonzero"/></clipPath><clipPath id="14bbff3917"><path d="M 31.671875 8.980469 L 251.753906 8.980469 C 257.710938 8.980469 263.421875 11.347656 267.636719 15.558594 C 271.847656 19.773438 274.214844 25.484375 274.214844 31.441406 L 274.214844 251.523438 C 274.214844 257.480469 271.847656 263.195312 267.636719 267.40625 C 263.421875 271.617188 257.710938 273.984375 251.753906 273.984375 L 31.671875 273.984375 C 25.714844 273.984375 20 271.617188 15.789062 267.40625 C 11.578125 263.195312 9.210938 257.480469 9.210938 251.523438 L 9.210938 31.441406 C 9.210938 25.484375 11.578125 19.773438 15.789062 15.558594 C 20 11.347656 25.714844 8.980469 31.671875 8.980469 Z M 31.671875 8.980469 " clip-rule="nonzero"/></clipPath><clipPath id="08edf7737f"><path d="M 0.210938 0.980469 L 265.214844 0.980469 L 265.214844 265.984375 L 0.210938 265.984375 Z M 0.210938 0.980469 " clip-rule="nonzero"/></clipPath><clipPath id="287a365a3f"><path d="M 22.671875 0.980469 L 242.753906 0.980469 C 248.710938 0.980469 254.421875 3.347656 258.636719 7.558594 C 262.847656 11.773438 265.214844 17.484375 265.214844 23.441406 L 265.214844 243.523438 C 265.214844 249.480469 262.847656 255.195312 258.636719 259.40625 C 254.421875 263.617188 248.710938 265.984375 242.753906 265.984375 L 22.671875 265.984375 C 16.714844 265.984375 11 263.617188 6.789062 259.40625 C 2.578125 255.195312 0.210938 249.480469 0.210938 243.523438 L 0.210938 23.441406 C 0.210938 17.484375 2.578125 11.773438 6.789062 7.558594 C 11 3.347656 16.714844 0.980469 22.671875 0.980469 Z M 22.671875 0.980469 " clip-rule="nonzero"/></clipPath><clipPath id="f1f5e657b9"><rect x="0" width="266" y="0" height="266"/></clipPath><clipPath id="c7d6c820c9"><path d="M 9.210938 8.980469 L 274.242188 8.980469 L 274.242188 274 L 9.210938 274 Z M 9.210938 8.980469 " clip-rule="nonzero"/></clipPath><clipPath id="6369804f00"><path d="M 31.671875 8.980469 L 251.746094 8.980469 C 257.703125 8.980469 263.417969 11.347656 267.628906 15.558594 C 271.839844 19.773438 274.207031 25.484375 274.207031 31.441406 L 274.207031 251.519531 C 274.207031 257.476562 271.839844 263.1875 267.628906 267.402344 C 263.417969 271.613281 257.703125 273.980469 251.746094 273.980469 L 31.671875 273.980469 C 25.714844 273.980469 20 271.613281 15.789062 267.402344 C 11.578125 263.1875 9.210938 257.476562 9.210938 251.519531 L 9.210938 31.441406 C 9.210938 25.484375 11.578125 19.773438 15.789062 15.558594 C 20 11.347656 25.714844 8.980469 31.671875 8.980469 Z M 31.671875 8.980469 " clip-rule="nonzero"/></clipPath></defs><g clip-path="url(#0f10c09609)"><g clip-path="url(#14bbff3917)"><g transform="matrix(1, 0, 0, 1, 9, 8)"><g clip-path="url(#f1f5e657b9)"><g clip-path="url(#08edf7737f)"><g clip-path="url(#287a365a3f)"><path fill="#ffe788" d="M 0.210938 0.980469 L 265.214844 0.980469 L 265.214844 265.984375 L 0.210938 265.984375 Z M 0.210938 0.980469 " fill-opacity="1" fill-rule="nonzero"/></g></g></g></g></g></g><g clip-path="url(#c7d6c820c9)"><g clip-path="url(#6369804f00)"><path stroke-linecap="butt" transform="matrix(0.74868, 0, 0, 0.74868, 9.21045, 8.981317)" fill="none" stroke-linejoin="miter" d="M 30.001386 -0.00113347 L 323.951201 -0.00113347 C 331.907917 -0.00113347 339.541148 3.160683 345.165634 8.785169 C 350.790119 14.414872 353.951936 22.042885 353.951936 29.999602 L 353.951936 323.954634 C 353.951936 331.911351 350.790119 339.539364 345.165634 345.169067 C 339.541148 350.793553 331.907917 353.955369 323.951201 353.955369 L 30.001386 353.955369 C 22.044669 353.955369 14.411439 350.793553 8.786953 345.169067 C 3.162467 339.539364 0.00065084 331.911351 0.00065084 323.954634 L 0.00065084 29.999602 C 0.00065084 22.042885 3.162467 14.414872 8.786953 8.785169 C 14.411439 3.160683 22.044669 -0.00113347 30.001386 -0.00113347 Z M 30.001386 -0.00113347 " stroke="#0664aa" stroke-width="36" stroke-opacity="1" stroke-miterlimit="4"/></g></g><g fill="#0664aa" fill-opacity="1"><g transform="translate(113.829404, 196.062174)"><g><path d="M 5.578125 0.359375 C 3.054688 0.484375 1.078125 -0.320312 -0.359375 -2.0625 C -1.796875 -3.800781 -2.304688 -5.898438 -1.890625 -8.359375 C -1.472656 -10.816406 -0.21875 -12.945312 1.875 -14.75 C 3.976562 -16.550781 6.234375 -17.507812 8.640625 -17.625 L 12.765625 -17.8125 C 20.679688 -55.101562 27.097656 -86.097656 32.015625 -110.796875 L 29.140625 -110.796875 C 26.617188 -110.796875 24.726562 -111.691406 23.46875 -113.484375 C 22.207031 -115.285156 21.847656 -117.445312 22.390625 -119.96875 C 22.929688 -122.488281 24.28125 -124.585938 26.4375 -126.265625 C 28.59375 -127.941406 30.929688 -128.78125 33.453125 -128.78125 C 39.453125 -128.65625 46.828125 -128.535156 55.578125 -128.421875 C 57.972656 -128.421875 59.859375 -127.519531 61.234375 -125.71875 C 62.617188 -123.925781 63.039062 -121.800781 62.5 -119.34375 C 61.957031 -116.882812 60.609375 -114.785156 58.453125 -113.046875 C 56.296875 -111.304688 53.957031 -110.4375 51.4375 -110.4375 L 50 -110.4375 C 44.96875 -85.851562 38.550781 -55.035156 30.75 -17.984375 L 34.359375 -17.984375 C 36.867188 -17.984375 38.8125 -17.113281 40.1875 -15.375 C 41.570312 -13.632812 41.992188 -11.503906 41.453125 -8.984375 C 40.910156 -6.472656 39.59375 -4.347656 37.5 -2.609375 C 35.40625 -0.867188 33.097656 0 30.578125 0 C 21.347656 0 13.015625 0.117188 5.578125 0.359375 Z M 5.578125 0.359375 "/></g></g></g></svg>