<svg xmlns="http://www.w3.org/2000/svg" xmlns:xlink="http://www.w3.org/1999/xlink" width="378" zoomAndPan="magnify" viewBox="0 0 282.96 283.499989" height="378" preserveAspectRatio="xMidYMid meet" version="1.0"><defs><g/><clipPath id="c667d3f1dc"><path d="M 9.210938 8.980469 L 274.214844 8.980469 L 274.214844 273.984375 L 9.210938 273.984375 Z M 9.210938 8.980469 " clip-rule="nonzero"/></clipPath><clipPath id="572c141f8a"><path d="M 31.671875 8.980469 L 251.753906 8.980469 C 257.710938 8.980469 263.421875 11.347656 267.636719 15.558594 C 271.847656 19.773438 274.214844 25.484375 274.214844 31.441406 L 274.214844 251.523438 C 274.214844 257.480469 271.847656 263.195312 267.636719 267.40625 C 263.421875 271.617188 257.710938 273.984375 251.753906 273.984375 L 31.671875 273.984375 C 25.714844 273.984375 20 271.617188 15.789062 267.40625 C 11.578125 263.195312 9.210938 257.480469 9.210938 251.523438 L 9.210938 31.441406 C 9.210938 25.484375 11.578125 19.773438 15.789062 15.558594 C 20 11.347656 25.714844 8.980469 31.671875 8.980469 Z M 31.671875 8.980469 " clip-rule="nonzero"/></clipPath><clipPath id="09a140634e"><path d="M 0.210938 0.980469 L 265.214844 0.980469 L 265.214844 265.984375 L 0.210938 265.984375 Z M 0.210938 0.980469 " clip-rule="nonzero"/></clipPath><clipPath id="507e55768d"><path d="M 22.671875 0.980469 L 242.753906 0.980469 C 248.710938 0.980469 254.421875 3.347656 258.636719 7.558594 C 262.847656 11.773438 265.214844 17.484375 265.214844 23.441406 L 265.214844 243.523438 C 265.214844 249.480469 262.847656 255.195312 258.636719 259.40625 C 254.421875 263.617188 248.710938 265.984375 242.753906 265.984375 L 22.671875 265.984375 C 16.714844 265.984375 11 263.617188 6.789062 259.40625 C 2.578125 255.195312 0.210938 249.480469 0.210938 243.523438 L 0.210938 23.441406 C 0.210938 17.484375 2.578125 11.773438 6.789062 7.558594 C 11 3.347656 16.714844 0.980469 22.671875 0.980469 Z M 22.671875 0.980469 " clip-rule="nonzero"/></clipPath><clipPath id="6bf2391203"><rect x="0" width="266" y="0" height="266"/></clipPath><clipPath id="705e062e3c"><path d="M 9.210938 8.980469 L 274.242188 8.980469 L 274.242188 274 L 9.210938 274 Z M 9.210938 8.980469 " clip-rule="nonzero"/></clipPath><clipPath id="301468ad6d"><path d="M 31.671875 8.980469 L 251.746094 8.980469 C 257.703125 8.980469 263.417969 11.347656 267.628906 15.558594 C 271.839844 19.773438 274.207031 25.484375 274.207031 31.441406 L 274.207031 251.519531 C 274.207031 257.476562 271.839844 263.1875 267.628906 267.402344 C 263.417969 271.613281 257.703125 273.980469 251.746094 273.980469 L 31.671875 273.980469 C 25.714844 273.980469 20 271.613281 15.789062 267.402344 C 11.578125 263.1875 9.210938 257.476562 9.210938 251.519531 L 9.210938 31.441406 C 9.210938 25.484375 11.578125 19.773438 15.789062 15.558594 C 20 11.347656 25.714844 8.980469 31.671875 8.980469 Z M 31.671875 8.980469 " clip-rule="nonzero"/></clipPath></defs><g clip-path="url(#c667d3f1dc)"><g clip-path="url(#572c141f8a)"><g transform="matrix(1, 0, 0, 1, 9, 8)"><g clip-path="url(#6bf2391203)"><g clip-path="url(#09a140634e)"><g clip-path="url(#507e55768d)"><path fill="#ffe788" d="M 0.210938 0.980469 L 265.214844 0.980469 L 265.214844 265.984375 L 0.210938 265.984375 Z M 0.210938 0.980469 " fill-opacity="1" fill-rule="nonzero"/></g></g></g></g></g></g><g clip-path="url(#705e062e3c)"><g clip-path="url(#301468ad6d)"><path stroke-linecap="butt" transform="matrix(0.74868, 0, 0, 0.74868, 9.21045, 8.981347)" fill="none" stroke-linejoin="miter" d="M 30.001386 -0.00117251 L 323.951201 -0.00117251 C 331.907917 -0.00117251 339.541148 3.160644 345.165634 8.78513 C 350.790119 14.414833 353.951936 22.042846 353.951936 29.999563 L 353.951936 323.954595 C 353.951936 331.911311 350.790119 339.539325 345.165634 345.169028 C 339.541148 350.793513 331.907917 353.95533 323.951201 353.95533 L 30.001386 353.95533 C 22.044669 353.95533 14.411439 350.793513 8.786953 345.169028 C 3.162467 339.539325 0.00065084 331.911311 0.00065084 323.954595 L 0.00065084 29.999563 C 0.00065084 22.042846 3.162467 14.414833 8.786953 8.78513 C 14.411439 3.160644 22.044669 -0.00117251 30.001386 -0.00117251 Z M 30.001386 -0.00117251 " stroke="#0664aa" stroke-width="36" stroke-opacity="1" stroke-miterlimit="4"/></g></g><path stroke-linecap="round" transform="matrix(0.74868, 0, 0, 0.74868, 112.569474, 76.170304)" fill="none" stroke-linejoin="miter" d="M 6.001268 6.002246 L 169.695726 6.002246 " stroke="#0664aa" stroke-width="12" stroke-opacity="1" stroke-miterlimit="4"/><path stroke-linecap="round" transform="matrix(0.74868, 0, 0, 0.74868, 112.569474, 154.032974)" fill="none" stroke-linejoin="miter" d="M 6.001268 5.997845 L 169.695726 5.997845 " stroke="#0664aa" stroke-width="12" stroke-opacity="1" stroke-miterlimit="4"/><path stroke-linecap="round" transform="matrix(0.74868, 0, 0, 0.74868, 112.569474, 232.224593)" fill="none" stroke-linejoin="miter" d="M 6.001268 5.997561 L 169.695726 5.997561 " stroke="#0664aa" stroke-width="12" stroke-opacity="1" stroke-miterlimit="4"/><g fill="#0664aa" fill-opacity="1"><g transform="translate(42.494655, 83.482094)"><g><path d="M 20.921875 -3.59375 C 20.878906 -2.664062 20.535156 -1.867188 19.890625 -1.203125 C 19.242188 -0.535156 18.445312 -0.222656 17.5 -0.265625 C 16.5625 -0.316406 15.753906 -0.6875 15.078125 -1.375 C 14.410156 -2.070312 14.101562 -2.898438 14.15625 -3.859375 C 14.519531 -15.691406 14.585938 -26.507812 14.359375 -36.3125 C 13.710938 -35.71875 13 -35.210938 12.21875 -34.796875 C 10.65625 -33.828125 8.445312 -33.09375 5.59375 -32.59375 C 4.625 -32.40625 3.75 -32.585938 2.96875 -33.140625 C 2.1875 -33.691406 1.710938 -34.4375 1.546875 -35.375 C 1.390625 -36.320312 1.585938 -37.1875 2.140625 -37.96875 C 2.691406 -38.757812 3.425781 -39.222656 4.34375 -39.359375 C 6.375 -39.722656 7.828125 -40.179688 8.703125 -40.734375 C 9.671875 -41.285156 10.679688 -42.320312 11.734375 -43.84375 L 11.734375 -43.90625 C 11.734375 -43.957031 11.742188 -44.015625 11.765625 -44.078125 C 11.796875 -44.148438 11.820312 -44.242188 11.84375 -44.359375 C 11.863281 -44.472656 11.90625 -44.625 11.96875 -44.8125 C 12.039062 -45 12.101562 -45.207031 12.15625 -45.4375 C 13.070312 -48.144531 14.703125 -49.429688 17.046875 -49.296875 C 18.335938 -49.203125 19.304688 -48.601562 19.953125 -47.5 C 20.273438 -47.039062 20.53125 -46.46875 20.71875 -45.78125 C 20.894531 -45.039062 21.007812 -44.070312 21.0625 -42.875 C 21.101562 -42.375 21.125 -40.441406 21.125 -37.078125 C 21.125 -35.328125 21.132812 -32.539062 21.15625 -28.71875 C 21.1875 -24.90625 21.203125 -21.925781 21.203125 -19.78125 C 21.203125 -17.644531 21.175781 -15.054688 21.125 -12.015625 C 21.082031 -8.972656 21.015625 -6.164062 20.921875 -3.59375 Z M 20.921875 -3.59375 "/></g></g></g><g fill="#0664aa" fill-opacity="1"><g transform="translate(69.213989, 83.482094)"><g><path d="M 9.453125 -6.828125 C 10.285156 -6.046875 10.703125 -5.113281 10.703125 -4.03125 C 10.703125 -2.957031 10.3125 -2.023438 9.53125 -1.234375 C 8.75 -0.453125 7.804688 -0.0625 6.703125 -0.0625 C 5.597656 -0.0625 4.664062 -0.453125 3.90625 -1.234375 C 3.144531 -2.023438 2.765625 -2.957031 2.765625 -4.03125 C 2.765625 -5.113281 3.144531 -6.046875 3.90625 -6.828125 C 4.664062 -7.617188 5.597656 -8.015625 6.703125 -8.015625 C 7.804688 -8.015625 8.722656 -7.617188 9.453125 -6.828125 Z M 9.453125 -6.828125 "/></g></g></g><g fill="#0664aa" fill-opacity="1"><g transform="translate(42.494655, 162.109704)"><g><path d="M 36.390625 0.140625 C 29.578125 -0.316406 23.726562 -0.503906 18.84375 -0.421875 C 18.707031 -0.421875 18.421875 -0.40625 17.984375 -0.375 C 17.546875 -0.351562 16.96875 -0.332031 16.25 -0.3125 C 15.539062 -0.289062 14.910156 -0.28125 14.359375 -0.28125 C 13.160156 -0.226562 12.21875 -0.203125 11.53125 -0.203125 C 11.070312 -0.160156 10.726562 -0.160156 10.5 -0.203125 L 10.015625 -0.203125 C 9.640625 -0.203125 9.25 -0.273438 8.84375 -0.421875 C 7.6875 -0.878906 6.566406 -1.578125 5.484375 -2.515625 C 4.398438 -3.460938 3.742188 -4.671875 3.515625 -6.140625 C 3.242188 -7.710938 3.632812 -9.367188 4.6875 -11.109375 C 5.332031 -12.222656 6.347656 -13.492188 7.734375 -14.921875 C 8.835938 -16.023438 11.644531 -18.53125 16.15625 -22.4375 C 19.976562 -25.75 22.71875 -28.328125 24.375 -30.171875 C 26.394531 -32.515625 27.429688 -34.3125 27.484375 -35.5625 C 27.523438 -37.8125 27.003906 -39.476562 25.921875 -40.5625 C 24.835938 -41.644531 23.398438 -42.234375 21.609375 -42.328125 C 19.679688 -42.367188 17.828125 -41.847656 16.046875 -40.765625 C 14.273438 -39.691406 13 -38.207031 12.21875 -36.3125 C 12.175781 -36.132812 12.128906 -35.816406 12.078125 -35.359375 C 11.984375 -33.929688 11.9375 -33.191406 11.9375 -33.140625 C 11.800781 -32.222656 11.351562 -31.472656 10.59375 -30.890625 C 9.832031 -30.316406 8.976562 -30.085938 8.03125 -30.203125 C 7.09375 -30.316406 6.335938 -30.753906 5.765625 -31.515625 C 5.191406 -32.273438 4.953125 -33.140625 5.046875 -34.109375 C 5.085938 -34.296875 5.117188 -34.476562 5.140625 -34.65625 C 5.160156 -34.84375 5.171875 -35.0625 5.171875 -35.3125 C 5.171875 -35.570312 5.195312 -35.769531 5.25 -35.90625 C 5.34375 -37.050781 5.550781 -38.015625 5.875 -38.796875 C 7.15625 -42.160156 9.316406 -44.765625 12.359375 -46.609375 C 15.398438 -48.453125 18.550781 -49.328125 21.8125 -49.234375 C 25.40625 -49.085938 28.421875 -47.804688 30.859375 -45.390625 C 33.304688 -42.972656 34.484375 -39.648438 34.390625 -35.421875 C 34.296875 -32.472656 32.679688 -29.203125 29.546875 -25.609375 C 27.796875 -23.628906 24.851562 -20.847656 20.71875 -17.265625 C 16.4375 -13.578125 13.742188 -11.179688 12.640625 -10.078125 C 11.671875 -9.066406 10.976562 -8.21875 10.5625 -7.53125 C 10.519531 -7.476562 10.5 -7.40625 10.5 -7.3125 C 10.59375 -7.226562 10.726562 -7.160156 10.90625 -7.109375 L 11.390625 -7.109375 C 12.035156 -7.109375 12.957031 -7.132812 14.15625 -7.1875 C 14.707031 -7.1875 15.347656 -7.195312 16.078125 -7.21875 C 16.816406 -7.238281 17.40625 -7.257812 17.84375 -7.28125 C 18.28125 -7.300781 18.570312 -7.3125 18.71875 -7.3125 C 23.820312 -7.40625 29.847656 -7.222656 36.796875 -6.765625 C 37.765625 -6.722656 38.554688 -6.332031 39.171875 -5.59375 C 39.796875 -4.851562 40.085938 -4.007812 40.046875 -3.0625 C 40.003906 -2.125 39.613281 -1.34375 38.875 -0.71875 C 38.132812 -0.101562 37.304688 0.179688 36.390625 0.140625 Z M 36.390625 0.140625 "/></g></g></g><g fill="#0664aa" fill-opacity="1"><g transform="translate(83.229556, 162.109704)"><g><path d="M 9.453125 -6.828125 C 10.285156 -6.046875 10.703125 -5.113281 10.703125 -4.03125 C 10.703125 -2.957031 10.3125 -2.023438 9.53125 -1.234375 C 8.75 -0.453125 7.804688 -0.0625 6.703125 -0.0625 C 5.597656 -0.0625 4.664062 -0.453125 3.90625 -1.234375 C 3.144531 -2.023438 2.765625 -2.957031 2.765625 -4.03125 C 2.765625 -5.113281 3.144531 -6.046875 3.90625 -6.828125 C 4.664062 -7.617188 5.597656 -8.015625 6.703125 -8.015625 C 7.804688 -8.015625 8.722656 -7.617188 9.453125 -6.828125 Z M 9.453125 -6.828125 "/></g></g></g><g fill="#0664aa" fill-opacity="1"><g transform="translate(42.494655, 240.737314)"><g><path d="M 18.4375 -0.0625 C 15.445312 -0.300781 12.867188 -1.15625 10.703125 -2.625 C 8.585938 -4 7.046875 -5.609375 6.078125 -7.453125 C 5.890625 -7.828125 5.269531 -9.484375 4.21875 -12.421875 C 3.894531 -13.296875 3.925781 -14.179688 4.3125 -15.078125 C 4.707031 -15.984375 5.351562 -16.597656 6.25 -16.921875 C 7.144531 -17.242188 8.03125 -17.207031 8.90625 -16.8125 C 9.78125 -16.414062 10.378906 -15.738281 10.703125 -14.78125 C 11.617188 -12.195312 12.101562 -10.882812 12.15625 -10.84375 C 12.570312 -10.0625 13.332031 -9.300781 14.4375 -8.5625 C 15.675781 -7.78125 17.238281 -7.285156 19.125 -7.078125 C 21.007812 -6.867188 22.921875 -7.066406 24.859375 -7.671875 C 26.785156 -8.265625 28.347656 -9.125 29.546875 -10.25 C 30.742188 -11.375 31.457031 -12.675781 31.6875 -14.15625 C 32.0625 -16.644531 31.050781 -18.644531 28.65625 -20.15625 C 27.738281 -20.707031 26.679688 -21.171875 25.484375 -21.546875 C 25.109375 -21.679688 24.738281 -21.796875 24.375 -21.890625 L 24.03125 -21.953125 C 23.9375 -21.953125 23.867188 -21.976562 23.828125 -22.03125 C 23.734375 -22.03125 23.640625 -22.050781 23.546875 -22.09375 C 23.410156 -22.144531 23.269531 -22.210938 23.125 -22.296875 C 22.894531 -22.390625 22.664062 -22.550781 22.4375 -22.78125 C 21.75 -23.382812 21.359375 -24.171875 21.265625 -25.140625 C 21.171875 -26.191406 21.492188 -27.15625 22.234375 -28.03125 C 22.460938 -28.3125 22.738281 -28.566406 23.0625 -28.796875 L 24.4375 -29.6875 C 25.726562 -30.5625 26.695312 -31.300781 27.34375 -31.90625 C 29.28125 -33.601562 29.96875 -35.304688 29.40625 -37.015625 C 28.488281 -40.003906 26.441406 -41.707031 23.265625 -42.125 C 21.742188 -42.351562 20.1875 -42.234375 18.59375 -41.765625 C 17.007812 -41.304688 15.625 -40.570312 14.4375 -39.5625 C 14.0625 -39.195312 13.75 -38.910156 13.5 -38.703125 C 13.25 -38.492188 13.019531 -38.203125 12.8125 -37.828125 C 12.601562 -37.460938 12.453125 -37.1875 12.359375 -37 C 12.265625 -36.820312 12.078125 -36.382812 11.796875 -35.6875 C 11.523438 -35 11.273438 -34.453125 11.046875 -34.046875 C 10.679688 -33.171875 10.046875 -32.554688 9.140625 -32.203125 C 8.242188 -31.859375 7.359375 -31.894531 6.484375 -32.3125 C 5.609375 -32.726562 5.007812 -33.394531 4.6875 -34.3125 C 4.375 -35.238281 4.421875 -36.140625 4.828125 -37.015625 C 4.921875 -37.242188 5.140625 -37.757812 5.484375 -38.5625 C 5.828125 -39.363281 6.078125 -39.925781 6.234375 -40.25 C 6.398438 -40.570312 6.664062 -41.03125 7.03125 -41.625 C 7.40625 -42.226562 7.820312 -42.796875 8.28125 -43.328125 C 8.738281 -43.859375 9.316406 -44.398438 10.015625 -44.953125 C 11.941406 -46.648438 14.171875 -47.867188 16.703125 -48.609375 C 19.234375 -49.347656 21.742188 -49.53125 24.234375 -49.15625 C 26.898438 -48.789062 29.300781 -47.765625 31.4375 -46.078125 C 33.582031 -44.398438 35.117188 -42.132812 36.046875 -39.28125 C 37.515625 -34.539062 36.132812 -30.285156 31.90625 -26.515625 L 31.828125 -26.4375 L 32.25 -26.171875 C 34.363281 -24.835938 36.050781 -23.085938 37.3125 -20.921875 C 38.582031 -18.753906 38.960938 -16.128906 38.453125 -13.046875 C 37.992188 -9.921875 36.671875 -7.320312 34.484375 -5.25 C 32.296875 -3.175781 29.753906 -1.722656 26.859375 -0.890625 C 24.285156 -0.015625 21.476562 0.257812 18.4375 -0.0625 Z M 18.4375 -0.0625 "/></g></g></g><g fill="#0664aa" fill-opacity="1"><g transform="translate(84.955611, 240.737314)"><g><path d="M 9.453125 -6.828125 C 10.285156 -6.046875 10.703125 -5.113281 10.703125 -4.03125 C 10.703125 -2.957031 10.3125 -2.023438 9.53125 -1.234375 C 8.75 -0.453125 7.804688 -0.0625 6.703125 -0.0625 C 5.597656 -0.0625 4.664062 -0.453125 3.90625 -1.234375 C 3.144531 -2.023438 2.765625 -2.957031 2.765625 -4.03125 C 2.765625 -5.113281 3.144531 -6.046875 3.90625 -6.828125 C 4.664062 -7.617188 5.597656 -8.015625 6.703125 -8.015625 C 7.804688 -8.015625 8.722656 -7.617188 9.453125 -6.828125 Z M 9.453125 -6.828125 "/></g></g></g></svg>